<svg width="32" height="32" viewBox="0 0 32 32" fill="none" xmlns="http://www.w3.org/2000/svg">
<path fill-rule="evenodd" clip-rule="evenodd" d="M31 9.7002C31 14.5002 24.3106 18.4004 16 18.4004C7.68943 18.4004 1 14.5002 1 9.7002V22.2998C1 27.0998 7.68943 31 16 31C24.3106 31 31 27.0998 31 22.2998V9.7002Z" fill="#BF8700"/>
<path fill-rule="evenodd" clip-rule="evenodd" d="M31 9.7002C31 14.5002 24.3106 18.4004 16 18.4004C7.68943 18.4004 1 14.5002 1 9.7002V22.2998C1 27.0998 7.68943 31 16 31C24.3106 31 31 27.0998 31 22.2998V9.7002Z" stroke="white" stroke-width="0.788" stroke-linecap="round"/>
<path fill-rule="evenodd" clip-rule="evenodd" d="M16 18.3996C24.3111 18.3996 31 14.4994 31 9.69943C31 4.89943 24.3111 1 16 1C7.68892 1 1 4.90019 1 9.70019C1 14.5002 7.68943 18.4004 16 18.4004V18.3996Z" fill="#BF8700"/>
<path fill-rule="evenodd" clip-rule="evenodd" d="M16 18.3996C24.3111 18.3996 31 14.4994 31 9.69943C31 4.89943 24.3111 1 16 1C7.68892 1 1 4.90019 1 9.70019C1 14.5002 7.68943 18.4004 16 18.4004V18.3996Z" stroke="white" stroke-width="0.788" stroke-linecap="round"/>
<path fill-rule="evenodd" clip-rule="evenodd" d="M12.5565 6.39524L13.773 9.09543L9.11086 10.5956L10.1245 9.39562L3.02942 7.59524L4.8539 5.49543L11.7462 7.29505L12.557 6.39524H12.5565ZM19.2459 12.9949L18.2323 10.2954L22.4892 8.79524L21.8812 9.99524L28.7735 11.7949L27.1518 13.5952L20.0573 11.7949L19.2464 12.9949H19.2459ZM16.8134 4.89581L21.4756 3.09619L21.6784 5.79638L20.4619 5.49619L18.2323 8.49657L16.0026 7.89695L18.2323 5.19676L16.8134 4.89657V4.89581ZM14.7866 15.6958L10.3274 16.8958L10.1245 13.596L11.5433 14.1956L13.9758 10.8958L16.2055 11.4954L13.5701 15.0954L14.7861 15.6958H14.7866Z" fill="white"/>
</svg>