<svg width="307" height="511" viewBox="0 0 307 511" fill="none" xmlns="http://www.w3.org/2000/svg">
<rect x="0.5" y="0.5" width="306" height="510" rx="4.5" stroke="#BDBDBD" stroke-dasharray="10 5"/>
<rect x="52.5" y="61.5" width="84" height="84" rx="6.5" fill="white"/>
<rect x="52.5" y="61.5" width="84" height="84" rx="6.5" stroke="#9E9E9E" stroke-width="3"/>
<g clip-path="url(#clip0_719_102779)">
<path d="M79.9167 105.958V111.813C79.9167 113.333 80.75 114.75 82.0833 115.479L92.5 121.167C93.75 121.854 95.25 121.854 96.5 121.167L106.917 115.479C108.25 114.75 109.083 113.333 109.083 111.813V105.958L96.5 112.833C95.25 113.521 93.75 113.521 92.5 112.833L79.9167 105.958ZM92.5 85.8335L74.9375 95.4168C73.5 96.2085 73.5 98.2918 74.9375 99.0835L92.5 108.667C93.75 109.354 95.25 109.354 96.5 108.667L113.25 99.521V111.833C113.25 112.979 114.187 113.917 115.333 113.917C116.479 113.917 117.417 112.979 117.417 111.833V98.4793C117.417 97.7085 117 97.021 116.333 96.646L96.5 85.8335C95.25 85.1668 93.75 85.1668 92.5 85.8335V85.8335Z" fill="#9E9E9E"/>
</g>
<path d="M46.603 172.836L45.5044 176H42.9116L47.4292 163.616H50.4878L54.9878 176H52.4214L51.3228 172.836H46.603ZM48.9585 165.523C48.8999 165.758 48.8179 166.039 48.7124 166.367C48.607 166.695 48.5308 166.927 48.4839 167.062L47.1831 170.885H50.7427L49.4068 166.982C49.3247 166.742 49.2486 166.499 49.1782 166.253C49.1079 166.007 49.0347 165.764 48.9585 165.523ZM61.318 168.494V176H59.0153V163.616H62.487L64.7018 170.542C64.8014 170.929 64.904 171.318 65.0095 171.711C65.1149 172.098 65.2175 172.484 65.3171 172.871C65.3815 172.648 65.443 172.429 65.5016 172.212C65.5602 171.989 65.6188 171.767 65.6774 171.544C65.7419 171.321 65.8063 171.102 65.8708 170.885L68.1471 163.616H71.6012V176H69.2985V168.494C69.2985 168.324 69.3044 167.984 69.3161 167.475C69.3337 166.959 69.3571 166.399 69.3864 165.796C69.1813 166.581 68.9997 167.249 68.8415 167.8C68.6891 168.351 68.5632 168.781 68.4636 169.092L66.2311 176H64.3854L62.153 169.092L61.2126 165.796C61.2477 166.476 61.2741 167.041 61.2917 167.492C61.3093 167.938 61.318 168.271 61.318 168.494ZM78.9422 170.691V176H76.3495V163.616H78.9422V168.547H84.3387V163.616H86.9315V176H84.3387V170.691H78.9422ZM101.796 173.996V176H91.6973V163.616H101.436V165.62H94.29V168.731H100.899V170.735H94.29V173.996H101.796ZM108.636 171.298V176H106.043V163.616H112.231C113.707 163.616 114.847 163.936 115.65 164.574C116.452 165.207 116.854 166.118 116.854 167.308C116.854 168.175 116.608 168.925 116.115 169.558C115.623 170.185 114.958 170.598 114.12 170.797L117.469 176H114.551L111.677 171.298H108.636ZM114.243 167.413C114.243 166.821 114.053 166.376 113.672 166.077C113.291 165.778 112.72 165.629 111.958 165.629H108.636V169.285H112.028C112.755 169.285 113.306 169.121 113.681 168.793C114.056 168.465 114.243 168.005 114.243 167.413ZM131.49 172.432C131.49 173.645 131.038 174.573 130.136 175.218C129.24 175.856 127.921 176.176 126.181 176.176C123.046 176.176 121.221 175.042 120.705 172.774L123.21 172.361C123.38 173.018 123.711 173.495 124.203 173.794C124.696 174.087 125.378 174.233 126.251 174.233C127.159 174.233 127.839 174.096 128.29 173.82C128.742 173.545 128.967 173.132 128.967 172.581C128.967 172.229 128.865 171.939 128.659 171.711C128.454 171.482 128.161 171.292 127.781 171.14C127.593 171.063 127.318 170.981 126.954 170.894C126.591 170.8 126.14 170.697 125.601 170.586C124.98 170.439 124.493 170.316 124.142 170.217C123.79 170.111 123.509 170.012 123.298 169.918C123.087 169.818 122.882 169.71 122.683 169.593C122.243 169.329 121.901 168.978 121.655 168.538C121.409 168.099 121.285 167.551 121.285 166.895C121.285 165.775 121.704 164.92 122.542 164.328C123.386 163.73 124.611 163.432 126.216 163.432C127.751 163.432 128.903 163.672 129.67 164.152C130.444 164.633 130.942 165.427 131.164 166.534L128.651 166.877C128.522 166.344 128.258 165.942 127.86 165.673C127.467 165.403 126.902 165.269 126.163 165.269C125.378 165.269 124.789 165.392 124.397 165.638C124.004 165.884 123.808 166.253 123.808 166.745C123.808 167.067 123.89 167.331 124.054 167.536C124.224 167.741 124.473 167.917 124.801 168.063C125.112 168.204 125.777 168.383 126.796 168.6C127.388 168.729 127.898 168.852 128.326 168.969C128.753 169.08 129.096 169.188 129.354 169.294C129.612 169.405 129.84 169.522 130.039 169.646C130.244 169.769 130.42 169.9 130.567 170.041C130.866 170.328 131.094 170.671 131.252 171.069C131.41 171.462 131.49 171.916 131.49 172.432ZM141.327 165.62V176H138.734V165.62H134.735V163.616H145.334V165.62H141.327Z" fill="#00153C"/>
<rect x="52.5" y="189.5" width="84" height="84" rx="6.5" fill="white"/>
<rect x="52.5" y="189.5" width="84" height="84" rx="6.5" stroke="#757575" stroke-width="3"/>
<g clip-path="url(#clip1_719_102779)">
<path d="M79.9167 233.958V239.813C79.9167 241.333 80.75 242.75 82.0833 243.479L92.5 249.167C93.75 249.854 95.25 249.854 96.5 249.167L106.917 243.479C108.25 242.75 109.083 241.333 109.083 239.813V233.958L96.5 240.833C95.25 241.521 93.75 241.521 92.5 240.833L79.9167 233.958ZM92.5 213.833L74.9375 223.417C73.5 224.208 73.5 226.292 74.9375 227.083L92.5 236.667C93.75 237.354 95.25 237.354 96.5 236.667L113.25 227.521V239.833C113.25 240.979 114.187 241.917 115.333 241.917C116.479 241.917 117.417 240.979 117.417 239.833V226.479C117.417 225.708 117 225.021 116.333 224.646L96.5 213.833C95.25 213.167 93.75 213.167 92.5 213.833V213.833Z" fill="#757575"/>
</g>
<path d="M46.603 300.836L45.5044 304H42.9116L47.4292 291.616H50.4878L54.9878 304H52.4214L51.3228 300.836H46.603ZM48.9585 293.523C48.8999 293.758 48.8179 294.039 48.7124 294.367C48.607 294.695 48.5308 294.927 48.4839 295.062L47.1831 298.885H50.7427L49.4068 294.982C49.3247 294.742 49.2486 294.499 49.1782 294.253C49.1079 294.007 49.0347 293.764 48.9585 293.523ZM61.318 296.494V304H59.0153V291.616H62.487L64.7018 298.542C64.8014 298.929 64.904 299.318 65.0095 299.711C65.1149 300.098 65.2175 300.484 65.3171 300.871C65.3815 300.648 65.443 300.429 65.5016 300.212C65.5602 299.989 65.6188 299.767 65.6774 299.544C65.7419 299.321 65.8063 299.102 65.8708 298.885L68.1471 291.616H71.6012V304H69.2985V296.494C69.2985 296.324 69.3044 295.984 69.3161 295.475C69.3337 294.959 69.3571 294.399 69.3864 293.796C69.1813 294.581 68.9997 295.249 68.8415 295.8C68.6891 296.351 68.5632 296.781 68.4636 297.092L66.2311 304H64.3854L62.153 297.092L61.2126 293.796C61.2477 294.476 61.2741 295.041 61.2917 295.492C61.3093 295.938 61.318 296.271 61.318 296.494ZM78.9422 298.691V304H76.3495V291.616H78.9422V296.547H84.3387V291.616H86.9315V304H84.3387V298.691H78.9422ZM101.796 301.996V304H91.6973V291.616H101.436V293.62H94.29V296.731H100.899V298.735H94.29V301.996H101.796ZM108.636 299.298V304H106.043V291.616H112.231C113.707 291.616 114.847 291.936 115.65 292.574C116.452 293.207 116.854 294.118 116.854 295.308C116.854 296.175 116.608 296.925 116.115 297.558C115.623 298.185 114.958 298.598 114.12 298.797L117.469 304H114.551L111.677 299.298H108.636ZM114.243 295.413C114.243 294.821 114.053 294.376 113.672 294.077C113.291 293.778 112.72 293.629 111.958 293.629H108.636V297.285H112.028C112.755 297.285 113.306 297.121 113.681 296.793C114.056 296.465 114.243 296.005 114.243 295.413ZM131.49 300.432C131.49 301.645 131.038 302.573 130.136 303.218C129.24 303.856 127.921 304.176 126.181 304.176C123.046 304.176 121.221 303.042 120.705 300.774L123.21 300.361C123.38 301.018 123.711 301.495 124.203 301.794C124.696 302.087 125.378 302.233 126.251 302.233C127.159 302.233 127.839 302.096 128.29 301.82C128.742 301.545 128.967 301.132 128.967 300.581C128.967 300.229 128.865 299.939 128.659 299.711C128.454 299.482 128.161 299.292 127.781 299.14C127.593 299.063 127.318 298.981 126.954 298.894C126.591 298.8 126.14 298.697 125.601 298.586C124.98 298.439 124.493 298.316 124.142 298.217C123.79 298.111 123.509 298.012 123.298 297.918C123.087 297.818 122.882 297.71 122.683 297.593C122.243 297.329 121.901 296.978 121.655 296.538C121.409 296.099 121.285 295.551 121.285 294.895C121.285 293.775 121.704 292.92 122.542 292.328C123.386 291.73 124.611 291.432 126.216 291.432C127.751 291.432 128.903 291.672 129.67 292.152C130.444 292.633 130.942 293.427 131.164 294.534L128.651 294.877C128.522 294.344 128.258 293.942 127.86 293.673C127.467 293.403 126.902 293.269 126.163 293.269C125.378 293.269 124.789 293.392 124.397 293.638C124.004 293.884 123.808 294.253 123.808 294.745C123.808 295.067 123.89 295.331 124.054 295.536C124.224 295.741 124.473 295.917 124.801 296.063C125.112 296.204 125.777 296.383 126.796 296.6C127.388 296.729 127.898 296.852 128.326 296.969C128.753 297.08 129.096 297.188 129.354 297.294C129.612 297.405 129.84 297.522 130.039 297.646C130.244 297.769 130.42 297.9 130.567 298.041C130.866 298.328 131.094 298.671 131.252 299.069C131.41 299.462 131.49 299.916 131.49 300.432ZM141.327 293.62V304H138.734V293.62H134.735V291.616H145.334V293.62H141.327Z" fill="#00153C"/>
<rect x="52.5" y="332.5" width="84" height="84" rx="6.5" fill="white"/>
<rect x="52.5" y="332.5" width="84" height="84" rx="6.5" stroke="#212121" stroke-width="3"/>
<g clip-path="url(#clip2_719_102779)">
<path d="M79.9167 376.958V382.813C79.9167 384.333 80.75 385.75 82.0833 386.479L92.5 392.167C93.75 392.854 95.25 392.854 96.5 392.167L106.917 386.479C108.25 385.75 109.083 384.333 109.083 382.813V376.958L96.5 383.833C95.25 384.521 93.75 384.521 92.5 383.833L79.9167 376.958ZM92.5 356.833L74.9375 366.417C73.5 367.208 73.5 369.292 74.9375 370.083L92.5 379.667C93.75 380.354 95.25 380.354 96.5 379.667L113.25 370.521V382.833C113.25 383.979 114.187 384.917 115.333 384.917C116.479 384.917 117.417 383.979 117.417 382.833V369.479C117.417 368.708 117 368.021 116.333 367.646L96.5 356.833C95.25 356.167 93.75 356.167 92.5 356.833V356.833Z" fill="#212121"/>
</g>
<path d="M46.603 443.836L45.5044 447H42.9116L47.4292 434.616H50.4878L54.9878 447H52.4214L51.3228 443.836H46.603ZM48.9585 436.523C48.8999 436.758 48.8179 437.039 48.7124 437.367C48.607 437.695 48.5308 437.927 48.4839 438.062L47.1831 441.885H50.7427L49.4068 437.982C49.3247 437.742 49.2486 437.499 49.1782 437.253C49.1079 437.007 49.0347 436.764 48.9585 436.523ZM61.318 439.494V447H59.0153V434.616H62.487L64.7018 441.542C64.8014 441.929 64.904 442.318 65.0095 442.711C65.1149 443.098 65.2175 443.484 65.3171 443.871C65.3815 443.648 65.443 443.429 65.5016 443.212C65.5602 442.989 65.6188 442.767 65.6774 442.544C65.7419 442.321 65.8063 442.102 65.8708 441.885L68.1471 434.616H71.6012V447H69.2985V439.494C69.2985 439.324 69.3044 438.984 69.3161 438.475C69.3337 437.959 69.3571 437.399 69.3864 436.796C69.1813 437.581 68.9997 438.249 68.8415 438.8C68.6891 439.351 68.5632 439.781 68.4636 440.092L66.2311 447H64.3854L62.153 440.092L61.2126 436.796C61.2477 437.476 61.2741 438.041 61.2917 438.492C61.3093 438.938 61.318 439.271 61.318 439.494ZM78.9422 441.691V447H76.3495V434.616H78.9422V439.547H84.3387V434.616H86.9315V447H84.3387V441.691H78.9422ZM101.796 444.996V447H91.6973V434.616H101.436V436.62H94.29V439.731H100.899V441.735H94.29V444.996H101.796ZM108.636 442.298V447H106.043V434.616H112.231C113.707 434.616 114.847 434.936 115.65 435.574C116.452 436.207 116.854 437.118 116.854 438.308C116.854 439.175 116.608 439.925 116.115 440.558C115.623 441.185 114.958 441.598 114.12 441.797L117.469 447H114.551L111.677 442.298H108.636ZM114.243 438.413C114.243 437.821 114.053 437.376 113.672 437.077C113.291 436.778 112.72 436.629 111.958 436.629H108.636V440.285H112.028C112.755 440.285 113.306 440.121 113.681 439.793C114.056 439.465 114.243 439.005 114.243 438.413ZM131.49 443.432C131.49 444.645 131.038 445.573 130.136 446.218C129.24 446.856 127.921 447.176 126.181 447.176C123.046 447.176 121.221 446.042 120.705 443.774L123.21 443.361C123.38 444.018 123.711 444.495 124.203 444.794C124.696 445.087 125.378 445.233 126.251 445.233C127.159 445.233 127.839 445.096 128.29 444.82C128.742 444.545 128.967 444.132 128.967 443.581C128.967 443.229 128.865 442.939 128.659 442.711C128.454 442.482 128.161 442.292 127.781 442.14C127.593 442.063 127.318 441.981 126.954 441.894C126.591 441.8 126.14 441.697 125.601 441.586C124.98 441.439 124.493 441.316 124.142 441.217C123.79 441.111 123.509 441.012 123.298 440.918C123.087 440.818 122.882 440.71 122.683 440.593C122.243 440.329 121.901 439.978 121.655 439.538C121.409 439.099 121.285 438.551 121.285 437.895C121.285 436.775 121.704 435.92 122.542 435.328C123.386 434.73 124.611 434.432 126.216 434.432C127.751 434.432 128.903 434.672 129.67 435.152C130.444 435.633 130.942 436.427 131.164 437.534L128.651 437.877C128.522 437.344 128.258 436.942 127.86 436.673C127.467 436.403 126.902 436.269 126.163 436.269C125.378 436.269 124.789 436.392 124.397 436.638C124.004 436.884 123.808 437.253 123.808 437.745C123.808 438.067 123.89 438.331 124.054 438.536C124.224 438.741 124.473 438.917 124.801 439.063C125.112 439.204 125.777 439.383 126.796 439.6C127.388 439.729 127.898 439.852 128.326 439.969C128.753 440.08 129.096 440.188 129.354 440.294C129.612 440.405 129.84 440.522 130.039 440.646C130.244 440.769 130.42 440.9 130.567 441.041C130.866 441.328 131.094 441.671 131.252 442.069C131.41 442.462 131.49 442.916 131.49 443.432ZM141.327 436.62V447H138.734V436.62H134.735V434.616H145.334V436.62H141.327Z" fill="#00153C"/>
<defs>
<clipPath id="clip0_719_102779">
<rect width="50" height="50" fill="white" transform="translate(69.5 78.5)"/>
</clipPath>
<clipPath id="clip1_719_102779">
<rect width="50" height="50" fill="white" transform="translate(69.5 206.5)"/>
</clipPath>
<clipPath id="clip2_719_102779">
<rect width="50" height="50" fill="white" transform="translate(69.5 349.5)"/>
</clipPath>
</defs>
</svg>
