<svg width="323" height="546" viewBox="0 0 323 546" fill="none" xmlns="http://www.w3.org/2000/svg">
<rect x="0.5" y="0.5" width="322" height="545" rx="4.5" stroke="#9747FF" stroke-dasharray="10 5"/>
<rect x="21.5" y="35.5" width="84" height="84" rx="6.5" fill="white"/>
<rect x="21.5" y="35.5" width="84" height="84" rx="6.5" stroke="#BF8700" stroke-width="3"/>
<g clip-path="url(#clip0_719_102792)">
<path d="M48.9167 79.9585V85.8127C48.9167 87.3335 49.75 88.7502 51.0833 89.4793L61.5 95.1668C62.75 95.8543 64.25 95.8543 65.5 95.1668L75.9167 89.4793C77.25 88.7502 78.0833 87.3335 78.0833 85.8127V79.9585L65.5 86.8335C64.25 87.521 62.75 87.521 61.5 86.8335L48.9167 79.9585ZM61.5 59.8335L43.9375 69.4168C42.5 70.2085 42.5 72.2918 43.9375 73.0835L61.5 82.6668C62.75 83.3543 64.25 83.3543 65.5 82.6668L82.25 73.521V85.8335C82.25 86.9793 83.1875 87.9168 84.3333 87.9168C85.4792 87.9168 86.4167 86.9793 86.4167 85.8335V72.4793C86.4167 71.7085 86 71.021 85.3333 70.646L65.5 59.8335C64.25 59.1668 62.75 59.1668 61.5 59.8335V59.8335Z" fill="#BF8700"/>
</g>
<rect x="49" y="20" width="28" height="28" rx="14" fill="white"/>
<path d="M63 22.3335C56.56 22.3335 51.3333 27.5602 51.3333 34.0002C51.3333 40.4402 56.56 45.6668 63 45.6668C69.44 45.6668 74.6667 40.4402 74.6667 34.0002C74.6667 27.5602 69.44 22.3335 63 22.3335ZM63 35.1668C62.3583 35.1668 61.8333 34.6418 61.8333 34.0002V29.3335C61.8333 28.6918 62.3583 28.1668 63 28.1668C63.6417 28.1668 64.1667 28.6918 64.1667 29.3335V34.0002C64.1667 34.6418 63.6417 35.1668 63 35.1668ZM64.1667 39.8335H61.8333V37.5002H64.1667V39.8335Z" fill="white"/>
<path d="M63 22.3335C56.56 22.3335 51.3333 27.5602 51.3333 34.0002C51.3333 40.4402 56.56 45.6668 63 45.6668C69.44 45.6668 74.6667 40.4402 74.6667 34.0002C74.6667 27.5602 69.44 22.3335 63 22.3335ZM63 35.1668C62.3583 35.1668 61.8333 34.6418 61.8333 34.0002V29.3335C61.8333 28.6918 62.3583 28.1668 63 28.1668C63.6417 28.1668 64.1667 28.6918 64.1667 29.3335V34.0002C64.1667 34.6418 63.6417 35.1668 63 35.1668ZM64.1667 39.8335H61.8333V37.5002H64.1667V39.8335Z" fill="#BF8700"/>
<path d="M15.603 142.836L14.5044 146H11.9116L16.4292 133.616H19.4878L23.9878 146H21.4214L20.3228 142.836H15.603ZM17.9585 135.523C17.8999 135.758 17.8179 136.039 17.7124 136.367C17.607 136.695 17.5308 136.927 17.4839 137.062L16.1831 140.885H19.7427L18.4068 136.982C18.3247 136.742 18.2486 136.499 18.1782 136.253C18.1079 136.007 18.0347 135.764 17.9585 135.523ZM30.318 138.494V146H28.0153V133.616H31.487L33.7018 140.542C33.8014 140.929 33.904 141.318 34.0095 141.711C34.1149 142.098 34.2175 142.484 34.3171 142.871C34.3815 142.648 34.443 142.429 34.5016 142.212C34.5602 141.989 34.6188 141.767 34.6774 141.544C34.7419 141.321 34.8063 141.102 34.8708 140.885L37.1471 133.616H40.6012V146H38.2985V138.494C38.2985 138.324 38.3044 137.984 38.3161 137.475C38.3337 136.959 38.3571 136.399 38.3864 135.796C38.1813 136.581 37.9997 137.249 37.8415 137.8C37.6891 138.351 37.5632 138.781 37.4636 139.092L35.2311 146H33.3854L31.153 139.092L30.2126 135.796C30.2477 136.476 30.2741 137.041 30.2917 137.492C30.3093 137.938 30.318 138.271 30.318 138.494ZM47.9422 140.691V146H45.3495V133.616H47.9422V138.547H53.3387V133.616H55.9315V146H53.3387V140.691H47.9422ZM70.7959 143.996V146H60.6973V133.616H70.4355V135.62H63.29V138.731H69.8994V140.735H63.29V143.996H70.7959ZM77.6359 141.298V146H75.0431V133.616H81.2306C82.7072 133.616 83.8468 133.936 84.6496 134.574C85.4523 135.207 85.8537 136.118 85.8537 137.308C85.8537 138.175 85.6076 138.925 85.1154 139.558C84.6232 140.185 83.9582 140.598 83.1203 140.797L86.4689 146H83.5509L80.6769 141.298H77.6359ZM83.2433 137.413C83.2433 136.821 83.0529 136.376 82.672 136.077C82.2912 135.778 81.7199 135.629 80.9582 135.629H77.6359V139.285H81.0285C81.755 139.285 82.3058 139.121 82.6808 138.793C83.0558 138.465 83.2433 138.005 83.2433 137.413ZM100.49 142.432C100.49 143.645 100.038 144.573 99.136 145.218C98.2396 145.856 96.9212 146.176 95.181 146.176C92.0462 146.176 90.221 145.042 89.7054 142.774L92.2103 142.361C92.3802 143.018 92.7112 143.495 93.2034 143.794C93.6956 144.087 94.3782 144.233 95.2513 144.233C96.1595 144.233 96.8392 144.096 97.2903 143.82C97.7415 143.545 97.9671 143.132 97.9671 142.581C97.9671 142.229 97.8646 141.939 97.6595 141.711C97.4544 141.482 97.1614 141.292 96.7806 141.14C96.5931 141.063 96.3177 140.981 95.9544 140.894C95.5911 140.8 95.14 140.697 94.6009 140.586C93.9798 140.439 93.4935 140.316 93.1419 140.217C92.7903 140.111 92.5091 140.012 92.2982 139.918C92.0872 139.818 91.8821 139.71 91.6829 139.593C91.2435 139.329 90.9007 138.978 90.6546 138.538C90.4085 138.099 90.2855 137.551 90.2855 136.895C90.2855 135.775 90.7044 134.92 91.5423 134.328C92.386 133.73 93.6107 133.432 95.2161 133.432C96.7513 133.432 97.9026 133.672 98.6702 134.152C99.4437 134.633 99.9417 135.427 100.164 136.534L97.6507 136.877C97.5218 136.344 97.2581 135.942 96.8597 135.673C96.4671 135.403 95.9017 135.269 95.1634 135.269C94.3782 135.269 93.7894 135.392 93.3968 135.638C93.0042 135.884 92.8079 136.253 92.8079 136.745C92.8079 137.067 92.89 137.331 93.054 137.536C93.2239 137.741 93.473 137.917 93.8011 138.063C94.1116 138.204 94.7767 138.383 95.7962 138.6C96.388 138.729 96.8978 138.852 97.3255 138.969C97.7532 139.08 98.096 139.188 98.3538 139.294C98.6116 139.405 98.8401 139.522 99.0394 139.646C99.2444 139.769 99.4202 139.9 99.5667 140.041C99.8655 140.328 100.094 140.671 100.252 141.069C100.41 141.462 100.49 141.916 100.49 142.432ZM110.327 135.62V146H107.734V135.62H103.735V133.616H114.334V135.62H110.327Z" fill="#BF8700"/>
<rect x="21.5" y="238.5" width="84" height="84" rx="6.5" fill="white"/>
<rect x="21.5" y="238.5" width="84" height="84" rx="6.5" stroke="#9A6700" stroke-width="3"/>
<g clip-path="url(#clip1_719_102792)">
<path d="M48.9167 282.958V288.813C48.9167 290.333 49.75 291.75 51.0833 292.479L61.5 298.167C62.75 298.854 64.25 298.854 65.5 298.167L75.9167 292.479C77.25 291.75 78.0833 290.333 78.0833 288.813V282.958L65.5 289.833C64.25 290.521 62.75 290.521 61.5 289.833L48.9167 282.958ZM61.5 262.833L43.9375 272.417C42.5 273.208 42.5 275.292 43.9375 276.083L61.5 285.667C62.75 286.354 64.25 286.354 65.5 285.667L82.25 276.521V288.833C82.25 289.979 83.1875 290.917 84.3333 290.917C85.4792 290.917 86.4167 289.979 86.4167 288.833V275.479C86.4167 274.708 86 274.021 85.3333 273.646L65.5 262.833C64.25 262.167 62.75 262.167 61.5 262.833V262.833Z" fill="#9A6700"/>
</g>
<rect x="49" y="223" width="28" height="28" rx="14" fill="white"/>
<path d="M63 225.333C56.56 225.333 51.3333 230.56 51.3333 237C51.3333 243.44 56.56 248.667 63 248.667C69.44 248.667 74.6667 243.44 74.6667 237C74.6667 230.56 69.44 225.333 63 225.333ZM63 238.167C62.3583 238.167 61.8333 237.642 61.8333 237V232.333C61.8333 231.692 62.3583 231.167 63 231.167C63.6417 231.167 64.1667 231.692 64.1667 232.333V237C64.1667 237.642 63.6417 238.167 63 238.167ZM64.1667 242.833H61.8333V240.5H64.1667V242.833Z" fill="#9A6700"/>
<path d="M15.603 345.836L14.5044 349H11.9116L16.4292 336.616H19.4878L23.9878 349H21.4214L20.3228 345.836H15.603ZM17.9585 338.523C17.8999 338.758 17.8179 339.039 17.7124 339.367C17.607 339.695 17.5308 339.927 17.4839 340.062L16.1831 343.885H19.7427L18.4068 339.982C18.3247 339.742 18.2486 339.499 18.1782 339.253C18.1079 339.007 18.0347 338.764 17.9585 338.523ZM30.318 341.494V349H28.0153V336.616H31.487L33.7018 343.542C33.8014 343.929 33.904 344.318 34.0095 344.711C34.1149 345.098 34.2175 345.484 34.3171 345.871C34.3815 345.648 34.443 345.429 34.5016 345.212C34.5602 344.989 34.6188 344.767 34.6774 344.544C34.7419 344.321 34.8063 344.102 34.8708 343.885L37.1471 336.616H40.6012V349H38.2985V341.494C38.2985 341.324 38.3044 340.984 38.3161 340.475C38.3337 339.959 38.3571 339.399 38.3864 338.796C38.1813 339.581 37.9997 340.249 37.8415 340.8C37.6891 341.351 37.5632 341.781 37.4636 342.092L35.2311 349H33.3854L31.153 342.092L30.2126 338.796C30.2477 339.476 30.2741 340.041 30.2917 340.492C30.3093 340.938 30.318 341.271 30.318 341.494ZM47.9422 343.691V349H45.3495V336.616H47.9422V341.547H53.3387V336.616H55.9315V349H53.3387V343.691H47.9422ZM70.7959 346.996V349H60.6973V336.616H70.4355V338.62H63.29V341.731H69.8994V343.735H63.29V346.996H70.7959ZM77.6359 344.298V349H75.0431V336.616H81.2306C82.7072 336.616 83.8468 336.936 84.6496 337.574C85.4523 338.207 85.8537 339.118 85.8537 340.308C85.8537 341.175 85.6076 341.925 85.1154 342.558C84.6232 343.185 83.9582 343.598 83.1203 343.797L86.4689 349H83.5509L80.6769 344.298H77.6359ZM83.2433 340.413C83.2433 339.821 83.0529 339.376 82.672 339.077C82.2912 338.778 81.7199 338.629 80.9582 338.629H77.6359V342.285H81.0285C81.755 342.285 82.3058 342.121 82.6808 341.793C83.0558 341.465 83.2433 341.005 83.2433 340.413ZM100.49 345.432C100.49 346.645 100.038 347.573 99.136 348.218C98.2396 348.856 96.9212 349.176 95.181 349.176C92.0462 349.176 90.221 348.042 89.7054 345.774L92.2103 345.361C92.3802 346.018 92.7112 346.495 93.2034 346.794C93.6956 347.087 94.3782 347.233 95.2513 347.233C96.1595 347.233 96.8392 347.096 97.2903 346.82C97.7415 346.545 97.9671 346.132 97.9671 345.581C97.9671 345.229 97.8646 344.939 97.6595 344.711C97.4544 344.482 97.1614 344.292 96.7806 344.14C96.5931 344.063 96.3177 343.981 95.9544 343.894C95.5911 343.8 95.14 343.697 94.6009 343.586C93.9798 343.439 93.4935 343.316 93.1419 343.217C92.7903 343.111 92.5091 343.012 92.2982 342.918C92.0872 342.818 91.8821 342.71 91.6829 342.593C91.2435 342.329 90.9007 341.978 90.6546 341.538C90.4085 341.099 90.2855 340.551 90.2855 339.895C90.2855 338.775 90.7044 337.92 91.5423 337.328C92.386 336.73 93.6107 336.432 95.2161 336.432C96.7513 336.432 97.9026 336.672 98.6702 337.152C99.4437 337.633 99.9417 338.427 100.164 339.534L97.6507 339.877C97.5218 339.344 97.2581 338.942 96.8597 338.673C96.4671 338.403 95.9017 338.269 95.1634 338.269C94.3782 338.269 93.7894 338.392 93.3968 338.638C93.0042 338.884 92.8079 339.253 92.8079 339.745C92.8079 340.067 92.89 340.331 93.054 340.536C93.2239 340.741 93.473 340.917 93.8011 341.063C94.1116 341.204 94.7767 341.383 95.7962 341.6C96.388 341.729 96.8978 341.852 97.3255 341.969C97.7532 342.08 98.096 342.188 98.3538 342.294C98.6116 342.405 98.8401 342.522 99.0394 342.646C99.2444 342.769 99.4202 342.9 99.5667 343.041C99.8655 343.328 100.094 343.671 100.252 344.069C100.41 344.462 100.49 344.916 100.49 345.432ZM110.327 338.62V349H107.734V338.62H103.735V336.616H114.334V338.62H110.327Z" fill="#3B2300"/>
<rect x="21.5" y="400.5" width="84" height="84" rx="6.5" fill="#FFF8C5"/>
<rect x="21.5" y="400.5" width="84" height="84" rx="6.5" stroke="#9A6700" stroke-width="3"/>
<g clip-path="url(#clip2_719_102792)">
<path d="M48.9167 444.958V450.813C48.9167 452.333 49.75 453.75 51.0833 454.479L61.5 460.167C62.75 460.854 64.25 460.854 65.5 460.167L75.9167 454.479C77.25 453.75 78.0833 452.333 78.0833 450.813V444.958L65.5 451.833C64.25 452.521 62.75 452.521 61.5 451.833L48.9167 444.958ZM61.5 424.833L43.9375 434.417C42.5 435.208 42.5 437.292 43.9375 438.083L61.5 447.667C62.75 448.354 64.25 448.354 65.5 447.667L82.25 438.521V450.833C82.25 451.979 83.1875 452.917 84.3333 452.917C85.4792 452.917 86.4167 451.979 86.4167 450.833V437.479C86.4167 436.708 86 436.021 85.3333 435.646L65.5 424.833C64.25 424.167 62.75 424.167 61.5 424.833V424.833Z" fill="#9A6700"/>
</g>
<rect x="49" y="385" width="28" height="28" rx="14" fill="#FFF8C5"/>
<path d="M63 387.333C56.56 387.333 51.3333 392.56 51.3333 399C51.3333 405.44 56.56 410.667 63 410.667C69.44 410.667 74.6667 405.44 74.6667 399C74.6667 392.56 69.44 387.333 63 387.333ZM63 400.167C62.3583 400.167 61.8333 399.642 61.8333 399V394.333C61.8333 393.692 62.3583 393.167 63 393.167C63.6417 393.167 64.1667 393.692 64.1667 394.333V399C64.1667 399.642 63.6417 400.167 63 400.167ZM64.1667 404.833H61.8333V402.5H64.1667V404.833Z" fill="#9A6700"/>
<path d="M15.603 507.836L14.5044 511H11.9116L16.4292 498.616H19.4878L23.9878 511H21.4214L20.3228 507.836H15.603ZM17.9585 500.523C17.8999 500.758 17.8179 501.039 17.7124 501.367C17.607 501.695 17.5308 501.927 17.4839 502.062L16.1831 505.885H19.7427L18.4068 501.982C18.3247 501.742 18.2486 501.499 18.1782 501.253C18.1079 501.007 18.0347 500.764 17.9585 500.523ZM30.318 503.494V511H28.0153V498.616H31.487L33.7018 505.542C33.8014 505.929 33.904 506.318 34.0095 506.711C34.1149 507.098 34.2175 507.484 34.3171 507.871C34.3815 507.648 34.443 507.429 34.5016 507.212C34.5602 506.989 34.6188 506.767 34.6774 506.544C34.7419 506.321 34.8063 506.102 34.8708 505.885L37.1471 498.616H40.6012V511H38.2985V503.494C38.2985 503.324 38.3044 502.984 38.3161 502.475C38.3337 501.959 38.3571 501.399 38.3864 500.796C38.1813 501.581 37.9997 502.249 37.8415 502.8C37.6891 503.351 37.5632 503.781 37.4636 504.092L35.2311 511H33.3854L31.153 504.092L30.2126 500.796C30.2477 501.476 30.2741 502.041 30.2917 502.492C30.3093 502.938 30.318 503.271 30.318 503.494ZM47.9422 505.691V511H45.3495V498.616H47.9422V503.547H53.3387V498.616H55.9315V511H53.3387V505.691H47.9422ZM70.7959 508.996V511H60.6973V498.616H70.4355V500.62H63.29V503.731H69.8994V505.735H63.29V508.996H70.7959ZM77.6359 506.298V511H75.0431V498.616H81.2306C82.7072 498.616 83.8468 498.936 84.6496 499.574C85.4523 500.207 85.8537 501.118 85.8537 502.308C85.8537 503.175 85.6076 503.925 85.1154 504.558C84.6232 505.185 83.9582 505.598 83.1203 505.797L86.4689 511H83.5509L80.6769 506.298H77.6359ZM83.2433 502.413C83.2433 501.821 83.0529 501.376 82.672 501.077C82.2912 500.778 81.7199 500.629 80.9582 500.629H77.6359V504.285H81.0285C81.755 504.285 82.3058 504.121 82.6808 503.793C83.0558 503.465 83.2433 503.005 83.2433 502.413ZM100.49 507.432C100.49 508.645 100.038 509.573 99.136 510.218C98.2396 510.856 96.9212 511.176 95.181 511.176C92.0462 511.176 90.221 510.042 89.7054 507.774L92.2103 507.361C92.3802 508.018 92.7112 508.495 93.2034 508.794C93.6956 509.087 94.3782 509.233 95.2513 509.233C96.1595 509.233 96.8392 509.096 97.2903 508.82C97.7415 508.545 97.9671 508.132 97.9671 507.581C97.9671 507.229 97.8646 506.939 97.6595 506.711C97.4544 506.482 97.1614 506.292 96.7806 506.14C96.5931 506.063 96.3177 505.981 95.9544 505.894C95.5911 505.8 95.14 505.697 94.6009 505.586C93.9798 505.439 93.4935 505.316 93.1419 505.217C92.7903 505.111 92.5091 505.012 92.2982 504.918C92.0872 504.818 91.8821 504.71 91.6829 504.593C91.2435 504.329 90.9007 503.978 90.6546 503.538C90.4085 503.099 90.2855 502.551 90.2855 501.895C90.2855 500.775 90.7044 499.92 91.5423 499.328C92.386 498.73 93.6107 498.432 95.2161 498.432C96.7513 498.432 97.9026 498.672 98.6702 499.152C99.4437 499.633 99.9417 500.427 100.164 501.534L97.6507 501.877C97.5218 501.344 97.2581 500.942 96.8597 500.673C96.4671 500.403 95.9017 500.269 95.1634 500.269C94.3782 500.269 93.7894 500.392 93.3968 500.638C93.0042 500.884 92.8079 501.253 92.8079 501.745C92.8079 502.067 92.89 502.331 93.054 502.536C93.2239 502.741 93.473 502.917 93.8011 503.063C94.1116 503.204 94.7767 503.383 95.7962 503.6C96.388 503.729 96.8978 503.852 97.3255 503.969C97.7532 504.08 98.096 504.188 98.3538 504.294C98.6116 504.405 98.8401 504.522 99.0394 504.646C99.2444 504.769 99.4202 504.9 99.5667 505.041C99.8655 505.328 100.094 505.671 100.252 506.069C100.41 506.462 100.49 506.916 100.49 507.432ZM110.327 500.62V511H107.734V500.62H103.735V498.616H114.334V500.62H110.327Z" fill="#3B2300"/>
<defs>
<clipPath id="clip0_719_102792">
<rect width="50" height="50" fill="white" transform="translate(38.5 52.5)"/>
</clipPath>
<clipPath id="clip1_719_102792">
<rect width="50" height="50" fill="white" transform="translate(38.5 255.5)"/>
</clipPath>
<clipPath id="clip2_719_102792">
<rect width="50" height="50" fill="white" transform="translate(38.5 417.5)"/>
</clipPath>
</defs>
</svg>
