<svg width="299" height="537" viewBox="0 0 299 537" fill="none" xmlns="http://www.w3.org/2000/svg">
<rect x="0.5" y="0.5" width="298" height="536" rx="4.5" stroke="#9747FF" stroke-dasharray="10 5"/>
<rect x="21.5" y="35.5" width="84" height="84" rx="6.5" fill="white"/>
<rect x="21.5" y="35.5" width="84" height="84" rx="6.5" stroke="#D3232F" stroke-width="3"/>
<g clip-path="url(#clip0_719_102808)">
<path d="M48.9167 79.9585V85.8127C48.9167 87.3335 49.75 88.7502 51.0833 89.4793L61.5 95.1668C62.75 95.8543 64.25 95.8543 65.5 95.1668L75.9167 89.4793C77.25 88.7502 78.0833 87.3335 78.0833 85.8127V79.9585L65.5 86.8335C64.25 87.521 62.75 87.521 61.5 86.8335L48.9167 79.9585ZM61.5 59.8335L43.9375 69.4168C42.5 70.2085 42.5 72.2918 43.9375 73.0835L61.5 82.6668C62.75 83.3543 64.25 83.3543 65.5 82.6668L82.25 73.521V85.8335C82.25 86.9793 83.1875 87.9168 84.3333 87.9168C85.4792 87.9168 86.4167 86.9793 86.4167 85.8335V72.4793C86.4167 71.7085 86 71.021 85.3333 70.646L65.5 59.8335C64.25 59.1668 62.75 59.1668 61.5 59.8335V59.8335Z" fill="#D3232F"/>
</g>
<rect x="49" y="20" width="28" height="28" rx="14" fill="white"/>
<path d="M63 22.3335C56.56 22.3335 51.3333 27.5602 51.3333 34.0002C51.3333 40.4402 56.56 45.6668 63 45.6668C69.44 45.6668 74.6667 40.4402 74.6667 34.0002C74.6667 27.5602 69.44 22.3335 63 22.3335ZM63 35.1668C62.3583 35.1668 61.8333 34.6418 61.8333 34.0002V29.3335C61.8333 28.6918 62.3583 28.1668 63 28.1668C63.6417 28.1668 64.1667 28.6918 64.1667 29.3335V34.0002C64.1667 34.6418 63.6417 35.1668 63 35.1668ZM64.1667 39.8335H61.8333V37.5002H64.1667V39.8335Z" fill="#D3232F"/>
<path d="M15.603 142.836L14.5044 146H11.9116L16.4292 133.616H19.4878L23.9878 146H21.4214L20.3228 142.836H15.603ZM17.9585 135.523C17.8999 135.758 17.8179 136.039 17.7124 136.367C17.607 136.695 17.5308 136.927 17.4839 137.062L16.1831 140.885H19.7427L18.4068 136.982C18.3247 136.742 18.2486 136.499 18.1782 136.253C18.1079 136.007 18.0347 135.764 17.9585 135.523ZM30.318 138.494V146H28.0153V133.616H31.487L33.7018 140.542C33.8014 140.929 33.904 141.318 34.0095 141.711C34.1149 142.098 34.2175 142.484 34.3171 142.871C34.3815 142.648 34.443 142.429 34.5016 142.212C34.5602 141.989 34.6188 141.767 34.6774 141.544C34.7419 141.321 34.8063 141.102 34.8708 140.885L37.1471 133.616H40.6012V146H38.2985V138.494C38.2985 138.324 38.3044 137.984 38.3161 137.475C38.3337 136.959 38.3571 136.399 38.3864 135.796C38.1813 136.581 37.9997 137.249 37.8415 137.8C37.6891 138.351 37.5632 138.781 37.4636 139.092L35.2311 146H33.3854L31.153 139.092L30.2126 135.796C30.2477 136.476 30.2741 137.041 30.2917 137.492C30.3093 137.938 30.318 138.271 30.318 138.494ZM47.9422 140.691V146H45.3495V133.616H47.9422V138.547H53.3387V133.616H55.9315V146H53.3387V140.691H47.9422ZM70.7959 143.996V146H60.6973V133.616H70.4355V135.62H63.29V138.731H69.8994V140.735H63.29V143.996H70.7959ZM77.6359 141.298V146H75.0431V133.616H81.2306C82.7072 133.616 83.8468 133.936 84.6496 134.574C85.4523 135.207 85.8537 136.118 85.8537 137.308C85.8537 138.175 85.6076 138.925 85.1154 139.558C84.6232 140.185 83.9582 140.598 83.1203 140.797L86.4689 146H83.5509L80.6769 141.298H77.6359ZM83.2433 137.413C83.2433 136.821 83.0529 136.376 82.672 136.077C82.2912 135.778 81.7199 135.629 80.9582 135.629H77.6359V139.285H81.0285C81.755 139.285 82.3058 139.121 82.6808 138.793C83.0558 138.465 83.2433 138.005 83.2433 137.413ZM100.49 142.432C100.49 143.645 100.038 144.573 99.136 145.218C98.2396 145.856 96.9212 146.176 95.181 146.176C92.0462 146.176 90.221 145.042 89.7054 142.774L92.2103 142.361C92.3802 143.018 92.7112 143.495 93.2034 143.794C93.6956 144.087 94.3782 144.233 95.2513 144.233C96.1595 144.233 96.8392 144.096 97.2903 143.82C97.7415 143.545 97.9671 143.132 97.9671 142.581C97.9671 142.229 97.8646 141.939 97.6595 141.711C97.4544 141.482 97.1614 141.292 96.7806 141.14C96.5931 141.063 96.3177 140.981 95.9544 140.894C95.5911 140.8 95.14 140.697 94.6009 140.586C93.9798 140.439 93.4935 140.316 93.1419 140.217C92.7903 140.111 92.5091 140.012 92.2982 139.918C92.0872 139.818 91.8821 139.71 91.6829 139.593C91.2435 139.329 90.9007 138.978 90.6546 138.538C90.4085 138.099 90.2855 137.551 90.2855 136.895C90.2855 135.775 90.7044 134.92 91.5423 134.328C92.386 133.73 93.6107 133.432 95.2161 133.432C96.7513 133.432 97.9026 133.672 98.6702 134.152C99.4437 134.633 99.9417 135.427 100.164 136.534L97.6507 136.877C97.5218 136.344 97.2581 135.942 96.8597 135.673C96.4671 135.403 95.9017 135.269 95.1634 135.269C94.3782 135.269 93.7894 135.392 93.3968 135.638C93.0042 135.884 92.8079 136.253 92.8079 136.745C92.8079 137.067 92.89 137.331 93.054 137.536C93.2239 137.741 93.473 137.917 93.8011 138.063C94.1116 138.204 94.7767 138.383 95.7962 138.6C96.388 138.729 96.8978 138.852 97.3255 138.969C97.7532 139.08 98.096 139.188 98.3538 139.294C98.6116 139.405 98.8401 139.522 99.0394 139.646C99.2444 139.769 99.4202 139.9 99.5667 140.041C99.8655 140.328 100.094 140.671 100.252 141.069C100.41 141.462 100.49 141.916 100.49 142.432ZM110.327 135.62V146H107.734V135.62H103.735V133.616H114.334V135.62H110.327Z" fill="#39000D"/>
<rect x="21.5" y="210.5" width="84" height="84" rx="6.5" fill="white"/>
<rect x="21.5" y="210.5" width="84" height="84" rx="6.5" stroke="#A10E25" stroke-width="3"/>
<g clip-path="url(#clip1_719_102808)">
<path d="M48.9167 254.958V260.813C48.9167 262.333 49.75 263.75 51.0833 264.479L61.5 270.167C62.75 270.854 64.25 270.854 65.5 270.167L75.9167 264.479C77.25 263.75 78.0833 262.333 78.0833 260.813V254.958L65.5 261.833C64.25 262.521 62.75 262.521 61.5 261.833L48.9167 254.958ZM61.5 234.833L43.9375 244.417C42.5 245.208 42.5 247.292 43.9375 248.083L61.5 257.667C62.75 258.354 64.25 258.354 65.5 257.667L82.25 248.521V260.833C82.25 261.979 83.1875 262.917 84.3333 262.917C85.4792 262.917 86.4167 261.979 86.4167 260.833V247.479C86.4167 246.708 86 246.021 85.3333 245.646L65.5 234.833C64.25 234.167 62.75 234.167 61.5 234.833V234.833Z" fill="#A10E25"/>
</g>
<rect x="49" y="195" width="28" height="28" rx="14" fill="white"/>
<path d="M63 197.333C56.56 197.333 51.3333 202.56 51.3333 209C51.3333 215.44 56.56 220.667 63 220.667C69.44 220.667 74.6667 215.44 74.6667 209C74.6667 202.56 69.44 197.333 63 197.333ZM63 210.167C62.3583 210.167 61.8333 209.642 61.8333 209V204.333C61.8333 203.692 62.3583 203.167 63 203.167C63.6417 203.167 64.1667 203.692 64.1667 204.333V209C64.1667 209.642 63.6417 210.167 63 210.167ZM64.1667 214.833H61.8333V212.5H64.1667V214.833Z" fill="#A10E25"/>
<path d="M15.603 317.836L14.5044 321H11.9116L16.4292 308.616H19.4878L23.9878 321H21.4214L20.3228 317.836H15.603ZM17.9585 310.523C17.8999 310.758 17.8179 311.039 17.7124 311.367C17.607 311.695 17.5308 311.927 17.4839 312.062L16.1831 315.885H19.7427L18.4068 311.982C18.3247 311.742 18.2486 311.499 18.1782 311.253C18.1079 311.007 18.0347 310.764 17.9585 310.523ZM30.318 313.494V321H28.0153V308.616H31.487L33.7018 315.542C33.8014 315.929 33.904 316.318 34.0095 316.711C34.1149 317.098 34.2175 317.484 34.3171 317.871C34.3815 317.648 34.443 317.429 34.5016 317.212C34.5602 316.989 34.6188 316.767 34.6774 316.544C34.7419 316.321 34.8063 316.102 34.8708 315.885L37.1471 308.616H40.6012V321H38.2985V313.494C38.2985 313.324 38.3044 312.984 38.3161 312.475C38.3337 311.959 38.3571 311.399 38.3864 310.796C38.1813 311.581 37.9997 312.249 37.8415 312.8C37.6891 313.351 37.5632 313.781 37.4636 314.092L35.2311 321H33.3854L31.153 314.092L30.2126 310.796C30.2477 311.476 30.2741 312.041 30.2917 312.492C30.3093 312.938 30.318 313.271 30.318 313.494ZM47.9422 315.691V321H45.3495V308.616H47.9422V313.547H53.3387V308.616H55.9315V321H53.3387V315.691H47.9422ZM70.7959 318.996V321H60.6973V308.616H70.4355V310.62H63.29V313.731H69.8994V315.735H63.29V318.996H70.7959ZM77.6359 316.298V321H75.0431V308.616H81.2306C82.7072 308.616 83.8468 308.936 84.6496 309.574C85.4523 310.207 85.8537 311.118 85.8537 312.308C85.8537 313.175 85.6076 313.925 85.1154 314.558C84.6232 315.185 83.9582 315.598 83.1203 315.797L86.4689 321H83.5509L80.6769 316.298H77.6359ZM83.2433 312.413C83.2433 311.821 83.0529 311.376 82.672 311.077C82.2912 310.778 81.7199 310.629 80.9582 310.629H77.6359V314.285H81.0285C81.755 314.285 82.3058 314.121 82.6808 313.793C83.0558 313.465 83.2433 313.005 83.2433 312.413ZM100.49 317.432C100.49 318.645 100.038 319.573 99.136 320.218C98.2396 320.856 96.9212 321.176 95.181 321.176C92.0462 321.176 90.221 320.042 89.7054 317.774L92.2103 317.361C92.3802 318.018 92.7112 318.495 93.2034 318.794C93.6956 319.087 94.3782 319.233 95.2513 319.233C96.1595 319.233 96.8392 319.096 97.2903 318.82C97.7415 318.545 97.9671 318.132 97.9671 317.581C97.9671 317.229 97.8646 316.939 97.6595 316.711C97.4544 316.482 97.1614 316.292 96.7806 316.14C96.5931 316.063 96.3177 315.981 95.9544 315.894C95.5911 315.8 95.14 315.697 94.6009 315.586C93.9798 315.439 93.4935 315.316 93.1419 315.217C92.7903 315.111 92.5091 315.012 92.2982 314.918C92.0872 314.818 91.8821 314.71 91.6829 314.593C91.2435 314.329 90.9007 313.978 90.6546 313.538C90.4085 313.099 90.2855 312.551 90.2855 311.895C90.2855 310.775 90.7044 309.92 91.5423 309.328C92.386 308.73 93.6107 308.432 95.2161 308.432C96.7513 308.432 97.9026 308.672 98.6702 309.152C99.4437 309.633 99.9417 310.427 100.164 311.534L97.6507 311.877C97.5218 311.344 97.2581 310.942 96.8597 310.673C96.4671 310.403 95.9017 310.269 95.1634 310.269C94.3782 310.269 93.7894 310.392 93.3968 310.638C93.0042 310.884 92.8079 311.253 92.8079 311.745C92.8079 312.067 92.89 312.331 93.054 312.536C93.2239 312.741 93.473 312.917 93.8011 313.063C94.1116 313.204 94.7767 313.383 95.7962 313.6C96.388 313.729 96.8978 313.852 97.3255 313.969C97.7532 314.08 98.096 314.188 98.3538 314.294C98.6116 314.405 98.8401 314.522 99.0394 314.646C99.2444 314.769 99.4202 314.9 99.5667 315.041C99.8655 315.328 100.094 315.671 100.252 316.069C100.41 316.462 100.49 316.916 100.49 317.432ZM110.327 310.62V321H107.734V310.62H103.735V308.616H114.334V310.62H110.327Z" fill="#39000D"/>
<rect x="21.5" y="343.5" width="84" height="84" rx="6.5" fill="#FFF8F6"/>
<rect x="21.5" y="343.5" width="84" height="84" rx="6.5" stroke="#77061B" stroke-width="3"/>
<g clip-path="url(#clip2_719_102808)">
<path d="M48.9167 387.958V393.813C48.9167 395.333 49.75 396.75 51.0833 397.479L61.5 403.167C62.75 403.854 64.25 403.854 65.5 403.167L75.9167 397.479C77.25 396.75 78.0833 395.333 78.0833 393.813V387.958L65.5 394.833C64.25 395.521 62.75 395.521 61.5 394.833L48.9167 387.958ZM61.5 367.833L43.9375 377.417C42.5 378.208 42.5 380.292 43.9375 381.083L61.5 390.667C62.75 391.354 64.25 391.354 65.5 390.667L82.25 381.521V393.833C82.25 394.979 83.1875 395.917 84.3333 395.917C85.4792 395.917 86.4167 394.979 86.4167 393.833V380.479C86.4167 379.708 86 379.021 85.3333 378.646L65.5 367.833C64.25 367.167 62.75 367.167 61.5 367.833V367.833Z" fill="#77061B"/>
</g>
<rect x="49" y="328" width="28" height="28" rx="14" fill="#FFF8F6"/>
<path d="M63 330.333C56.56 330.333 51.3333 335.56 51.3333 342C51.3333 348.44 56.56 353.667 63 353.667C69.44 353.667 74.6667 348.44 74.6667 342C74.6667 335.56 69.44 330.333 63 330.333ZM63 343.167C62.3583 343.167 61.8333 342.642 61.8333 342V337.333C61.8333 336.692 62.3583 336.167 63 336.167C63.6417 336.167 64.1667 336.692 64.1667 337.333V342C64.1667 342.642 63.6417 343.167 63 343.167ZM64.1667 347.833H61.8333V345.5H64.1667V347.833Z" fill="#77061B"/>
<path d="M15.603 450.836L14.5044 454H11.9116L16.4292 441.616H19.4878L23.9878 454H21.4214L20.3228 450.836H15.603ZM17.9585 443.523C17.8999 443.758 17.8179 444.039 17.7124 444.367C17.607 444.695 17.5308 444.927 17.4839 445.062L16.1831 448.885H19.7427L18.4068 444.982C18.3247 444.742 18.2486 444.499 18.1782 444.253C18.1079 444.007 18.0347 443.764 17.9585 443.523ZM30.318 446.494V454H28.0153V441.616H31.487L33.7018 448.542C33.8014 448.929 33.904 449.318 34.0095 449.711C34.1149 450.098 34.2175 450.484 34.3171 450.871C34.3815 450.648 34.443 450.429 34.5016 450.212C34.5602 449.989 34.6188 449.767 34.6774 449.544C34.7419 449.321 34.8063 449.102 34.8708 448.885L37.1471 441.616H40.6012V454H38.2985V446.494C38.2985 446.324 38.3044 445.984 38.3161 445.475C38.3337 444.959 38.3571 444.399 38.3864 443.796C38.1813 444.581 37.9997 445.249 37.8415 445.8C37.6891 446.351 37.5632 446.781 37.4636 447.092L35.2311 454H33.3854L31.153 447.092L30.2126 443.796C30.2477 444.476 30.2741 445.041 30.2917 445.492C30.3093 445.938 30.318 446.271 30.318 446.494ZM47.9422 448.691V454H45.3495V441.616H47.9422V446.547H53.3387V441.616H55.9315V454H53.3387V448.691H47.9422ZM70.7959 451.996V454H60.6973V441.616H70.4355V443.62H63.29V446.731H69.8994V448.735H63.29V451.996H70.7959ZM77.6359 449.298V454H75.0431V441.616H81.2306C82.7072 441.616 83.8468 441.936 84.6496 442.574C85.4523 443.207 85.8537 444.118 85.8537 445.308C85.8537 446.175 85.6076 446.925 85.1154 447.558C84.6232 448.185 83.9582 448.598 83.1203 448.797L86.4689 454H83.5509L80.6769 449.298H77.6359ZM83.2433 445.413C83.2433 444.821 83.0529 444.376 82.672 444.077C82.2912 443.778 81.7199 443.629 80.9582 443.629H77.6359V447.285H81.0285C81.755 447.285 82.3058 447.121 82.6808 446.793C83.0558 446.465 83.2433 446.005 83.2433 445.413ZM100.49 450.432C100.49 451.645 100.038 452.573 99.136 453.218C98.2396 453.856 96.9212 454.176 95.181 454.176C92.0462 454.176 90.221 453.042 89.7054 450.774L92.2103 450.361C92.3802 451.018 92.7112 451.495 93.2034 451.794C93.6956 452.087 94.3782 452.233 95.2513 452.233C96.1595 452.233 96.8392 452.096 97.2903 451.82C97.7415 451.545 97.9671 451.132 97.9671 450.581C97.9671 450.229 97.8646 449.939 97.6595 449.711C97.4544 449.482 97.1614 449.292 96.7806 449.14C96.5931 449.063 96.3177 448.981 95.9544 448.894C95.5911 448.8 95.14 448.697 94.6009 448.586C93.9798 448.439 93.4935 448.316 93.1419 448.217C92.7903 448.111 92.5091 448.012 92.2982 447.918C92.0872 447.818 91.8821 447.71 91.6829 447.593C91.2435 447.329 90.9007 446.978 90.6546 446.538C90.4085 446.099 90.2855 445.551 90.2855 444.895C90.2855 443.775 90.7044 442.92 91.5423 442.328C92.386 441.73 93.6107 441.432 95.2161 441.432C96.7513 441.432 97.9026 441.672 98.6702 442.152C99.4437 442.633 99.9417 443.427 100.164 444.534L97.6507 444.877C97.5218 444.344 97.2581 443.942 96.8597 443.673C96.4671 443.403 95.9017 443.269 95.1634 443.269C94.3782 443.269 93.7894 443.392 93.3968 443.638C93.0042 443.884 92.8079 444.253 92.8079 444.745C92.8079 445.067 92.89 445.331 93.054 445.536C93.2239 445.741 93.473 445.917 93.8011 446.063C94.1116 446.204 94.7767 446.383 95.7962 446.6C96.388 446.729 96.8978 446.852 97.3255 446.969C97.7532 447.08 98.096 447.188 98.3538 447.294C98.6116 447.405 98.8401 447.522 99.0394 447.646C99.2444 447.769 99.4202 447.9 99.5667 448.041C99.8655 448.328 100.094 448.671 100.252 449.069C100.41 449.462 100.49 449.916 100.49 450.432ZM110.327 443.62V454H107.734V443.62H103.735V441.616H114.334V443.62H110.327Z" fill="#39000D"/>
<defs>
<clipPath id="clip0_719_102808">
<rect width="50" height="50" fill="white" transform="translate(38.5 52.5)"/>
</clipPath>
<clipPath id="clip1_719_102808">
<rect width="50" height="50" fill="white" transform="translate(38.5 227.5)"/>
</clipPath>
<clipPath id="clip2_719_102808">
<rect width="50" height="50" fill="white" transform="translate(38.5 360.5)"/>
</clipPath>
</defs>
</svg>
