<svg width="512" height="128" viewBox="0 0 512 128" fill="none" xmlns="http://www.w3.org/2000/svg">
<g filter="url(#filter0_ddd_156_136142)">
<rect x="5" y="4" width="502" height="118" rx="4" fill="white"/>
<rect width="136" height="34" transform="translate(37 20)" fill="white"/>
<path d="M42.1172 44.1953C40.6914 44.1953 39.5944 43.8861 38.8262 43.2676C38.0645 42.6491 37.5566 41.6497 37.3027 40.2695L40.1641 39.8496C40.2812 40.5592 40.4993 41.0866 40.8184 41.4316C41.1374 41.7702 41.5768 41.9395 42.1367 41.9395C42.7096 41.9395 43.1426 41.7474 43.4355 41.3633C43.735 40.9792 43.8848 40.429 43.8848 39.7129V32.4961H41.1406V30.2402H46.7559V39.6445C46.7559 41.0768 46.349 42.1934 45.5352 42.9941C44.7214 43.7949 43.582 44.1953 42.1172 44.1953ZM55.6534 44.1953C54.3903 44.1953 53.3226 43.9902 52.4502 43.5801C51.5778 43.1634 50.917 42.5579 50.4678 41.7637C50.0186 40.9629 49.794 39.9896 49.794 38.8438V30.2402H52.6748V38.6191C52.6748 39.7064 52.932 40.5332 53.4463 41.0996C53.9672 41.6595 54.7289 41.9395 55.7315 41.9395C56.7601 41.9395 57.5511 41.6465 58.1045 41.0605C58.6579 40.4681 58.9346 39.6217 58.9346 38.5215V30.2402H61.8155V38.6973C61.8155 39.8561 61.5713 40.8457 61.083 41.666C60.6013 42.4863 59.9014 43.1146 58.9834 43.5508C58.0655 43.9805 56.9554 44.1953 55.6534 44.1953ZM75.1075 41.7734V44H64.8438V30.2402H67.7247V41.7734H75.1075ZM82.4718 38.3555V44H79.6007V38.3555L74.6984 30.2402H77.7159L81.0167 36.0605L84.3566 30.2402H87.3741L82.4718 38.3555Z" fill="#00153C"/>
<path d="M106.303 37.1152C106.303 39.4395 105.902 41.2005 105.102 42.3984C104.307 43.5964 103.113 44.1953 101.518 44.1953C99.9421 44.1953 98.7604 43.6061 97.9727 42.4277C97.1849 41.2428 96.791 39.472 96.791 37.1152C96.791 34.6999 97.1654 32.916 97.9141 31.7637C98.6693 30.6113 99.8965 30.0352 101.596 30.0352C103.223 30.0352 104.415 30.6243 105.17 31.8027C105.925 32.9811 106.303 34.752 106.303 37.1152ZM103.549 37.1152C103.549 35.8783 103.493 34.9017 103.383 34.1855C103.272 33.4629 103.074 32.9486 102.787 32.6426C102.501 32.3366 102.097 32.1836 101.576 32.1836C101.023 32.1836 100.596 32.3398 100.297 32.6523C100.004 32.9583 99.8021 33.4727 99.6914 34.1953C99.5872 34.9115 99.5352 35.8848 99.5352 37.1152C99.5352 38.3457 99.5905 39.3223 99.7012 40.0449C99.8184 40.7611 100.02 41.2721 100.307 41.5781C100.6 41.8841 101.01 42.0371 101.537 42.0371C102.318 42.0371 102.849 41.6595 103.129 40.9043C103.409 40.1491 103.549 38.8861 103.549 37.1152ZM118.159 41.959V44H108.853V41.959H112.261V32.5742L108.96 34.6348V32.4766L112.407 30.2402H115.005V41.959H118.159Z" fill="#00153C"/>
<path d="M137.322 41.7441V44H127.693V42.0957C127.934 41.5684 128.24 41.054 128.611 40.5527C128.982 40.0449 129.425 39.5371 129.939 39.0293C130.46 38.515 131.053 37.9876 131.717 37.4473C132.199 37.0566 132.609 36.7018 132.947 36.3828C133.286 36.0573 133.549 35.7676 133.738 35.5137C133.934 35.2598 134.08 35.0091 134.178 34.7617C134.275 34.5078 134.324 34.2604 134.324 34.0195C134.324 33.4206 134.171 32.9714 133.865 32.6719C133.566 32.3724 133.117 32.2227 132.518 32.2227C131.932 32.2227 131.482 32.3822 131.17 32.7012C130.864 33.0137 130.665 33.4857 130.574 34.1172L127.811 33.9609C127.967 32.6849 128.442 31.7116 129.236 31.041C130.037 30.3704 131.124 30.0352 132.498 30.0352C133.982 30.0352 135.122 30.3737 135.916 31.0508C136.71 31.7279 137.107 32.6784 137.107 33.9023C137.107 34.5924 136.964 35.2109 136.678 35.7578C136.391 36.3047 136.027 36.8092 135.584 37.2715C135.219 37.6686 134.806 38.0462 134.344 38.4043C133.888 38.7624 133.445 39.1107 133.016 39.4492C132.56 39.8138 132.143 40.1816 131.766 40.5527C131.395 40.9238 131.118 41.321 130.936 41.7441H137.322ZM148.896 37.1152C148.896 39.4395 148.495 41.2005 147.694 42.3984C146.9 43.5964 145.705 44.1953 144.11 44.1953C142.535 44.1953 141.353 43.6061 140.565 42.4277C139.778 41.2428 139.384 39.472 139.384 37.1152C139.384 34.6999 139.758 32.916 140.507 31.7637C141.262 30.6113 142.489 30.0352 144.189 30.0352C145.816 30.0352 147.008 30.6243 147.763 31.8027C148.518 32.9811 148.896 34.752 148.896 37.1152ZM146.142 37.1152C146.142 35.8783 146.086 34.9017 145.976 34.1855C145.865 33.4629 145.666 32.9486 145.38 32.6426C145.093 32.3366 144.69 32.1836 144.169 32.1836C143.616 32.1836 143.189 32.3398 142.89 32.6523C142.597 32.9583 142.395 33.4727 142.284 34.1953C142.18 34.9115 142.128 35.8848 142.128 37.1152C142.128 38.3457 142.183 39.3223 142.294 40.0449C142.411 40.7611 142.613 41.2721 142.899 41.5781C143.192 41.8841 143.603 42.0371 144.13 42.0371C144.911 42.0371 145.442 41.6595 145.722 40.9043C146.002 40.1491 146.142 38.8861 146.142 37.1152ZM160.508 41.7441V44H150.879V42.0957C151.12 41.5684 151.426 41.054 151.797 40.5527C152.168 40.0449 152.611 39.5371 153.125 39.0293C153.646 38.515 154.238 37.9876 154.902 37.4473C155.384 37.0566 155.794 36.7018 156.133 36.3828C156.471 36.0573 156.735 35.7676 156.924 35.5137C157.119 35.2598 157.266 35.0091 157.363 34.7617C157.461 34.5078 157.51 34.2604 157.51 34.0195C157.51 33.4206 157.357 32.9714 157.051 32.6719C156.751 32.3724 156.302 32.2227 155.703 32.2227C155.117 32.2227 154.668 32.3822 154.356 32.7012C154.05 33.0137 153.851 33.4857 153.76 34.1172L150.996 33.9609C151.152 32.6849 151.628 31.7116 152.422 31.041C153.223 30.3704 154.31 30.0352 155.684 30.0352C157.168 30.0352 158.307 30.3737 159.102 31.0508C159.896 31.7279 160.293 32.6784 160.293 33.9023C160.293 34.5924 160.15 35.2109 159.863 35.7578C159.577 36.3047 159.212 36.8092 158.77 37.2715C158.405 37.6686 157.992 38.0462 157.529 38.4043C157.074 38.7624 156.631 39.1107 156.201 39.4492C155.746 39.8138 155.329 40.1816 154.951 40.5527C154.58 40.9238 154.303 41.321 154.121 41.7441H160.508ZM172.179 40.1816C172.179 41.4707 171.756 42.4668 170.909 43.1699C170.063 43.873 168.859 44.2246 167.296 44.2246C165.818 44.2246 164.643 43.8861 163.771 43.209C162.898 42.5254 162.387 41.5423 162.237 40.2598L165.03 40.0156C165.206 41.3372 165.958 41.998 167.286 41.998C167.944 41.998 168.455 41.8353 168.819 41.5098C169.184 41.1842 169.366 40.6862 169.366 40.0156C169.366 39.4036 169.145 38.9349 168.702 38.6094C168.26 38.2839 167.602 38.1211 166.73 38.1211H165.773V35.9043H166.671C167.459 35.9043 168.051 35.7448 168.448 35.4258C168.845 35.1003 169.044 34.638 169.044 34.0391C169.044 33.4727 168.885 33.0299 168.566 32.7109C168.253 32.3854 167.794 32.2227 167.189 32.2227C166.622 32.2227 166.163 32.3789 165.812 32.6914C165.467 33.0039 165.268 33.4466 165.216 34.0195L162.472 33.8242C162.615 32.6393 163.107 31.7116 163.946 31.041C164.786 30.3704 165.883 30.0352 167.237 30.0352C168.676 30.0352 169.799 30.3607 170.607 31.0117C171.42 31.6562 171.827 32.5514 171.827 33.6973C171.827 34.5566 171.573 35.263 171.066 35.8164C170.564 36.3698 169.838 36.7376 168.888 36.9199V36.959C169.943 37.0827 170.753 37.431 171.319 38.0039C171.892 38.5703 172.179 39.2962 172.179 40.1816Z" fill="#00153C"/>
<rect x="37" y="64" width="439" height="42" rx="4" fill="white"/>
<path d="M52.4 77.896C53.93 77.896 55.082 78.562 55.874 79.93C56.558 81.082 56.9 82.63 56.9 84.574C56.9 86.518 56.558 88.066 55.874 89.218C55.082 90.568 53.93 91.252 52.4 91.252C50.852 91.252 49.7 90.568 48.926 89.218C48.242 88.066 47.9 86.518 47.9 84.574C47.9 82.63 48.242 81.082 48.926 79.93C49.7 78.562 50.852 77.896 52.4 77.896ZM52.4 79.156C51.248 79.156 50.42 79.768 49.916 81.01C49.556 81.874 49.376 83.062 49.376 84.574C49.376 86.068 49.556 87.256 49.916 88.138C50.42 89.362 51.248 89.992 52.4 89.992C53.552 89.992 54.38 89.362 54.884 88.138C55.244 87.256 55.442 86.068 55.442 84.574C55.442 83.062 55.244 81.874 54.884 81.01C54.38 79.768 53.552 79.156 52.4 79.156ZM66.1111 78.148H67.5691V91H66.1111V78.148ZM75.0546 77.896C76.4946 77.896 77.6466 78.22 78.4746 78.886C79.3386 79.57 79.8246 80.596 79.9506 81.946H78.4926C78.3306 81.01 77.9706 80.326 77.4126 79.876C76.8366 79.408 76.0266 79.192 74.9826 79.192C74.0286 79.192 73.2906 79.336 72.7506 79.66C72.1386 80.02 71.8326 80.56 71.8326 81.298C71.8326 81.946 72.1926 82.468 72.9306 82.864C73.2546 83.044 74.0466 83.314 75.2886 83.674C76.9806 84.178 78.0966 84.592 78.6366 84.916C79.6986 85.564 80.2386 86.464 80.2386 87.634C80.2386 88.75 79.7886 89.65 78.8886 90.298C77.9886 90.928 76.7826 91.252 75.2526 91.252C73.7406 91.252 72.5526 90.928 71.6886 90.28C70.6806 89.506 70.1226 88.336 70.0146 86.752H71.4726C71.5986 87.868 71.9946 88.696 72.6426 89.218C73.2366 89.686 74.1006 89.938 75.2526 89.938C76.2966 89.938 77.1606 89.74 77.8086 89.344C78.4566 88.948 78.7806 88.408 78.7806 87.724C78.7806 86.914 78.3486 86.284 77.5026 85.834C77.1426 85.618 76.2246 85.312 74.7846 84.898C73.2366 84.43 72.2466 84.07 71.8326 83.854C70.8426 83.278 70.3566 82.45 70.3566 81.37C70.3566 80.254 70.8246 79.372 71.7786 78.76C72.6246 78.184 73.7226 77.896 75.0546 77.896ZM86.8876 77.896C88.3276 77.896 89.4796 78.22 90.3076 78.886C91.1716 79.57 91.6576 80.596 91.7836 81.946H90.3256C90.1636 81.01 89.8036 80.326 89.2456 79.876C88.6696 79.408 87.8596 79.192 86.8156 79.192C85.8616 79.192 85.1236 79.336 84.5836 79.66C83.9716 80.02 83.6656 80.56 83.6656 81.298C83.6656 81.946 84.0256 82.468 84.7636 82.864C85.0876 83.044 85.8796 83.314 87.1216 83.674C88.8136 84.178 89.9296 84.592 90.4696 84.916C91.5316 85.564 92.0716 86.464 92.0716 87.634C92.0716 88.75 91.6216 89.65 90.7216 90.298C89.8216 90.928 88.6156 91.252 87.0856 91.252C85.5736 91.252 84.3856 90.928 83.5216 90.28C82.5136 89.506 81.9556 88.336 81.8476 86.752H83.3056C83.4316 87.868 83.8276 88.696 84.4756 89.218C85.0696 89.686 85.9336 89.938 87.0856 89.938C88.1296 89.938 88.9936 89.74 89.6416 89.344C90.2896 88.948 90.6136 88.408 90.6136 87.724C90.6136 86.914 90.1816 86.284 89.3356 85.834C88.9756 85.618 88.0576 85.312 86.6176 84.898C85.0696 84.43 84.0796 84.07 83.6656 83.854C82.6756 83.278 82.1896 82.45 82.1896 81.37C82.1896 80.254 82.6576 79.372 83.6116 78.76C84.4576 78.184 85.5556 77.896 86.8876 77.896ZM94.4007 78.148H95.8767V86.086C95.8767 87.346 96.1467 88.3 96.7227 88.948C97.3167 89.614 98.2527 89.956 99.5307 89.956C100.791 89.956 101.727 89.614 102.339 88.948C102.897 88.3 103.185 87.346 103.185 86.086V78.148H104.661V86.068C104.661 87.742 104.229 89.02 103.383 89.902C102.501 90.802 101.223 91.252 99.5307 91.252C97.8387 91.252 96.5607 90.802 95.6967 89.92C94.8327 89.02 94.4007 87.742 94.4007 86.068V78.148ZM107.71 78.148H116.818V79.426H109.186V83.728H116.386V85.006H109.186V89.722H117.124V91H107.71V78.148ZM123.951 77.896C125.391 77.896 126.543 78.22 127.371 78.886C128.235 79.57 128.721 80.596 128.847 81.946H127.389C127.227 81.01 126.867 80.326 126.309 79.876C125.733 79.408 124.923 79.192 123.879 79.192C122.925 79.192 122.187 79.336 121.647 79.66C121.035 80.02 120.729 80.56 120.729 81.298C120.729 81.946 121.089 82.468 121.827 82.864C122.151 83.044 122.943 83.314 124.185 83.674C125.877 84.178 126.993 84.592 127.533 84.916C128.595 85.564 129.135 86.464 129.135 87.634C129.135 88.75 128.685 89.65 127.785 90.298C126.885 90.928 125.679 91.252 124.149 91.252C122.637 91.252 121.449 90.928 120.585 90.28C119.577 89.506 119.019 88.336 118.911 86.752H120.369C120.495 87.868 120.891 88.696 121.539 89.218C122.133 89.686 122.997 89.938 124.149 89.938C125.193 89.938 126.057 89.74 126.705 89.344C127.353 88.948 127.677 88.408 127.677 87.724C127.677 86.914 127.245 86.284 126.399 85.834C126.039 85.618 125.121 85.312 123.681 84.898C122.133 84.43 121.143 84.07 120.729 83.854C119.739 83.278 119.253 82.45 119.253 81.37C119.253 80.254 119.721 79.372 120.675 78.76C121.521 78.184 122.619 77.896 123.951 77.896ZM137.918 78.148H143.462C144.74 78.148 145.748 78.436 146.486 79.03C147.242 79.642 147.638 80.542 147.638 81.73C147.638 82.45 147.44 83.08 147.044 83.638C146.612 84.214 146.036 84.574 145.298 84.754V84.79C146.522 85.06 147.206 85.834 147.35 87.13L147.548 89.11C147.62 89.902 147.854 90.532 148.232 91H146.63C146.342 90.568 146.162 90.01 146.108 89.29L145.946 87.58C145.874 86.824 145.604 86.266 145.136 85.942C144.704 85.618 144.092 85.474 143.282 85.474H139.394V91H137.918V78.148ZM139.394 79.426V84.196H143.282C144.218 84.196 144.956 83.962 145.46 83.53C145.91 83.116 146.144 82.54 146.144 81.784C146.144 80.992 145.91 80.398 145.478 80.02C145.01 79.624 144.272 79.426 143.282 79.426H139.394ZM150.542 78.148H159.65V79.426H152.018V83.728H159.218V85.006H152.018V89.722H159.956V91H150.542V78.148ZM168.007 77.896C169.429 77.896 170.635 78.274 171.607 79.03C172.579 79.786 173.155 80.812 173.335 82.09H171.913C171.733 81.154 171.265 80.434 170.545 79.93C169.843 79.444 168.997 79.21 167.989 79.21C166.495 79.21 165.343 79.732 164.533 80.776C163.777 81.748 163.399 83.026 163.399 84.628C163.399 86.23 163.759 87.508 164.515 88.444C165.307 89.434 166.441 89.938 167.953 89.938C168.979 89.938 169.843 89.668 170.563 89.128C171.319 88.552 171.841 87.706 172.093 86.59H173.515C173.227 88.084 172.561 89.254 171.499 90.082C170.509 90.856 169.321 91.252 167.953 91.252C165.955 91.252 164.425 90.586 163.363 89.272C162.391 88.084 161.923 86.536 161.923 84.628C161.923 82.72 162.409 81.154 163.399 79.93C164.479 78.562 166.027 77.896 168.007 77.896ZM181.635 77.896C183.543 77.896 185.073 78.526 186.189 79.822C187.233 81.046 187.773 82.63 187.773 84.592C187.773 86.536 187.233 88.102 186.189 89.326C185.073 90.604 183.543 91.252 181.617 91.252C179.691 91.252 178.179 90.604 177.063 89.326C176.001 88.102 175.479 86.518 175.479 84.592C175.479 82.648 176.001 81.064 177.063 79.84C178.179 78.544 179.691 77.896 181.635 77.896ZM181.635 79.21C180.159 79.21 178.989 79.714 178.143 80.74C177.351 81.712 176.955 82.99 176.955 84.592C176.955 86.176 177.351 87.454 178.143 88.426C178.971 89.434 180.141 89.938 181.617 89.938C183.093 89.938 184.263 89.434 185.091 88.462C185.883 87.49 186.297 86.212 186.297 84.592C186.297 82.954 185.883 81.658 185.091 80.686C184.263 79.696 183.111 79.21 181.635 79.21ZM190.278 78.148H195.822C197.1 78.148 198.108 78.436 198.846 79.03C199.602 79.642 199.998 80.542 199.998 81.73C199.998 82.45 199.8 83.08 199.404 83.638C198.972 84.214 198.396 84.574 197.658 84.754V84.79C198.882 85.06 199.566 85.834 199.71 87.13L199.908 89.11C199.98 89.902 200.214 90.532 200.592 91H198.99C198.702 90.568 198.522 90.01 198.468 89.29L198.306 87.58C198.234 86.824 197.964 86.266 197.496 85.942C197.064 85.618 196.452 85.474 195.642 85.474H191.754V91H190.278V78.148ZM191.754 79.426V84.196H195.642C196.578 84.196 197.316 83.962 197.82 83.53C198.27 83.116 198.504 82.54 198.504 81.784C198.504 80.992 198.27 80.398 197.838 80.02C197.37 79.624 196.632 79.426 195.642 79.426H191.754ZM202.902 78.148H207.51C209.544 78.148 211.074 78.724 212.118 79.912C213.072 80.992 213.558 82.558 213.558 84.574C213.558 86.554 213.036 88.12 212.01 89.236C210.93 90.406 209.382 91 207.366 91H202.902V78.148ZM204.378 79.426V89.722H207.114C208.788 89.722 210.048 89.272 210.894 88.39C211.686 87.526 212.1 86.248 212.1 84.574C212.1 82.846 211.722 81.568 210.984 80.74C210.192 79.858 208.968 79.426 207.276 79.426H204.378ZM216.071 78.148H225.179V79.426H217.547V83.728H224.747V85.006H217.547V89.722H225.485V91H216.071V78.148ZM227.992 78.148H232.6C234.634 78.148 236.164 78.724 237.208 79.912C238.162 80.992 238.648 82.558 238.648 84.574C238.648 86.554 238.126 88.12 237.1 89.236C236.02 90.406 234.472 91 232.456 91H227.992V78.148ZM229.468 79.426V89.722H232.204C233.878 89.722 235.138 89.272 235.984 88.39C236.776 87.526 237.19 86.248 237.19 84.574C237.19 82.846 236.812 81.568 236.074 80.74C235.282 79.858 234.058 79.426 232.366 79.426H229.468ZM253.231 77.896C255.139 77.896 256.669 78.526 257.785 79.822C258.829 81.046 259.369 82.63 259.369 84.592C259.369 86.536 258.829 88.102 257.785 89.326C256.669 90.604 255.139 91.252 253.213 91.252C251.287 91.252 249.775 90.604 248.659 89.326C247.597 88.102 247.075 86.518 247.075 84.592C247.075 82.648 247.597 81.064 248.659 79.84C249.775 78.544 251.287 77.896 253.231 77.896ZM253.231 79.21C251.755 79.21 250.585 79.714 249.739 80.74C248.947 81.712 248.551 82.99 248.551 84.592C248.551 86.176 248.947 87.454 249.739 88.426C250.567 89.434 251.737 89.938 253.213 89.938C254.689 89.938 255.859 89.434 256.687 88.462C257.479 87.49 257.893 86.212 257.893 84.592C257.893 82.954 257.479 81.658 256.687 80.686C255.859 79.696 254.707 79.21 253.231 79.21ZM261.874 78.148H263.422L270.694 88.606H270.748V78.148H272.224V91H270.712L263.404 80.434H263.35V91H261.874V78.148ZM280.736 78.148H291.266V79.426H286.73V91H285.272V79.426H280.736V78.148ZM293.33 78.148H294.806V83.728H302.24V78.148H303.716V91H302.24V85.006H294.806V91H293.33V78.148ZM306.853 78.148H308.311V91H306.853V78.148ZM315.797 77.896C317.237 77.896 318.389 78.22 319.217 78.886C320.081 79.57 320.567 80.596 320.693 81.946H319.235C319.073 81.01 318.713 80.326 318.155 79.876C317.579 79.408 316.769 79.192 315.725 79.192C314.771 79.192 314.033 79.336 313.493 79.66C312.881 80.02 312.575 80.56 312.575 81.298C312.575 81.946 312.935 82.468 313.673 82.864C313.997 83.044 314.789 83.314 316.031 83.674C317.723 84.178 318.839 84.592 319.379 84.916C320.441 85.564 320.981 86.464 320.981 87.634C320.981 88.75 320.531 89.65 319.631 90.298C318.731 90.928 317.525 91.252 315.995 91.252C314.483 91.252 313.295 90.928 312.431 90.28C311.423 89.506 310.865 88.336 310.757 86.752H312.215C312.341 87.868 312.737 88.696 313.385 89.218C313.979 89.686 314.843 89.938 315.995 89.938C317.039 89.938 317.903 89.74 318.551 89.344C319.199 88.948 319.523 88.408 319.523 87.724C319.523 86.914 319.091 86.284 318.245 85.834C317.885 85.618 316.967 85.312 315.527 84.898C313.979 84.43 312.989 84.07 312.575 83.854C311.585 83.278 311.099 82.45 311.099 81.37C311.099 80.254 311.567 79.372 312.521 78.76C313.367 78.184 314.465 77.896 315.797 77.896ZM329.764 78.148H334.372C336.406 78.148 337.936 78.724 338.98 79.912C339.934 80.992 340.42 82.558 340.42 84.574C340.42 86.554 339.898 88.12 338.872 89.236C337.792 90.406 336.244 91 334.228 91H329.764V78.148ZM331.24 79.426V89.722H333.976C335.65 89.722 336.91 89.272 337.756 88.39C338.548 87.526 338.962 86.248 338.962 84.574C338.962 82.846 338.584 81.568 337.846 80.74C337.054 79.858 335.83 79.426 334.138 79.426H331.24ZM346.695 78.148H348.405L353.463 91H351.861L350.493 87.4H344.589L343.221 91H341.637L346.695 78.148ZM345.057 86.158H350.025L347.595 79.732H347.523L345.057 86.158ZM354.017 78.148H355.799L359.885 84.412L363.971 78.148H365.753L360.623 85.78V91H359.147V85.78L354.017 78.148ZM368.681 88.858C368.969 88.858 369.239 88.966 369.455 89.182C369.671 89.398 369.779 89.65 369.779 89.974C369.779 90.28 369.671 90.532 369.455 90.748C369.239 90.964 368.969 91.072 368.681 91.072C368.357 91.072 368.105 90.964 367.907 90.748C367.691 90.532 367.583 90.28 367.583 89.974C367.583 89.65 367.691 89.398 367.907 89.182C368.105 88.966 368.357 88.858 368.681 88.858Z" fill="#0F5D26"/>
</g>
<defs>
<filter id="filter0_ddd_156_136142" x="0" y="0" width="512" height="128" filterUnits="userSpaceOnUse" color-interpolation-filters="sRGB">
<feFlood flood-opacity="0" result="BackgroundImageFix"/>
<feColorMatrix in="SourceAlpha" type="matrix" values="0 0 0 0 0 0 0 0 0 0 0 0 0 0 0 0 0 0 127 0" result="hardAlpha"/>
<feMorphology radius="2" operator="erode" in="SourceAlpha" result="effect1_dropShadow_156_136142"/>
<feOffset dy="3"/>
<feGaussianBlur stdDeviation="0.5"/>
<feComposite in2="hardAlpha" operator="out"/>
<feColorMatrix type="matrix" values="0 0 0 0 0 0 0 0 0 0 0 0 0 0 0 0 0 0 0.2 0"/>
<feBlend mode="normal" in2="BackgroundImageFix" result="effect1_dropShadow_156_136142"/>
<feColorMatrix in="SourceAlpha" type="matrix" values="0 0 0 0 0 0 0 0 0 0 0 0 0 0 0 0 0 0 127 0" result="hardAlpha"/>
<feOffset dy="2"/>
<feGaussianBlur stdDeviation="1"/>
<feComposite in2="hardAlpha" operator="out"/>
<feColorMatrix type="matrix" values="0 0 0 0 0 0 0 0 0 0 0 0 0 0 0 0 0 0 0.14 0"/>
<feBlend mode="normal" in2="effect1_dropShadow_156_136142" result="effect2_dropShadow_156_136142"/>
<feColorMatrix in="SourceAlpha" type="matrix" values="0 0 0 0 0 0 0 0 0 0 0 0 0 0 0 0 0 0 127 0" result="hardAlpha"/>
<feOffset dy="1"/>
<feGaussianBlur stdDeviation="2.5"/>
<feComposite in2="hardAlpha" operator="out"/>
<feColorMatrix type="matrix" values="0 0 0 0 0 0 0 0 0 0 0 0 0 0 0 0 0 0 0.12 0"/>
<feBlend mode="normal" in2="effect2_dropShadow_156_136142" result="effect3_dropShadow_156_136142"/>
<feBlend mode="normal" in="SourceGraphic" in2="effect3_dropShadow_156_136142" result="shape"/>
</filter>
</defs>
</svg>
