<svg width="512" height="220" viewBox="0 0 512 220" fill="none" xmlns="http://www.w3.org/2000/svg">
<g filter="url(#filter0_ddd_156_136149)">
<rect x="5" y="4" width="502" height="210" rx="4" fill="white"/>
<rect width="136" height="34" transform="translate(37 20)" fill="white"/>
<path d="M42.1172 44.1953C40.6914 44.1953 39.5944 43.8861 38.8262 43.2676C38.0645 42.6491 37.5566 41.6497 37.3027 40.2695L40.1641 39.8496C40.2812 40.5592 40.4993 41.0866 40.8184 41.4316C41.1374 41.7702 41.5768 41.9395 42.1367 41.9395C42.7096 41.9395 43.1426 41.7474 43.4355 41.3633C43.735 40.9792 43.8848 40.429 43.8848 39.7129V32.4961H41.1406V30.2402H46.7559V39.6445C46.7559 41.0768 46.349 42.1934 45.5352 42.9941C44.7214 43.7949 43.582 44.1953 42.1172 44.1953ZM55.6534 44.1953C54.3903 44.1953 53.3226 43.9902 52.4502 43.5801C51.5778 43.1634 50.917 42.5579 50.4678 41.7637C50.0186 40.9629 49.794 39.9896 49.794 38.8438V30.2402H52.6748V38.6191C52.6748 39.7064 52.932 40.5332 53.4463 41.0996C53.9672 41.6595 54.7289 41.9395 55.7315 41.9395C56.7601 41.9395 57.5511 41.6465 58.1045 41.0605C58.6579 40.4681 58.9346 39.6217 58.9346 38.5215V30.2402H61.8155V38.6973C61.8155 39.8561 61.5713 40.8457 61.083 41.666C60.6013 42.4863 59.9014 43.1146 58.9834 43.5508C58.0655 43.9805 56.9554 44.1953 55.6534 44.1953ZM75.1075 41.7734V44H64.8438V30.2402H67.7247V41.7734H75.1075ZM82.4718 38.3555V44H79.6007V38.3555L74.6984 30.2402H77.7159L81.0167 36.0605L84.3566 30.2402H87.3741L82.4718 38.3555Z" fill="#00153C"/>
<path d="M106.303 37.1152C106.303 39.4395 105.902 41.2005 105.102 42.3984C104.307 43.5964 103.113 44.1953 101.518 44.1953C99.9421 44.1953 98.7604 43.6061 97.9727 42.4277C97.1849 41.2428 96.791 39.472 96.791 37.1152C96.791 34.6999 97.1654 32.916 97.9141 31.7637C98.6693 30.6113 99.8965 30.0352 101.596 30.0352C103.223 30.0352 104.415 30.6243 105.17 31.8027C105.925 32.9811 106.303 34.752 106.303 37.1152ZM103.549 37.1152C103.549 35.8783 103.493 34.9017 103.383 34.1855C103.272 33.4629 103.074 32.9486 102.787 32.6426C102.501 32.3366 102.097 32.1836 101.576 32.1836C101.023 32.1836 100.596 32.3398 100.297 32.6523C100.004 32.9583 99.8021 33.4727 99.6914 34.1953C99.5872 34.9115 99.5352 35.8848 99.5352 37.1152C99.5352 38.3457 99.5905 39.3223 99.7012 40.0449C99.8184 40.7611 100.02 41.2721 100.307 41.5781C100.6 41.8841 101.01 42.0371 101.537 42.0371C102.318 42.0371 102.849 41.6595 103.129 40.9043C103.409 40.1491 103.549 38.8861 103.549 37.1152ZM118.159 41.959V44H108.853V41.959H112.261V32.5742L108.96 34.6348V32.4766L112.407 30.2402H115.005V41.959H118.159Z" fill="#00153C"/>
<path d="M137.322 41.7441V44H127.693V42.0957C127.934 41.5684 128.24 41.054 128.611 40.5527C128.982 40.0449 129.425 39.5371 129.939 39.0293C130.46 38.515 131.053 37.9876 131.717 37.4473C132.199 37.0566 132.609 36.7018 132.947 36.3828C133.286 36.0573 133.549 35.7676 133.738 35.5137C133.934 35.2598 134.08 35.0091 134.178 34.7617C134.275 34.5078 134.324 34.2604 134.324 34.0195C134.324 33.4206 134.171 32.9714 133.865 32.6719C133.566 32.3724 133.117 32.2227 132.518 32.2227C131.932 32.2227 131.482 32.3822 131.17 32.7012C130.864 33.0137 130.665 33.4857 130.574 34.1172L127.811 33.9609C127.967 32.6849 128.442 31.7116 129.236 31.041C130.037 30.3704 131.124 30.0352 132.498 30.0352C133.982 30.0352 135.122 30.3737 135.916 31.0508C136.71 31.7279 137.107 32.6784 137.107 33.9023C137.107 34.5924 136.964 35.2109 136.678 35.7578C136.391 36.3047 136.027 36.8092 135.584 37.2715C135.219 37.6686 134.806 38.0462 134.344 38.4043C133.888 38.7624 133.445 39.1107 133.016 39.4492C132.56 39.8138 132.143 40.1816 131.766 40.5527C131.395 40.9238 131.118 41.321 130.936 41.7441H137.322ZM148.896 37.1152C148.896 39.4395 148.495 41.2005 147.694 42.3984C146.9 43.5964 145.705 44.1953 144.11 44.1953C142.535 44.1953 141.353 43.6061 140.565 42.4277C139.778 41.2428 139.384 39.472 139.384 37.1152C139.384 34.6999 139.758 32.916 140.507 31.7637C141.262 30.6113 142.489 30.0352 144.189 30.0352C145.816 30.0352 147.008 30.6243 147.763 31.8027C148.518 32.9811 148.896 34.752 148.896 37.1152ZM146.142 37.1152C146.142 35.8783 146.086 34.9017 145.976 34.1855C145.865 33.4629 145.666 32.9486 145.38 32.6426C145.093 32.3366 144.69 32.1836 144.169 32.1836C143.616 32.1836 143.189 32.3398 142.89 32.6523C142.597 32.9583 142.395 33.4727 142.284 34.1953C142.18 34.9115 142.128 35.8848 142.128 37.1152C142.128 38.3457 142.183 39.3223 142.294 40.0449C142.411 40.7611 142.613 41.2721 142.899 41.5781C143.192 41.8841 143.603 42.0371 144.13 42.0371C144.911 42.0371 145.442 41.6595 145.722 40.9043C146.002 40.1491 146.142 38.8861 146.142 37.1152ZM160.508 41.7441V44H150.879V42.0957C151.12 41.5684 151.426 41.054 151.797 40.5527C152.168 40.0449 152.611 39.5371 153.125 39.0293C153.646 38.515 154.238 37.9876 154.902 37.4473C155.384 37.0566 155.794 36.7018 156.133 36.3828C156.471 36.0573 156.735 35.7676 156.924 35.5137C157.119 35.2598 157.266 35.0091 157.363 34.7617C157.461 34.5078 157.51 34.2604 157.51 34.0195C157.51 33.4206 157.357 32.9714 157.051 32.6719C156.751 32.3724 156.302 32.2227 155.703 32.2227C155.117 32.2227 154.668 32.3822 154.356 32.7012C154.05 33.0137 153.851 33.4857 153.76 34.1172L150.996 33.9609C151.152 32.6849 151.628 31.7116 152.422 31.041C153.223 30.3704 154.31 30.0352 155.684 30.0352C157.168 30.0352 158.307 30.3737 159.102 31.0508C159.896 31.7279 160.293 32.6784 160.293 33.9023C160.293 34.5924 160.15 35.2109 159.863 35.7578C159.577 36.3047 159.212 36.8092 158.77 37.2715C158.405 37.6686 157.992 38.0462 157.529 38.4043C157.074 38.7624 156.631 39.1107 156.201 39.4492C155.746 39.8138 155.329 40.1816 154.951 40.5527C154.58 40.9238 154.303 41.321 154.121 41.7441H160.508ZM172.179 40.1816C172.179 41.4707 171.756 42.4668 170.909 43.1699C170.063 43.873 168.859 44.2246 167.296 44.2246C165.818 44.2246 164.643 43.8861 163.771 43.209C162.898 42.5254 162.387 41.5423 162.237 40.2598L165.03 40.0156C165.206 41.3372 165.958 41.998 167.286 41.998C167.944 41.998 168.455 41.8353 168.819 41.5098C169.184 41.1842 169.366 40.6862 169.366 40.0156C169.366 39.4036 169.145 38.9349 168.702 38.6094C168.26 38.2839 167.602 38.1211 166.73 38.1211H165.773V35.9043H166.671C167.459 35.9043 168.051 35.7448 168.448 35.4258C168.845 35.1003 169.044 34.638 169.044 34.0391C169.044 33.4727 168.885 33.0299 168.566 32.7109C168.253 32.3854 167.794 32.2227 167.189 32.2227C166.622 32.2227 166.163 32.3789 165.812 32.6914C165.467 33.0039 165.268 33.4466 165.216 34.0195L162.472 33.8242C162.615 32.6393 163.107 31.7116 163.946 31.041C164.786 30.3704 165.883 30.0352 167.237 30.0352C168.676 30.0352 169.799 30.3607 170.607 31.0117C171.42 31.6562 171.827 32.5514 171.827 33.6973C171.827 34.5566 171.573 35.263 171.066 35.8164C170.564 36.3698 169.838 36.7376 168.888 36.9199V36.959C169.943 37.0827 170.753 37.431 171.319 38.0039C171.892 38.5703 172.179 39.2962 172.179 40.1816Z" fill="#00153C"/>
<rect x="37" y="64" width="439" height="42" rx="4" fill="white"/>
<path d="M51.14 78.148H52.292V91H50.816V79.948C50.006 80.776 48.998 81.352 47.792 81.712V80.236C48.368 80.074 48.98 79.822 49.592 79.462C50.204 79.066 50.708 78.634 51.14 78.148ZM61.2288 78.148H62.8848L65.7108 88.93H65.7828L68.7168 78.148H70.3188L73.2348 88.93H73.3068L76.1328 78.148H77.7888L74.0988 91H72.4608L69.5448 80.29H69.4908L66.5568 91H64.9188L61.2288 78.148ZM83.3911 78.148H85.1011L90.1591 91H88.5571L87.1891 87.4H81.2851L79.9171 91H78.3331L83.3911 78.148ZM81.7531 86.158H86.7211L84.2911 79.732H84.2191L81.7531 86.158ZM91.9192 78.148H97.4632C98.7412 78.148 99.7492 78.436 100.487 79.03C101.243 79.642 101.639 80.542 101.639 81.73C101.639 82.45 101.441 83.08 101.045 83.638C100.613 84.214 100.037 84.574 99.2992 84.754V84.79C100.523 85.06 101.207 85.834 101.351 87.13L101.549 89.11C101.621 89.902 101.855 90.532 102.233 91H100.631C100.343 90.568 100.163 90.01 100.109 89.29L99.9472 87.58C99.8752 86.824 99.6052 86.266 99.1372 85.942C98.7052 85.618 98.0932 85.474 97.2832 85.474H93.3952V91H91.9192V78.148ZM93.3952 79.426V84.196H97.2832C98.2192 84.196 98.9572 83.962 99.4612 83.53C99.9112 83.116 100.145 82.54 100.145 81.784C100.145 80.992 99.9112 80.398 99.4792 80.02C99.0112 79.624 98.2732 79.426 97.2832 79.426H93.3952ZM104.543 78.148H106.091L113.363 88.606H113.417V78.148H114.893V91H113.381L106.073 80.434H106.019V91H104.543V78.148ZM118.049 78.148H119.507V91H118.049V78.148ZM122.672 78.148H124.22L131.492 88.606H131.546V78.148H133.022V91H131.51L124.202 80.434H124.148V91H122.672V78.148ZM141.56 77.896C143.162 77.896 144.44 78.274 145.394 79.066C146.294 79.804 146.852 80.866 147.086 82.27H145.61C145.412 81.298 144.98 80.56 144.314 80.038C143.612 79.48 142.694 79.21 141.56 79.21C140.156 79.21 139.058 79.696 138.23 80.686C137.402 81.658 137.006 82.972 137.006 84.628C137.006 86.248 137.402 87.526 138.194 88.462C139.04 89.452 140.3 89.956 141.974 89.956C142.676 89.956 143.342 89.848 143.99 89.668C144.62 89.488 145.16 89.236 145.61 88.948V85.672H141.578V84.394H147.068V89.65C146.456 90.154 145.7 90.532 144.818 90.82C143.882 91.108 142.892 91.252 141.83 91.252C139.796 91.252 138.212 90.604 137.096 89.308C136.052 88.102 135.53 86.536 135.53 84.628C135.53 82.72 136.034 81.154 137.078 79.912C138.176 78.562 139.67 77.896 141.56 77.896ZM156.449 78.148H161.993C163.271 78.148 164.279 78.436 165.017 79.03C165.773 79.642 166.169 80.542 166.169 81.73C166.169 82.45 165.971 83.08 165.575 83.638C165.143 84.214 164.567 84.574 163.829 84.754V84.79C165.053 85.06 165.737 85.834 165.881 87.13L166.079 89.11C166.151 89.902 166.385 90.532 166.763 91H165.161C164.873 90.568 164.693 90.01 164.639 89.29L164.477 87.58C164.405 86.824 164.135 86.266 163.667 85.942C163.235 85.618 162.623 85.474 161.813 85.474H157.925V91H156.449V78.148ZM157.925 79.426V84.196H161.813C162.749 84.196 163.487 83.962 163.991 83.53C164.441 83.116 164.675 82.54 164.675 81.784C164.675 80.992 164.441 80.398 164.009 80.02C163.541 79.624 162.803 79.426 161.813 79.426H157.925ZM169.073 78.148H178.181V79.426H170.549V83.728H177.749V85.006H170.549V89.722H178.487V91H169.073V78.148ZM186.538 77.896C187.96 77.896 189.166 78.274 190.138 79.03C191.11 79.786 191.686 80.812 191.866 82.09H190.444C190.264 81.154 189.796 80.434 189.076 79.93C188.374 79.444 187.528 79.21 186.52 79.21C185.026 79.21 183.874 79.732 183.064 80.776C182.308 81.748 181.93 83.026 181.93 84.628C181.93 86.23 182.29 87.508 183.046 88.444C183.838 89.434 184.972 89.938 186.484 89.938C187.51 89.938 188.374 89.668 189.094 89.128C189.85 88.552 190.372 87.706 190.624 86.59H192.046C191.758 88.084 191.092 89.254 190.03 90.082C189.04 90.856 187.852 91.252 186.484 91.252C184.486 91.252 182.956 90.586 181.894 89.272C180.922 88.084 180.454 86.536 180.454 84.628C180.454 82.72 180.94 81.154 181.93 79.93C183.01 78.562 184.558 77.896 186.538 77.896ZM200.165 77.896C202.073 77.896 203.603 78.526 204.719 79.822C205.763 81.046 206.303 82.63 206.303 84.592C206.303 86.536 205.763 88.102 204.719 89.326C203.603 90.604 202.073 91.252 200.147 91.252C198.221 91.252 196.709 90.604 195.593 89.326C194.531 88.102 194.009 86.518 194.009 84.592C194.009 82.648 194.531 81.064 195.593 79.84C196.709 78.544 198.221 77.896 200.165 77.896ZM200.165 79.21C198.689 79.21 197.519 79.714 196.673 80.74C195.881 81.712 195.485 82.99 195.485 84.592C195.485 86.176 195.881 87.454 196.673 88.426C197.501 89.434 198.671 89.938 200.147 89.938C201.623 89.938 202.793 89.434 203.621 88.462C204.413 87.49 204.827 86.212 204.827 84.592C204.827 82.954 204.413 81.658 203.621 80.686C202.793 79.696 201.641 79.21 200.165 79.21ZM208.808 78.148H214.352C215.63 78.148 216.638 78.436 217.376 79.03C218.132 79.642 218.528 80.542 218.528 81.73C218.528 82.45 218.33 83.08 217.934 83.638C217.502 84.214 216.926 84.574 216.188 84.754V84.79C217.412 85.06 218.096 85.834 218.24 87.13L218.438 89.11C218.51 89.902 218.744 90.532 219.122 91H217.52C217.232 90.568 217.052 90.01 216.998 89.29L216.836 87.58C216.764 86.824 216.494 86.266 216.026 85.942C215.594 85.618 214.982 85.474 214.172 85.474H210.284V91H208.808V78.148ZM210.284 79.426V84.196H214.172C215.108 84.196 215.846 83.962 216.35 83.53C216.8 83.116 217.034 82.54 217.034 81.784C217.034 80.992 216.8 80.398 216.368 80.02C215.9 79.624 215.162 79.426 214.172 79.426H210.284ZM221.432 78.148H226.04C228.074 78.148 229.604 78.724 230.648 79.912C231.602 80.992 232.088 82.558 232.088 84.574C232.088 86.554 231.566 88.12 230.54 89.236C229.46 90.406 227.912 91 225.896 91H221.432V78.148ZM222.908 79.426V89.722H225.644C227.318 89.722 228.578 89.272 229.424 88.39C230.216 87.526 230.63 86.248 230.63 84.574C230.63 82.846 230.252 81.568 229.514 80.74C228.722 79.858 227.498 79.426 225.806 79.426H222.908ZM234.601 78.148H243.709V79.426H236.077V83.728H243.277V85.006H236.077V89.722H244.015V91H234.601V78.148ZM246.522 78.148H251.13C253.164 78.148 254.694 78.724 255.738 79.912C256.692 80.992 257.178 82.558 257.178 84.574C257.178 86.554 256.656 88.12 255.63 89.236C254.55 90.406 253.002 91 250.986 91H246.522V78.148ZM247.998 79.426V89.722H250.734C252.408 89.722 253.668 89.272 254.514 88.39C255.306 87.526 255.72 86.248 255.72 84.574C255.72 82.846 255.342 81.568 254.604 80.74C253.812 79.858 252.588 79.426 250.896 79.426H247.998ZM271.761 77.896C273.669 77.896 275.199 78.526 276.315 79.822C277.359 81.046 277.899 82.63 277.899 84.592C277.899 86.536 277.359 88.102 276.315 89.326C275.199 90.604 273.669 91.252 271.743 91.252C269.817 91.252 268.305 90.604 267.189 89.326C266.127 88.102 265.605 86.518 265.605 84.592C265.605 82.648 266.127 81.064 267.189 79.84C268.305 78.544 269.817 77.896 271.761 77.896ZM271.761 79.21C270.285 79.21 269.115 79.714 268.269 80.74C267.477 81.712 267.081 82.99 267.081 84.592C267.081 86.176 267.477 87.454 268.269 88.426C269.097 89.434 270.267 89.938 271.743 89.938C273.219 89.938 274.389 89.434 275.217 88.462C276.009 87.49 276.423 86.212 276.423 84.592C276.423 82.954 276.009 81.658 275.217 80.686C274.389 79.696 273.237 79.21 271.761 79.21ZM280.404 78.148H281.952L289.224 88.606H289.278V78.148H290.754V91H289.242L281.934 80.434H281.88V91H280.404V78.148ZM299.266 78.148H309.796V79.426H305.26V91H303.802V79.426H299.266V78.148ZM311.86 78.148H313.336V83.728H320.77V78.148H322.246V91H320.77V85.006H313.336V91H311.86V78.148ZM325.383 78.148H326.841V91H325.383V78.148ZM334.327 77.896C335.767 77.896 336.919 78.22 337.747 78.886C338.611 79.57 339.097 80.596 339.223 81.946H337.765C337.603 81.01 337.243 80.326 336.685 79.876C336.109 79.408 335.299 79.192 334.255 79.192C333.301 79.192 332.563 79.336 332.023 79.66C331.411 80.02 331.105 80.56 331.105 81.298C331.105 81.946 331.465 82.468 332.203 82.864C332.527 83.044 333.319 83.314 334.561 83.674C336.253 84.178 337.369 84.592 337.909 84.916C338.971 85.564 339.511 86.464 339.511 87.634C339.511 88.75 339.061 89.65 338.161 90.298C337.261 90.928 336.055 91.252 334.525 91.252C333.013 91.252 331.825 90.928 330.961 90.28C329.953 89.506 329.395 88.336 329.287 86.752H330.745C330.871 87.868 331.267 88.696 331.915 89.218C332.509 89.686 333.373 89.938 334.525 89.938C335.569 89.938 336.433 89.74 337.081 89.344C337.729 88.948 338.053 88.408 338.053 87.724C338.053 86.914 337.621 86.284 336.775 85.834C336.415 85.618 335.497 85.312 334.057 84.898C332.509 84.43 331.519 84.07 331.105 83.854C330.115 83.278 329.629 82.45 329.629 81.37C329.629 80.254 330.097 79.372 331.051 78.76C331.897 78.184 332.995 77.896 334.327 77.896ZM348.294 78.148H352.902C354.936 78.148 356.466 78.724 357.51 79.912C358.464 80.992 358.95 82.558 358.95 84.574C358.95 86.554 358.428 88.12 357.402 89.236C356.322 90.406 354.774 91 352.758 91H348.294V78.148ZM349.77 79.426V89.722H352.506C354.18 89.722 355.44 89.272 356.286 88.39C357.078 87.526 357.492 86.248 357.492 84.574C357.492 82.846 357.114 81.568 356.376 80.74C355.584 79.858 354.36 79.426 352.668 79.426H349.77ZM365.225 78.148H366.935L371.993 91H370.391L369.023 87.4H363.119L361.751 91H360.167L365.225 78.148ZM363.587 86.158H368.555L366.125 79.732H366.053L363.587 86.158ZM372.547 78.148H374.329L378.415 84.412L382.501 78.148H384.283L379.153 85.78V91H377.677V85.78L372.547 78.148ZM387.211 88.858C387.499 88.858 387.769 88.966 387.985 89.182C388.201 89.398 388.309 89.65 388.309 89.974C388.309 90.28 388.201 90.532 387.985 90.748C387.769 90.964 387.499 91.072 387.211 91.072C386.887 91.072 386.635 90.964 386.437 90.748C386.221 90.532 386.113 90.28 386.113 89.974C386.113 89.65 386.221 89.398 386.437 89.182C386.635 88.966 386.887 88.858 387.211 88.858Z" fill="#3B2300"/>
<g filter="url(#filter1_d_156_136149)">
<rect x="37" y="116" width="439" height="82" rx="4" fill="#F7F7F8"/>
<path d="M70.9999 134.167C71.6416 134.167 72.1666 134.692 72.1666 135.333V140C72.1666 140.642 71.6416 141.167 70.9999 141.167C70.3583 141.167 69.8333 140.642 69.8333 140V135.333C69.8333 134.692 70.3583 134.167 70.9999 134.167ZM70.9883 128.333C64.5483 128.333 59.3333 133.56 59.3333 140C59.3333 146.44 64.5483 151.667 70.9883 151.667C77.4399 151.667 82.6666 146.44 82.6666 140C82.6666 133.56 77.4399 128.333 70.9883 128.333ZM70.9999 149.333C65.8433 149.333 61.6666 145.157 61.6666 140C61.6666 134.843 65.8433 130.667 70.9999 130.667C76.1566 130.667 80.3333 134.843 80.3333 140C80.3333 145.157 76.1566 149.333 70.9999 149.333ZM72.1666 145.833H69.8333V143.5H72.1666V145.833Z" fill="#7D4E00"/>
<path d="M101.987 144.137C103.558 144.137 104.645 143.352 105.248 141.781L107.507 142.634C107.021 143.829 106.306 144.72 105.362 145.306C104.425 145.886 103.3 146.176 101.987 146.176C100.663 146.176 99.5352 145.924 98.6035 145.42C97.6719 144.91 96.96 144.175 96.4678 143.214C95.9814 142.253 95.7383 141.099 95.7383 139.751C95.7383 138.392 95.9727 137.243 96.4414 136.306C96.9102 135.368 97.6016 134.656 98.5156 134.17C99.4297 133.678 100.549 133.432 101.873 133.432C103.326 133.432 104.51 133.725 105.424 134.311C106.338 134.891 106.979 135.746 107.349 136.877L105.063 137.501C104.87 136.88 104.489 136.388 103.921 136.024C103.358 135.655 102.693 135.471 101.926 135.471C100.754 135.471 99.8633 135.834 99.2539 136.561C98.6504 137.287 98.3486 138.351 98.3486 139.751C98.3486 140.7 98.4863 141.5 98.7617 142.15C99.043 142.801 99.4531 143.296 99.9922 143.636C100.537 143.97 101.202 144.137 101.987 144.137ZM119.858 137.536C119.858 138.339 119.674 139.051 119.305 139.672C118.941 140.287 118.423 140.771 117.749 141.122C117.075 141.468 116.273 141.641 115.341 141.641H112.265V146H109.672V133.616H115.235C116.718 133.616 117.857 133.959 118.654 134.645C119.457 135.324 119.858 136.288 119.858 137.536ZM117.248 137.58C117.248 136.279 116.481 135.629 114.945 135.629H112.265V139.646H115.016C115.731 139.646 116.281 139.47 116.668 139.118C117.055 138.761 117.248 138.248 117.248 137.58ZM127.288 146.176C126.151 146.176 125.191 145.991 124.405 145.622C123.62 145.247 123.025 144.702 122.621 143.987C122.217 143.267 122.015 142.391 122.015 141.359V133.616H124.608V141.157C124.608 142.136 124.839 142.88 125.302 143.39C125.771 143.894 126.456 144.146 127.358 144.146C128.284 144.146 128.996 143.882 129.494 143.354C129.992 142.821 130.241 142.06 130.241 141.069V133.616H132.834V141.228C132.834 142.271 132.614 143.161 132.175 143.899C131.741 144.638 131.111 145.203 130.285 145.596C129.459 145.982 128.46 146.176 127.288 146.176ZM153.116 139.751C153.116 141.04 152.856 142.168 152.334 143.135C151.819 144.096 151.089 144.843 150.146 145.376C149.208 145.909 148.107 146.176 146.841 146.176C145.546 146.176 144.433 145.918 143.501 145.402C142.569 144.881 141.855 144.14 141.357 143.179C140.859 142.218 140.61 141.075 140.61 139.751C140.61 138.427 140.856 137.293 141.348 136.35C141.846 135.406 142.561 134.686 143.492 134.188C144.43 133.684 145.552 133.432 146.859 133.432C148.171 133.432 149.293 133.687 150.225 134.196C151.156 134.7 151.871 135.424 152.369 136.367C152.867 137.311 153.116 138.438 153.116 139.751ZM150.471 139.751C150.471 138.415 150.154 137.369 149.522 136.613C148.889 135.852 148.001 135.471 146.859 135.471C145.698 135.471 144.802 135.849 144.169 136.604C143.536 137.354 143.22 138.403 143.22 139.751C143.22 140.653 143.366 141.433 143.659 142.089C143.952 142.745 144.368 143.252 144.907 143.609C145.452 143.961 146.097 144.137 146.841 144.137C148.001 144.137 148.895 143.756 149.522 142.994C150.154 142.232 150.471 141.151 150.471 139.751ZM166.224 133.616L161.671 146H159.043L154.464 133.616H157.171L159.72 141.57C159.802 141.828 159.896 142.153 160.001 142.546C160.112 142.933 160.236 143.387 160.37 143.908C160.564 143.176 160.701 142.646 160.783 142.317C160.871 141.989 160.945 141.74 161.003 141.57L163.543 133.616H166.224ZM178.11 143.996V146H168.011V133.616H177.749V135.62H170.604V138.731H177.213V140.735H170.604V143.996H178.11ZM183.07 141.298V146H180.477V133.616H186.664C188.141 133.616 189.281 133.936 190.083 134.574C190.886 135.207 191.287 136.118 191.287 137.308C191.287 138.175 191.041 138.925 190.549 139.558C190.057 140.185 189.392 140.598 188.554 140.797L191.903 146H188.985L186.111 141.298H183.07ZM188.677 137.413C188.677 136.821 188.487 136.376 188.106 136.077C187.725 135.778 187.154 135.629 186.392 135.629H183.07V139.285H186.462C187.189 139.285 187.74 139.121 188.115 138.793C188.49 138.465 188.677 138.005 188.677 137.413ZM203.182 143.996V146H193.945V133.616H196.537V143.996H203.182ZM217.45 139.751C217.45 141.04 217.189 142.168 216.667 143.135C216.152 144.096 215.422 144.843 214.479 145.376C213.541 145.909 212.44 146.176 211.174 146.176C209.879 146.176 208.766 145.918 207.834 145.402C206.903 144.881 206.188 144.14 205.69 143.179C205.192 142.218 204.943 141.075 204.943 139.751C204.943 138.427 205.189 137.293 205.681 136.35C206.179 135.406 206.894 134.686 207.826 134.188C208.763 133.684 209.885 133.432 211.192 133.432C212.504 133.432 213.626 133.687 214.558 134.196C215.49 134.7 216.204 135.424 216.702 136.367C217.201 137.311 217.45 138.438 217.45 139.751ZM214.804 139.751C214.804 138.415 214.488 137.369 213.855 136.613C213.222 135.852 212.334 135.471 211.192 135.471C210.032 135.471 209.135 135.849 208.502 136.604C207.869 137.354 207.553 138.403 207.553 139.751C207.553 140.653 207.7 141.433 207.993 142.089C208.286 142.745 208.702 143.252 209.241 143.609C209.786 143.961 210.43 144.137 211.174 144.137C212.334 144.137 213.228 143.756 213.855 142.994C214.488 142.232 214.804 141.151 214.804 139.751ZM222.814 142.836L221.715 146H219.122L223.64 133.616H226.699L231.199 146H228.632L227.534 142.836H222.814ZM225.169 135.523C225.111 135.758 225.029 136.039 224.923 136.367C224.818 136.695 224.742 136.927 224.695 137.062L223.394 140.885H226.954L225.618 136.982C225.536 136.742 225.459 136.499 225.389 136.253C225.319 136.007 225.246 135.764 225.169 135.523ZM244.385 139.716C244.385 141.04 244.127 142.171 243.612 143.108C243.102 144.046 242.393 144.764 241.485 145.262C240.582 145.754 239.539 146 238.356 146H233.346V133.616H237.829C239.914 133.616 241.529 134.144 242.671 135.198C243.814 136.247 244.385 137.753 244.385 139.716ZM241.775 139.716C241.775 138.386 241.429 137.372 240.738 136.675C240.046 135.972 239.059 135.62 237.776 135.62H235.939V143.996H238.136C238.88 143.996 239.522 143.823 240.061 143.478C240.606 143.126 241.028 142.631 241.327 141.992C241.625 141.354 241.775 140.595 241.775 139.716Z" fill="#7D4E00"/>
<path d="M302.51 144.163V146H294.134V144.163H297.201V135.717L294.23 137.571V135.629L297.333 133.616H299.671V144.163H302.51ZM312.746 140.691V146H310.153V133.616H312.746V138.547H318.143V133.616H320.735V146H318.143V140.691H312.746ZM326.214 141.298V146H323.621V133.616H329.809C331.285 133.616 332.425 133.936 333.228 134.574C334.03 135.207 334.432 136.118 334.432 137.308C334.432 138.175 334.186 138.925 333.693 139.558C333.201 140.185 332.536 140.598 331.698 140.797L335.047 146H332.129L329.255 141.298H326.214ZM331.821 137.413C331.821 136.821 331.631 136.376 331.25 136.077C330.869 135.778 330.298 135.629 329.536 135.629H326.214V139.285H329.607C330.333 139.285 330.884 139.121 331.259 138.793C331.634 138.465 331.821 138.005 331.821 137.413Z" fill="#3B2300"/>
<path d="M392.29 143.97V146H383.624V144.286C383.841 143.812 384.116 143.349 384.45 142.897C384.784 142.44 385.183 141.983 385.646 141.526C386.114 141.063 386.647 140.589 387.245 140.103C387.679 139.751 388.048 139.432 388.353 139.145C388.657 138.852 388.895 138.591 389.064 138.362C389.24 138.134 389.372 137.908 389.46 137.686C389.548 137.457 389.592 137.234 389.592 137.018C389.592 136.479 389.454 136.074 389.179 135.805C388.909 135.535 388.505 135.4 387.966 135.4C387.438 135.4 387.034 135.544 386.753 135.831C386.478 136.112 386.299 136.537 386.217 137.105L383.729 136.965C383.87 135.816 384.298 134.94 385.013 134.337C385.733 133.733 386.712 133.432 387.948 133.432C389.284 133.432 390.31 133.736 391.024 134.346C391.739 134.955 392.097 135.811 392.097 136.912C392.097 137.533 391.968 138.09 391.71 138.582C391.452 139.074 391.124 139.528 390.726 139.944C390.397 140.302 390.025 140.642 389.609 140.964C389.199 141.286 388.801 141.6 388.414 141.904C388.004 142.232 387.629 142.563 387.289 142.897C386.955 143.231 386.706 143.589 386.542 143.97H392.29ZM402.84 142.563C402.84 143.724 402.459 144.62 401.697 145.253C400.936 145.886 399.852 146.202 398.445 146.202C397.115 146.202 396.058 145.897 395.273 145.288C394.487 144.673 394.027 143.788 393.893 142.634L396.406 142.414C396.564 143.604 397.241 144.198 398.437 144.198C399.028 144.198 399.488 144.052 399.816 143.759C400.145 143.466 400.309 143.018 400.309 142.414C400.309 141.863 400.109 141.441 399.711 141.148C399.313 140.855 398.721 140.709 397.936 140.709H397.074V138.714H397.883C398.592 138.714 399.125 138.57 399.482 138.283C399.84 137.99 400.019 137.574 400.019 137.035C400.019 136.525 399.875 136.127 399.588 135.84C399.307 135.547 398.894 135.4 398.349 135.4C397.839 135.4 397.426 135.541 397.109 135.822C396.799 136.104 396.62 136.502 396.573 137.018L394.104 136.842C394.232 135.775 394.675 134.94 395.431 134.337C396.187 133.733 397.174 133.432 398.393 133.432C399.688 133.432 400.698 133.725 401.425 134.311C402.157 134.891 402.523 135.696 402.523 136.728C402.523 137.501 402.295 138.137 401.838 138.635C401.387 139.133 400.733 139.464 399.878 139.628V139.663C400.827 139.774 401.557 140.088 402.066 140.604C402.582 141.113 402.84 141.767 402.84 142.563ZM412.936 138.494V146H410.633V133.616H414.105L416.319 140.542C416.419 140.929 416.522 141.318 416.627 141.711C416.733 142.098 416.835 142.484 416.935 142.871C416.999 142.648 417.061 142.429 417.119 142.212C417.178 141.989 417.236 141.767 417.295 141.544C417.359 141.321 417.424 141.102 417.488 140.885L419.765 133.616H423.219V146H420.916V138.494C420.916 138.324 420.922 137.984 420.934 137.475C420.951 136.959 420.975 136.399 421.004 135.796C420.799 136.581 420.617 137.249 420.459 137.8C420.307 138.351 420.181 138.781 420.081 139.092L417.849 146H416.003L413.771 139.092L412.83 135.796C412.865 136.476 412.892 137.041 412.909 137.492C412.927 137.938 412.936 138.271 412.936 138.494ZM428.68 133.616V146H426.087V133.616H428.68ZM433.86 138.696V146H431.557V133.616H434.519L439.994 143.231C439.889 142.341 439.836 141.535 439.836 140.814V133.616H442.139V146H439.098L433.701 136.464C433.754 136.927 433.792 137.346 433.816 137.721C433.845 138.09 433.86 138.415 433.86 138.696ZM455.123 142.432C455.123 143.645 454.672 144.573 453.77 145.218C452.873 145.856 451.555 146.176 449.815 146.176C446.68 146.176 444.855 145.042 444.339 142.774L446.844 142.361C447.014 143.018 447.345 143.495 447.837 143.794C448.329 144.087 449.012 144.233 449.885 144.233C450.793 144.233 451.473 144.096 451.924 143.82C452.375 143.545 452.601 143.132 452.601 142.581C452.601 142.229 452.498 141.939 452.293 141.711C452.088 141.482 451.795 141.292 451.414 141.14C451.227 141.063 450.951 140.981 450.588 140.894C450.225 140.8 449.774 140.697 449.235 140.586C448.614 140.439 448.127 140.316 447.776 140.217C447.424 140.111 447.143 140.012 446.932 139.918C446.721 139.818 446.516 139.71 446.317 139.593C445.877 139.329 445.534 138.978 445.288 138.538C445.042 138.099 444.919 137.551 444.919 136.895C444.919 135.775 445.338 134.92 446.176 134.328C447.02 133.73 448.244 133.432 449.85 133.432C451.385 133.432 452.536 133.672 453.304 134.152C454.077 134.633 454.575 135.427 454.798 136.534L452.284 136.877C452.156 136.344 451.892 135.942 451.493 135.673C451.101 135.403 450.535 135.269 449.797 135.269C449.012 135.269 448.423 135.392 448.031 135.638C447.638 135.884 447.442 136.253 447.442 136.745C447.442 137.067 447.524 137.331 447.688 137.536C447.858 137.741 448.107 137.917 448.435 138.063C448.745 138.204 449.41 138.383 450.43 138.6C451.022 138.729 451.531 138.852 451.959 138.969C452.387 139.08 452.73 139.188 452.988 139.294C453.245 139.405 453.474 139.522 453.673 139.646C453.878 139.769 454.054 139.9 454.2 140.041C454.499 140.328 454.728 140.671 454.886 141.069C455.044 141.462 455.123 141.916 455.123 142.432Z" fill="#3B2300"/>
<path d="M104.453 178.721C104.453 179.482 104.154 180.072 103.557 180.49C102.963 180.908 102.125 181.117 101.043 181.117C99.0312 181.117 97.8652 180.418 97.5449 179.02L98.6289 178.803C98.7539 179.299 99.0195 179.664 99.4258 179.898C99.832 180.129 100.385 180.244 101.084 180.244C101.807 180.244 102.363 180.121 102.754 179.875C103.148 179.625 103.346 179.26 103.346 178.779C103.346 178.51 103.283 178.291 103.158 178.123C103.037 177.955 102.865 177.816 102.643 177.707C102.42 177.598 102.154 177.506 101.846 177.432C101.537 177.357 101.195 177.277 100.82 177.191C100.387 177.094 100.023 176.998 99.7305 176.904C99.4414 176.811 99.2031 176.713 99.0156 176.611C98.8281 176.506 98.668 176.395 98.5352 176.277C98.3398 176.098 98.1895 175.889 98.084 175.65C97.9824 175.412 97.9316 175.139 97.9316 174.83C97.9316 174.123 98.2012 173.578 98.7402 173.195C99.2832 172.812 100.059 172.621 101.066 172.621C102.004 172.621 102.721 172.766 103.217 173.055C103.713 173.34 104.061 173.828 104.26 174.52L103.158 174.713C103.037 174.275 102.807 173.959 102.467 173.764C102.127 173.564 101.656 173.465 101.055 173.465C100.395 173.465 99.8906 173.574 99.543 173.793C99.1953 174.012 99.0215 174.338 99.0215 174.771C99.0215 175.025 99.0879 175.236 99.2207 175.404C99.3574 175.568 99.5527 175.707 99.8066 175.82C100.045 175.934 100.551 176.076 101.324 176.248C101.641 176.322 101.953 176.4 102.262 176.482C102.57 176.561 102.861 176.66 103.135 176.781C103.295 176.848 103.447 176.93 103.592 177.027C103.74 177.121 103.869 177.23 103.979 177.355C104.127 177.52 104.242 177.713 104.324 177.936C104.41 178.158 104.453 178.42 104.453 178.721ZM112.952 180.086V181H106.448V172.744H112.712V173.658H107.567V176.307H112.36V177.209H107.567V180.086H112.952ZM121.416 180.086V181H114.912V172.744H121.176V173.658H116.031V176.307H120.824V177.209H116.031V180.086H121.416ZM134.283 176.787C134.283 177.658 134.113 178.408 133.774 179.037C133.438 179.666 132.967 180.15 132.361 180.49C131.76 180.83 131.061 181 130.264 181H127.176V172.744H129.906C131.305 172.744 132.383 173.096 133.141 173.799C133.903 174.498 134.283 175.494 134.283 176.787ZM133.158 176.787C133.158 175.764 132.877 174.984 132.315 174.449C131.756 173.91 130.945 173.641 129.883 173.641H128.295V180.104H130.135C130.748 180.104 131.279 179.969 131.729 179.699C132.182 179.43 132.533 179.047 132.783 178.551C133.033 178.055 133.158 177.467 133.158 176.787ZM142.812 180.086V181H136.308V172.744H142.571V173.658H137.427V176.307H142.22V177.209H137.427V180.086H142.812ZM148.006 173.658V181H146.893V173.658H144.057V172.744H150.842V173.658H148.006ZM152.825 178.586L151.876 181H150.716L154.085 172.744H155.357L158.673 181H157.531L156.587 178.586H152.825ZM154.706 173.588C154.64 173.807 154.56 174.051 154.466 174.32C154.376 174.586 154.292 174.82 154.214 175.023L153.165 177.713H156.253L155.193 174.988C155.138 174.852 155.066 174.658 154.976 174.408C154.886 174.158 154.796 173.885 154.706 173.588ZM161.383 172.744V181H160.264V172.744H161.383ZM169.232 180.086V181H163.941V172.744H165.06V180.086H169.232ZM177.549 178.721C177.549 179.482 177.25 180.072 176.653 180.49C176.059 180.908 175.221 181.117 174.139 181.117C172.127 181.117 170.961 180.418 170.641 179.02L171.725 178.803C171.85 179.299 172.116 179.664 172.522 179.898C172.928 180.129 173.481 180.244 174.18 180.244C174.903 180.244 175.459 180.121 175.85 179.875C176.245 179.625 176.442 179.26 176.442 178.779C176.442 178.51 176.379 178.291 176.254 178.123C176.133 177.955 175.961 177.816 175.739 177.707C175.516 177.598 175.25 177.506 174.942 177.432C174.633 177.357 174.291 177.277 173.916 177.191C173.483 177.094 173.12 176.998 172.827 176.904C172.537 176.811 172.299 176.713 172.112 176.611C171.924 176.506 171.764 176.395 171.631 176.277C171.436 176.098 171.286 175.889 171.18 175.65C171.079 175.412 171.028 175.139 171.028 174.83C171.028 174.123 171.297 173.578 171.836 173.195C172.379 172.812 173.155 172.621 174.162 172.621C175.1 172.621 175.817 172.766 176.313 173.055C176.809 173.34 177.157 173.828 177.356 174.52L176.254 174.713C176.133 174.275 175.903 173.959 175.563 173.764C175.223 173.564 174.752 173.465 174.151 173.465C173.491 173.465 172.987 173.574 172.639 173.793C172.291 174.012 172.118 174.338 172.118 174.771C172.118 175.025 172.184 175.236 172.317 175.404C172.454 175.568 172.649 175.707 172.903 175.82C173.141 175.934 173.647 176.076 174.42 176.248C174.737 176.322 175.049 176.4 175.358 176.482C175.666 176.561 175.957 176.66 176.231 176.781C176.391 176.848 176.543 176.93 176.688 177.027C176.836 177.121 176.965 177.23 177.075 177.355C177.223 177.52 177.338 177.713 177.42 177.936C177.506 178.158 177.549 178.42 177.549 178.721Z" fill="#054DA7"/>
</g>
</g>
<defs>
<filter id="filter0_ddd_156_136149" x="0" y="0" width="512" height="220" filterUnits="userSpaceOnUse" color-interpolation-filters="sRGB">
<feFlood flood-opacity="0" result="BackgroundImageFix"/>
<feColorMatrix in="SourceAlpha" type="matrix" values="0 0 0 0 0 0 0 0 0 0 0 0 0 0 0 0 0 0 127 0" result="hardAlpha"/>
<feMorphology radius="2" operator="erode" in="SourceAlpha" result="effect1_dropShadow_156_136149"/>
<feOffset dy="3"/>
<feGaussianBlur stdDeviation="0.5"/>
<feComposite in2="hardAlpha" operator="out"/>
<feColorMatrix type="matrix" values="0 0 0 0 0 0 0 0 0 0 0 0 0 0 0 0 0 0 0.2 0"/>
<feBlend mode="normal" in2="BackgroundImageFix" result="effect1_dropShadow_156_136149"/>
<feColorMatrix in="SourceAlpha" type="matrix" values="0 0 0 0 0 0 0 0 0 0 0 0 0 0 0 0 0 0 127 0" result="hardAlpha"/>
<feOffset dy="2"/>
<feGaussianBlur stdDeviation="1"/>
<feComposite in2="hardAlpha" operator="out"/>
<feColorMatrix type="matrix" values="0 0 0 0 0 0 0 0 0 0 0 0 0 0 0 0 0 0 0.14 0"/>
<feBlend mode="normal" in2="effect1_dropShadow_156_136149" result="effect2_dropShadow_156_136149"/>
<feColorMatrix in="SourceAlpha" type="matrix" values="0 0 0 0 0 0 0 0 0 0 0 0 0 0 0 0 0 0 127 0" result="hardAlpha"/>
<feOffset dy="1"/>
<feGaussianBlur stdDeviation="2.5"/>
<feComposite in2="hardAlpha" operator="out"/>
<feColorMatrix type="matrix" values="0 0 0 0 0 0 0 0 0 0 0 0 0 0 0 0 0 0 0.12 0"/>
<feBlend mode="normal" in2="effect2_dropShadow_156_136149" result="effect3_dropShadow_156_136149"/>
<feBlend mode="normal" in="SourceGraphic" in2="effect3_dropShadow_156_136149" result="shape"/>
</filter>
<filter id="filter1_d_156_136149" x="36" y="115" width="441" height="84" filterUnits="userSpaceOnUse" color-interpolation-filters="sRGB">
<feFlood flood-opacity="0" result="BackgroundImageFix"/>
<feColorMatrix in="SourceAlpha" type="matrix" values="0 0 0 0 0 0 0 0 0 0 0 0 0 0 0 0 0 0 127 0" result="hardAlpha"/>
<feMorphology radius="1" operator="dilate" in="SourceAlpha" result="effect1_dropShadow_156_136149"/>
<feOffset/>
<feColorMatrix type="matrix" values="0 0 0 0 0.878431 0 0 0 0 0.878431 0 0 0 0 0.878431 0 0 0 1 0"/>
<feBlend mode="normal" in2="BackgroundImageFix" result="effect1_dropShadow_156_136149"/>
<feBlend mode="normal" in="SourceGraphic" in2="effect1_dropShadow_156_136149" result="shape"/>
</filter>
</defs>
</svg>
