<svg width="512" height="236" viewBox="0 0 512 236" fill="none" xmlns="http://www.w3.org/2000/svg">
<g filter="url(#filter0_ddd_156_136171)">
<rect x="5" y="4" width="502" height="226" rx="4" fill="white"/>
<rect width="136" height="34" transform="translate(37 20)" fill="white"/>
<path d="M42.1172 44.1953C40.6914 44.1953 39.5944 43.8861 38.8262 43.2676C38.0645 42.6491 37.5566 41.6497 37.3027 40.2695L40.1641 39.8496C40.2812 40.5592 40.4993 41.0866 40.8184 41.4316C41.1374 41.7702 41.5768 41.9395 42.1367 41.9395C42.7096 41.9395 43.1426 41.7474 43.4355 41.3633C43.735 40.9792 43.8848 40.429 43.8848 39.7129V32.4961H41.1406V30.2402H46.7559V39.6445C46.7559 41.0768 46.349 42.1934 45.5352 42.9941C44.7214 43.7949 43.582 44.1953 42.1172 44.1953ZM55.6534 44.1953C54.3903 44.1953 53.3226 43.9902 52.4502 43.5801C51.5778 43.1634 50.917 42.5579 50.4678 41.7637C50.0186 40.9629 49.794 39.9896 49.794 38.8438V30.2402H52.6748V38.6191C52.6748 39.7064 52.932 40.5332 53.4463 41.0996C53.9672 41.6595 54.7289 41.9395 55.7315 41.9395C56.7601 41.9395 57.5511 41.6465 58.1045 41.0605C58.6579 40.4681 58.9346 39.6217 58.9346 38.5215V30.2402H61.8155V38.6973C61.8155 39.8561 61.5713 40.8457 61.083 41.666C60.6013 42.4863 59.9014 43.1146 58.9834 43.5508C58.0655 43.9805 56.9554 44.1953 55.6534 44.1953ZM75.1075 41.7734V44H64.8438V30.2402H67.7247V41.7734H75.1075ZM82.4718 38.3555V44H79.6007V38.3555L74.6984 30.2402H77.7159L81.0167 36.0605L84.3566 30.2402H87.3741L82.4718 38.3555Z" fill="#00153C"/>
<path d="M106.303 37.1152C106.303 39.4395 105.902 41.2005 105.102 42.3984C104.307 43.5964 103.113 44.1953 101.518 44.1953C99.9421 44.1953 98.7604 43.6061 97.9727 42.4277C97.1849 41.2428 96.791 39.472 96.791 37.1152C96.791 34.6999 97.1654 32.916 97.9141 31.7637C98.6693 30.6113 99.8965 30.0352 101.596 30.0352C103.223 30.0352 104.415 30.6243 105.17 31.8027C105.925 32.9811 106.303 34.752 106.303 37.1152ZM103.549 37.1152C103.549 35.8783 103.493 34.9017 103.383 34.1855C103.272 33.4629 103.074 32.9486 102.787 32.6426C102.501 32.3366 102.097 32.1836 101.576 32.1836C101.023 32.1836 100.596 32.3398 100.297 32.6523C100.004 32.9583 99.8021 33.4727 99.6914 34.1953C99.5872 34.9115 99.5352 35.8848 99.5352 37.1152C99.5352 38.3457 99.5905 39.3223 99.7012 40.0449C99.8184 40.7611 100.02 41.2721 100.307 41.5781C100.6 41.8841 101.01 42.0371 101.537 42.0371C102.318 42.0371 102.849 41.6595 103.129 40.9043C103.409 40.1491 103.549 38.8861 103.549 37.1152ZM118.159 41.959V44H108.853V41.959H112.261V32.5742L108.96 34.6348V32.4766L112.407 30.2402H115.005V41.959H118.159Z" fill="#00153C"/>
<path d="M137.322 41.7441V44H127.693V42.0957C127.934 41.5684 128.24 41.054 128.611 40.5527C128.982 40.0449 129.425 39.5371 129.939 39.0293C130.46 38.515 131.053 37.9876 131.717 37.4473C132.199 37.0566 132.609 36.7018 132.947 36.3828C133.286 36.0573 133.549 35.7676 133.738 35.5137C133.934 35.2598 134.08 35.0091 134.178 34.7617C134.275 34.5078 134.324 34.2604 134.324 34.0195C134.324 33.4206 134.171 32.9714 133.865 32.6719C133.566 32.3724 133.117 32.2227 132.518 32.2227C131.932 32.2227 131.482 32.3822 131.17 32.7012C130.864 33.0137 130.665 33.4857 130.574 34.1172L127.811 33.9609C127.967 32.6849 128.442 31.7116 129.236 31.041C130.037 30.3704 131.124 30.0352 132.498 30.0352C133.982 30.0352 135.122 30.3737 135.916 31.0508C136.71 31.7279 137.107 32.6784 137.107 33.9023C137.107 34.5924 136.964 35.2109 136.678 35.7578C136.391 36.3047 136.027 36.8092 135.584 37.2715C135.219 37.6686 134.806 38.0462 134.344 38.4043C133.888 38.7624 133.445 39.1107 133.016 39.4492C132.56 39.8138 132.143 40.1816 131.766 40.5527C131.395 40.9238 131.118 41.321 130.936 41.7441H137.322ZM148.896 37.1152C148.896 39.4395 148.495 41.2005 147.694 42.3984C146.9 43.5964 145.705 44.1953 144.11 44.1953C142.535 44.1953 141.353 43.6061 140.565 42.4277C139.778 41.2428 139.384 39.472 139.384 37.1152C139.384 34.6999 139.758 32.916 140.507 31.7637C141.262 30.6113 142.489 30.0352 144.189 30.0352C145.816 30.0352 147.008 30.6243 147.763 31.8027C148.518 32.9811 148.896 34.752 148.896 37.1152ZM146.142 37.1152C146.142 35.8783 146.086 34.9017 145.976 34.1855C145.865 33.4629 145.666 32.9486 145.38 32.6426C145.093 32.3366 144.69 32.1836 144.169 32.1836C143.616 32.1836 143.189 32.3398 142.89 32.6523C142.597 32.9583 142.395 33.4727 142.284 34.1953C142.18 34.9115 142.128 35.8848 142.128 37.1152C142.128 38.3457 142.183 39.3223 142.294 40.0449C142.411 40.7611 142.613 41.2721 142.899 41.5781C143.192 41.8841 143.603 42.0371 144.13 42.0371C144.911 42.0371 145.442 41.6595 145.722 40.9043C146.002 40.1491 146.142 38.8861 146.142 37.1152ZM160.508 41.7441V44H150.879V42.0957C151.12 41.5684 151.426 41.054 151.797 40.5527C152.168 40.0449 152.611 39.5371 153.125 39.0293C153.646 38.515 154.238 37.9876 154.902 37.4473C155.384 37.0566 155.794 36.7018 156.133 36.3828C156.471 36.0573 156.735 35.7676 156.924 35.5137C157.119 35.2598 157.266 35.0091 157.363 34.7617C157.461 34.5078 157.51 34.2604 157.51 34.0195C157.51 33.4206 157.357 32.9714 157.051 32.6719C156.751 32.3724 156.302 32.2227 155.703 32.2227C155.117 32.2227 154.668 32.3822 154.356 32.7012C154.05 33.0137 153.851 33.4857 153.76 34.1172L150.996 33.9609C151.152 32.6849 151.628 31.7116 152.422 31.041C153.223 30.3704 154.31 30.0352 155.684 30.0352C157.168 30.0352 158.307 30.3737 159.102 31.0508C159.896 31.7279 160.293 32.6784 160.293 33.9023C160.293 34.5924 160.15 35.2109 159.863 35.7578C159.577 36.3047 159.212 36.8092 158.77 37.2715C158.405 37.6686 157.992 38.0462 157.529 38.4043C157.074 38.7624 156.631 39.1107 156.201 39.4492C155.746 39.8138 155.329 40.1816 154.951 40.5527C154.58 40.9238 154.303 41.321 154.121 41.7441H160.508ZM172.179 40.1816C172.179 41.4707 171.756 42.4668 170.909 43.1699C170.063 43.873 168.859 44.2246 167.296 44.2246C165.818 44.2246 164.643 43.8861 163.771 43.209C162.898 42.5254 162.387 41.5423 162.237 40.2598L165.03 40.0156C165.206 41.3372 165.958 41.998 167.286 41.998C167.944 41.998 168.455 41.8353 168.819 41.5098C169.184 41.1842 169.366 40.6862 169.366 40.0156C169.366 39.4036 169.145 38.9349 168.702 38.6094C168.26 38.2839 167.602 38.1211 166.73 38.1211H165.773V35.9043H166.671C167.459 35.9043 168.051 35.7448 168.448 35.4258C168.845 35.1003 169.044 34.638 169.044 34.0391C169.044 33.4727 168.885 33.0299 168.566 32.7109C168.253 32.3854 167.794 32.2227 167.189 32.2227C166.622 32.2227 166.163 32.3789 165.812 32.6914C165.467 33.0039 165.268 33.4466 165.216 34.0195L162.472 33.8242C162.615 32.6393 163.107 31.7116 163.946 31.041C164.786 30.3704 165.883 30.0352 167.237 30.0352C168.676 30.0352 169.799 30.3607 170.607 31.0117C171.42 31.6562 171.827 32.5514 171.827 33.6973C171.827 34.5566 171.573 35.263 171.066 35.8164C170.564 36.3698 169.838 36.7376 168.888 36.9199V36.959C169.943 37.0827 170.753 37.431 171.319 38.0039C171.892 38.5703 172.179 39.2962 172.179 40.1816Z" fill="#00153C"/>
<rect x="37" y="64" width="439" height="42" rx="4" fill="white"/>
<path d="M51.14 78.148H52.292V91H50.816V79.948C50.006 80.776 48.998 81.352 47.792 81.712V80.236C48.368 80.074 48.98 79.822 49.592 79.462C50.204 79.066 50.708 78.634 51.14 78.148ZM66.7548 77.896C68.1948 77.896 69.3468 78.22 70.1748 78.886C71.0388 79.57 71.5248 80.596 71.6508 81.946H70.1928C70.0308 81.01 69.6708 80.326 69.1128 79.876C68.5368 79.408 67.7268 79.192 66.6828 79.192C65.7288 79.192 64.9908 79.336 64.4508 79.66C63.8388 80.02 63.5328 80.56 63.5328 81.298C63.5328 81.946 63.8928 82.468 64.6308 82.864C64.9548 83.044 65.7468 83.314 66.9888 83.674C68.6808 84.178 69.7968 84.592 70.3368 84.916C71.3988 85.564 71.9388 86.464 71.9388 87.634C71.9388 88.75 71.4888 89.65 70.5888 90.298C69.6888 90.928 68.4828 91.252 66.9528 91.252C65.4408 91.252 64.2528 90.928 63.3888 90.28C62.3808 89.506 61.8228 88.336 61.7148 86.752H63.1728C63.2988 87.868 63.6948 88.696 64.3428 89.218C64.9368 89.686 65.8008 89.938 66.9528 89.938C67.9968 89.938 68.8608 89.74 69.5088 89.344C70.1568 88.948 70.4808 88.408 70.4808 87.724C70.4808 86.914 70.0488 86.284 69.2028 85.834C68.8428 85.618 67.9248 85.312 66.4848 84.898C64.9368 84.43 63.9468 84.07 63.5328 83.854C62.5428 83.278 62.0568 82.45 62.0568 81.37C62.0568 80.254 62.5248 79.372 63.4788 78.76C64.3248 78.184 65.4228 77.896 66.7548 77.896ZM74.2678 78.148H83.3758V79.426H75.7438V83.728H82.9438V85.006H75.7438V89.722H83.6818V91H74.2678V78.148ZM84.9827 78.148H86.6027L90.6167 89.398H90.6707L94.6847 78.148H96.3047L91.5527 91H89.7347L84.9827 78.148ZM98.1448 78.148H107.253V79.426H99.6208V83.728H106.821V85.006H99.6208V89.722H107.559V91H98.1448V78.148ZM110.066 78.148H115.61C116.888 78.148 117.896 78.436 118.634 79.03C119.39 79.642 119.786 80.542 119.786 81.73C119.786 82.45 119.588 83.08 119.192 83.638C118.76 84.214 118.184 84.574 117.446 84.754V84.79C118.67 85.06 119.354 85.834 119.498 87.13L119.696 89.11C119.768 89.902 120.002 90.532 120.38 91H118.778C118.49 90.568 118.31 90.01 118.256 89.29L118.094 87.58C118.022 86.824 117.752 86.266 117.284 85.942C116.852 85.618 116.24 85.474 115.43 85.474H111.542V91H110.066V78.148ZM111.542 79.426V84.196H115.43C116.366 84.196 117.104 83.962 117.608 83.53C118.058 83.116 118.292 82.54 118.292 81.784C118.292 80.992 118.058 80.398 117.626 80.02C117.158 79.624 116.42 79.426 115.43 79.426H111.542ZM122.69 78.148H131.798V79.426H124.166V83.728H131.366V85.006H124.166V89.722H132.104V91H122.69V78.148ZM141.173 78.148H142.631V91H141.173V78.148ZM150.116 77.896C151.556 77.896 152.708 78.22 153.536 78.886C154.4 79.57 154.886 80.596 155.012 81.946H153.554C153.392 81.01 153.032 80.326 152.474 79.876C151.898 79.408 151.088 79.192 150.044 79.192C149.09 79.192 148.352 79.336 147.812 79.66C147.2 80.02 146.894 80.56 146.894 81.298C146.894 81.946 147.254 82.468 147.992 82.864C148.316 83.044 149.108 83.314 150.35 83.674C152.042 84.178 153.158 84.592 153.698 84.916C154.76 85.564 155.3 86.464 155.3 87.634C155.3 88.75 154.85 89.65 153.95 90.298C153.05 90.928 151.844 91.252 150.314 91.252C148.802 91.252 147.614 90.928 146.75 90.28C145.742 89.506 145.184 88.336 145.076 86.752H146.534C146.66 87.868 147.056 88.696 147.704 89.218C148.298 89.686 149.162 89.938 150.314 89.938C151.358 89.938 152.222 89.74 152.87 89.344C153.518 88.948 153.842 88.408 153.842 87.724C153.842 86.914 153.41 86.284 152.564 85.834C152.204 85.618 151.286 85.312 149.846 84.898C148.298 84.43 147.308 84.07 146.894 83.854C145.904 83.278 145.418 82.45 145.418 81.37C145.418 80.254 145.886 79.372 146.84 78.76C147.686 78.184 148.784 77.896 150.116 77.896ZM161.949 77.896C163.389 77.896 164.541 78.22 165.369 78.886C166.233 79.57 166.719 80.596 166.845 81.946H165.387C165.225 81.01 164.865 80.326 164.307 79.876C163.731 79.408 162.921 79.192 161.877 79.192C160.923 79.192 160.185 79.336 159.645 79.66C159.033 80.02 158.727 80.56 158.727 81.298C158.727 81.946 159.087 82.468 159.825 82.864C160.149 83.044 160.941 83.314 162.183 83.674C163.875 84.178 164.991 84.592 165.531 84.916C166.593 85.564 167.133 86.464 167.133 87.634C167.133 88.75 166.683 89.65 165.783 90.298C164.883 90.928 163.677 91.252 162.147 91.252C160.635 91.252 159.447 90.928 158.583 90.28C157.575 89.506 157.017 88.336 156.909 86.752H158.367C158.493 87.868 158.889 88.696 159.537 89.218C160.131 89.686 160.995 89.938 162.147 89.938C163.191 89.938 164.055 89.74 164.703 89.344C165.351 88.948 165.675 88.408 165.675 87.724C165.675 86.914 165.243 86.284 164.397 85.834C164.037 85.618 163.119 85.312 161.679 84.898C160.131 84.43 159.141 84.07 158.727 83.854C157.737 83.278 157.251 82.45 157.251 81.37C157.251 80.254 157.719 79.372 158.673 78.76C159.519 78.184 160.617 77.896 161.949 77.896ZM169.462 78.148H170.938V86.086C170.938 87.346 171.208 88.3 171.784 88.948C172.378 89.614 173.314 89.956 174.592 89.956C175.852 89.956 176.788 89.614 177.4 88.948C177.958 88.3 178.246 87.346 178.246 86.086V78.148H179.722V86.068C179.722 87.742 179.29 89.02 178.444 89.902C177.562 90.802 176.284 91.252 174.592 91.252C172.9 91.252 171.622 90.802 170.758 89.92C169.894 89.02 169.462 87.742 169.462 86.068V78.148ZM182.772 78.148H191.88V79.426H184.248V83.728H191.448V85.006H184.248V89.722H192.186V91H182.772V78.148ZM201.147 78.148H206.691C207.969 78.148 208.977 78.436 209.715 79.03C210.471 79.642 210.867 80.542 210.867 81.73C210.867 82.45 210.669 83.08 210.273 83.638C209.841 84.214 209.265 84.574 208.527 84.754V84.79C209.751 85.06 210.435 85.834 210.579 87.13L210.777 89.11C210.849 89.902 211.083 90.532 211.461 91H209.859C209.571 90.568 209.391 90.01 209.337 89.29L209.175 87.58C209.103 86.824 208.833 86.266 208.365 85.942C207.933 85.618 207.321 85.474 206.511 85.474H202.623V91H201.147V78.148ZM202.623 79.426V84.196H206.511C207.447 84.196 208.185 83.962 208.689 83.53C209.139 83.116 209.373 82.54 209.373 81.784C209.373 80.992 209.139 80.398 208.707 80.02C208.239 79.624 207.501 79.426 206.511 79.426H202.623ZM213.771 78.148H222.879V79.426H215.247V83.728H222.447V85.006H215.247V89.722H223.185V91H213.771V78.148ZM231.236 77.896C232.658 77.896 233.864 78.274 234.836 79.03C235.808 79.786 236.384 80.812 236.564 82.09H235.142C234.962 81.154 234.494 80.434 233.774 79.93C233.072 79.444 232.226 79.21 231.218 79.21C229.724 79.21 228.572 79.732 227.762 80.776C227.006 81.748 226.628 83.026 226.628 84.628C226.628 86.23 226.988 87.508 227.744 88.444C228.536 89.434 229.67 89.938 231.182 89.938C232.208 89.938 233.072 89.668 233.792 89.128C234.548 88.552 235.07 87.706 235.322 86.59H236.744C236.456 88.084 235.79 89.254 234.728 90.082C233.738 90.856 232.55 91.252 231.182 91.252C229.184 91.252 227.654 90.586 226.592 89.272C225.62 88.084 225.152 86.536 225.152 84.628C225.152 82.72 225.638 81.154 226.628 79.93C227.708 78.562 229.256 77.896 231.236 77.896ZM244.864 77.896C246.772 77.896 248.302 78.526 249.418 79.822C250.462 81.046 251.002 82.63 251.002 84.592C251.002 86.536 250.462 88.102 249.418 89.326C248.302 90.604 246.772 91.252 244.846 91.252C242.92 91.252 241.408 90.604 240.292 89.326C239.23 88.102 238.708 86.518 238.708 84.592C238.708 82.648 239.23 81.064 240.292 79.84C241.408 78.544 242.92 77.896 244.864 77.896ZM244.864 79.21C243.388 79.21 242.218 79.714 241.372 80.74C240.58 81.712 240.184 82.99 240.184 84.592C240.184 86.176 240.58 87.454 241.372 88.426C242.2 89.434 243.37 89.938 244.846 89.938C246.322 89.938 247.492 89.434 248.32 88.462C249.112 87.49 249.526 86.212 249.526 84.592C249.526 82.954 249.112 81.658 248.32 80.686C247.492 79.696 246.34 79.21 244.864 79.21ZM253.507 78.148H259.051C260.329 78.148 261.337 78.436 262.075 79.03C262.831 79.642 263.227 80.542 263.227 81.73C263.227 82.45 263.029 83.08 262.633 83.638C262.201 84.214 261.625 84.574 260.887 84.754V84.79C262.111 85.06 262.795 85.834 262.939 87.13L263.137 89.11C263.209 89.902 263.443 90.532 263.821 91H262.219C261.931 90.568 261.751 90.01 261.697 89.29L261.535 87.58C261.463 86.824 261.193 86.266 260.725 85.942C260.293 85.618 259.681 85.474 258.871 85.474H254.983V91H253.507V78.148ZM254.983 79.426V84.196H258.871C259.807 84.196 260.545 83.962 261.049 83.53C261.499 83.116 261.733 82.54 261.733 81.784C261.733 80.992 261.499 80.398 261.067 80.02C260.599 79.624 259.861 79.426 258.871 79.426H254.983ZM266.131 78.148H270.739C272.773 78.148 274.303 78.724 275.347 79.912C276.301 80.992 276.787 82.558 276.787 84.574C276.787 86.554 276.265 88.12 275.239 89.236C274.159 90.406 272.611 91 270.595 91H266.131V78.148ZM267.607 79.426V89.722H270.343C272.017 89.722 273.277 89.272 274.123 88.39C274.915 87.526 275.329 86.248 275.329 84.574C275.329 82.846 274.951 81.568 274.213 80.74C273.421 79.858 272.197 79.426 270.505 79.426H267.607ZM279.3 78.148H288.408V79.426H280.776V83.728H287.976V85.006H280.776V89.722H288.714V91H279.3V78.148ZM291.221 78.148H295.829C297.863 78.148 299.393 78.724 300.437 79.912C301.391 80.992 301.877 82.558 301.877 84.574C301.877 86.554 301.355 88.12 300.329 89.236C299.249 90.406 297.701 91 295.685 91H291.221V78.148ZM292.697 79.426V89.722H295.433C297.107 89.722 298.367 89.272 299.213 88.39C300.005 87.526 300.419 86.248 300.419 84.574C300.419 82.846 300.041 81.568 299.303 80.74C298.511 79.858 297.287 79.426 295.595 79.426H292.697ZM316.46 77.896C318.368 77.896 319.898 78.526 321.014 79.822C322.058 81.046 322.598 82.63 322.598 84.592C322.598 86.536 322.058 88.102 321.014 89.326C319.898 90.604 318.368 91.252 316.442 91.252C314.516 91.252 313.004 90.604 311.888 89.326C310.826 88.102 310.304 86.518 310.304 84.592C310.304 82.648 310.826 81.064 311.888 79.84C313.004 78.544 314.516 77.896 316.46 77.896ZM316.46 79.21C314.984 79.21 313.814 79.714 312.968 80.74C312.176 81.712 311.78 82.99 311.78 84.592C311.78 86.176 312.176 87.454 312.968 88.426C313.796 89.434 314.966 89.938 316.442 89.938C317.918 89.938 319.088 89.434 319.916 88.462C320.708 87.49 321.122 86.212 321.122 84.592C321.122 82.954 320.708 81.658 319.916 80.686C319.088 79.696 317.936 79.21 316.46 79.21ZM325.103 78.148H326.651L333.923 88.606H333.977V78.148H335.453V91H333.941L326.633 80.434H326.579V91H325.103V78.148ZM343.964 78.148H354.494V79.426H349.958V91H348.5V79.426H343.964V78.148ZM356.559 78.148H358.035V83.728H365.469V78.148H366.945V91H365.469V85.006H358.035V91H356.559V78.148ZM370.082 78.148H371.54V91H370.082V78.148ZM379.025 77.896C380.465 77.896 381.617 78.22 382.445 78.886C383.309 79.57 383.795 80.596 383.921 81.946H382.463C382.301 81.01 381.941 80.326 381.383 79.876C380.807 79.408 379.997 79.192 378.953 79.192C377.999 79.192 377.261 79.336 376.721 79.66C376.109 80.02 375.803 80.56 375.803 81.298C375.803 81.946 376.163 82.468 376.901 82.864C377.225 83.044 378.017 83.314 379.259 83.674C380.951 84.178 382.067 84.592 382.607 84.916C383.669 85.564 384.209 86.464 384.209 87.634C384.209 88.75 383.759 89.65 382.859 90.298C381.959 90.928 380.753 91.252 379.223 91.252C377.711 91.252 376.523 90.928 375.659 90.28C374.651 89.506 374.093 88.336 373.985 86.752H375.443C375.569 87.868 375.965 88.696 376.613 89.218C377.207 89.686 378.071 89.938 379.223 89.938C380.267 89.938 381.131 89.74 381.779 89.344C382.427 88.948 382.751 88.408 382.751 87.724C382.751 86.914 382.319 86.284 381.473 85.834C381.113 85.618 380.195 85.312 378.755 84.898C377.207 84.43 376.217 84.07 375.803 83.854C374.813 83.278 374.327 82.45 374.327 81.37C374.327 80.254 374.795 79.372 375.749 78.76C376.595 78.184 377.693 77.896 379.025 77.896ZM392.993 78.148H397.601C399.635 78.148 401.165 78.724 402.209 79.912C403.163 80.992 403.649 82.558 403.649 84.574C403.649 86.554 403.127 88.12 402.101 89.236C401.021 90.406 399.473 91 397.457 91H392.993V78.148ZM394.469 79.426V89.722H397.205C398.879 89.722 400.139 89.272 400.985 88.39C401.777 87.526 402.191 86.248 402.191 84.574C402.191 82.846 401.813 81.568 401.075 80.74C400.283 79.858 399.059 79.426 397.367 79.426H394.469ZM409.924 78.148H411.634L416.692 91H415.09L413.722 87.4H407.818L406.45 91H404.866L409.924 78.148ZM408.286 86.158H413.254L410.824 79.732H410.752L408.286 86.158ZM417.246 78.148H419.028L423.114 84.412L427.2 78.148H428.982L423.852 85.78V91H422.376V85.78L417.246 78.148ZM431.91 88.858C432.198 88.858 432.468 88.966 432.684 89.182C432.9 89.398 433.008 89.65 433.008 89.974C433.008 90.28 432.9 90.532 432.684 90.748C432.468 90.964 432.198 91.072 431.91 91.072C431.586 91.072 431.334 90.964 431.136 90.748C430.92 90.532 430.812 90.28 430.812 89.974C430.812 89.65 430.92 89.398 431.136 89.182C431.334 88.966 431.586 88.858 431.91 88.858Z" fill="#39000D"/>
<g filter="url(#filter1_d_156_136171)">
<rect x="37" y="116" width="439" height="98" rx="4" fill="#F7F7F8"/>
<path d="M70.9999 142.167C71.6416 142.167 72.1666 142.692 72.1666 143.333V148C72.1666 148.642 71.6416 149.167 70.9999 149.167C70.3583 149.167 69.8333 148.642 69.8333 148V143.333C69.8333 142.692 70.3583 142.167 70.9999 142.167ZM70.9883 136.333C64.5483 136.333 59.3333 141.56 59.3333 148C59.3333 154.44 64.5483 159.667 70.9883 159.667C77.4399 159.667 82.6666 154.44 82.6666 148C82.6666 141.56 77.4399 136.333 70.9883 136.333ZM70.9999 157.333C65.8433 157.333 61.6666 153.157 61.6666 148C61.6666 142.843 65.8433 138.667 70.9999 138.667C76.1566 138.667 80.3333 142.843 80.3333 148C80.3333 153.157 76.1566 157.333 70.9999 157.333ZM72.1666 153.833H69.8333V151.5H72.1666V153.833Z" fill="#A10E25"/>
<path d="M107.182 139.467C107.182 140.592 106.76 141.462 105.916 142.077C105.072 142.692 103.9 143 102.4 143H96.2041V130.616H101.873C103.385 130.616 104.527 130.88 105.301 131.407C106.08 131.929 106.47 132.702 106.47 133.728C106.47 134.431 106.273 135.025 105.881 135.512C105.494 135.992 104.902 136.317 104.105 136.487C105.107 136.604 105.869 136.921 106.391 137.437C106.918 137.946 107.182 138.623 107.182 139.467ZM103.859 134.079C103.859 133.522 103.681 133.127 103.323 132.893C102.972 132.658 102.447 132.541 101.75 132.541H98.7969V135.608H101.768C102.5 135.608 103.03 135.482 103.358 135.23C103.692 134.973 103.859 134.589 103.859 134.079ZM104.58 139.265C104.58 138.104 103.748 137.524 102.084 137.524H98.7969V141.075H102.181C103.013 141.075 103.619 140.926 104 140.627C104.387 140.322 104.58 139.868 104.58 139.265ZM112.607 139.836L111.509 143H108.916L113.434 130.616H116.492L120.992 143H118.426L117.327 139.836H112.607ZM114.963 132.523C114.904 132.758 114.822 133.039 114.717 133.367C114.611 133.695 114.535 133.927 114.488 134.062L113.188 137.885H116.747L115.411 133.982C115.329 133.742 115.253 133.499 115.183 133.253C115.112 133.007 115.039 132.764 114.963 132.523ZM125.442 135.696V143H123.14V130.616H126.102L131.577 140.231C131.472 139.341 131.419 138.535 131.419 137.814V130.616H133.722V143H130.681L125.284 133.464C125.337 133.927 125.375 134.346 125.399 134.721C125.428 135.09 125.442 135.415 125.442 135.696ZM147.647 136.716C147.647 138.04 147.389 139.171 146.873 140.108C146.363 141.046 145.654 141.764 144.746 142.262C143.844 142.754 142.801 143 141.617 143H136.608V130.616H141.09C143.176 130.616 144.79 131.144 145.933 132.198C147.075 133.247 147.647 134.753 147.647 136.716ZM145.036 136.716C145.036 135.386 144.691 134.372 143.999 133.675C143.308 132.972 142.32 132.62 141.037 132.62H139.2V140.996H141.398C142.142 140.996 142.783 140.823 143.322 140.478C143.867 140.126 144.289 139.631 144.588 138.992C144.887 138.354 145.036 137.595 145.036 136.716ZM156.861 135.67L155.155 143H152.079L148.889 130.616H151.517L153.239 138.201C153.316 138.523 153.398 138.896 153.486 139.317C153.579 139.739 153.655 140.149 153.714 140.548C153.773 140.272 153.825 140.006 153.872 139.748C153.925 139.484 153.978 139.227 154.03 138.975C154.083 138.717 154.139 138.462 154.197 138.21L155.946 130.616H158.847L160.578 137.938C160.637 138.184 160.707 138.541 160.789 139.01C160.877 139.479 160.959 139.991 161.035 140.548C161.111 140.208 161.179 139.909 161.237 139.651C161.302 139.388 161.363 139.127 161.422 138.869C161.486 138.605 161.554 138.307 161.624 137.973L163.215 130.616H165.843L162.644 143H159.568L157.889 135.837C157.789 135.415 157.695 134.984 157.608 134.545C157.52 134.105 157.441 133.654 157.37 133.191C157.323 133.443 157.265 133.739 157.194 134.079C157.124 134.419 157.057 134.735 156.992 135.028C156.934 135.321 156.89 135.535 156.861 135.67ZM170.126 130.616V143H167.533V130.616H170.126ZM184.042 136.716C184.042 138.04 183.784 139.171 183.269 140.108C182.759 141.046 182.05 141.764 181.142 142.262C180.239 142.754 179.197 143 178.013 143H173.003V130.616H177.486C179.572 130.616 181.186 131.144 182.328 132.198C183.471 133.247 184.042 134.753 184.042 136.716ZM181.432 136.716C181.432 135.386 181.086 134.372 180.395 133.675C179.703 132.972 178.716 132.62 177.433 132.62H175.596V140.996H177.793C178.537 140.996 179.179 140.823 179.718 140.478C180.263 140.126 180.685 139.631 180.984 138.992C181.282 138.354 181.432 137.595 181.432 136.716ZM192.061 132.62V143H189.468V132.62H185.469V130.616H196.069V132.62H192.061ZM200.528 137.691V143H197.935V130.616H200.528V135.547H205.924V130.616H208.517V143H205.924V137.691H200.528ZM101.354 165.176C100.218 165.176 99.2568 164.991 98.4717 164.622C97.6865 164.247 97.0918 163.702 96.6875 162.987C96.2832 162.267 96.0811 161.391 96.0811 160.359V152.616H98.6738V160.157C98.6738 161.136 98.9053 161.88 99.3682 162.39C99.8369 162.894 100.522 163.146 101.425 163.146C102.351 163.146 103.062 162.882 103.561 162.354C104.059 161.821 104.308 161.06 104.308 160.069V152.616H106.9V160.228C106.9 161.271 106.681 162.161 106.241 162.899C105.808 163.638 105.178 164.203 104.352 164.596C103.525 164.982 102.526 165.176 101.354 165.176ZM119.771 161.432C119.771 162.645 119.319 163.573 118.417 164.218C117.521 164.856 116.202 165.176 114.462 165.176C111.327 165.176 109.502 164.042 108.986 161.774L111.491 161.361C111.661 162.018 111.992 162.495 112.484 162.794C112.977 163.087 113.659 163.233 114.532 163.233C115.44 163.233 116.12 163.096 116.571 162.82C117.023 162.545 117.248 162.132 117.248 161.581C117.248 161.229 117.146 160.939 116.94 160.711C116.735 160.482 116.442 160.292 116.062 160.14C115.874 160.063 115.599 159.981 115.235 159.894C114.872 159.8 114.421 159.697 113.882 159.586C113.261 159.439 112.774 159.316 112.423 159.217C112.071 159.111 111.79 159.012 111.579 158.918C111.368 158.818 111.163 158.71 110.964 158.593C110.524 158.329 110.182 157.978 109.936 157.538C109.689 157.099 109.566 156.551 109.566 155.895C109.566 154.775 109.985 153.92 110.823 153.328C111.667 152.73 112.892 152.432 114.497 152.432C116.032 152.432 117.184 152.672 117.951 153.152C118.725 153.633 119.223 154.427 119.445 155.534L116.932 155.877C116.803 155.344 116.539 154.942 116.141 154.673C115.748 154.403 115.183 154.269 114.444 154.269C113.659 154.269 113.07 154.392 112.678 154.638C112.285 154.884 112.089 155.253 112.089 155.745C112.089 156.067 112.171 156.331 112.335 156.536C112.505 156.741 112.754 156.917 113.082 157.063C113.393 157.204 114.058 157.383 115.077 157.6C115.669 157.729 116.179 157.852 116.606 157.969C117.034 158.08 117.377 158.188 117.635 158.294C117.893 158.405 118.121 158.522 118.32 158.646C118.525 158.769 118.701 158.9 118.848 159.041C119.147 159.328 119.375 159.671 119.533 160.069C119.691 160.462 119.771 160.916 119.771 161.432ZM125.073 161.836L123.975 165H121.382L125.899 152.616H128.958L133.458 165H130.892L129.793 161.836H125.073ZM127.429 154.523C127.37 154.758 127.288 155.039 127.183 155.367C127.077 155.695 127.001 155.927 126.954 156.062L125.653 159.885H129.213L127.877 155.982C127.795 155.742 127.719 155.499 127.649 155.253C127.578 155.007 127.505 154.764 127.429 154.523ZM141.485 163.146C142.159 163.146 142.813 163.049 143.445 162.855C144.078 162.656 144.568 162.404 144.913 162.1V160.386H141.89V158.47H147.286V163.022C146.63 163.696 145.775 164.224 144.72 164.604C143.671 164.985 142.569 165.176 141.415 165.176C140.073 165.176 138.934 164.927 137.996 164.429C137.065 163.925 136.356 163.195 135.869 162.24C135.383 161.279 135.14 160.116 135.14 158.751C135.14 156.712 135.685 155.15 136.775 154.066C137.864 152.977 139.432 152.432 141.477 152.432C142.93 152.432 144.119 152.701 145.045 153.24C145.971 153.773 146.63 154.579 147.023 155.657L144.632 156.378C144.374 155.751 143.97 155.276 143.419 154.954C142.868 154.632 142.221 154.471 141.477 154.471C140.258 154.471 139.332 154.84 138.699 155.578C138.067 156.316 137.75 157.374 137.75 158.751C137.75 160.151 138.075 161.235 138.726 162.003C139.382 162.765 140.302 163.146 141.485 163.146ZM160.174 162.996V165H150.075V152.616H159.814V154.62H152.668V157.731H159.278V159.735H152.668V162.996H160.174Z" fill="#A10E25"/>
<path d="M302.51 152.163V154H294.134V152.163H297.201V143.717L294.23 145.571V143.629L297.333 141.616H299.671V152.163H302.51ZM312.746 148.691V154H310.153V141.616H312.746V146.547H318.143V141.616H320.735V154H318.143V148.691H312.746ZM326.214 149.298V154H323.621V141.616H329.809C331.285 141.616 332.425 141.936 333.228 142.574C334.03 143.207 334.432 144.118 334.432 145.308C334.432 146.175 334.186 146.925 333.693 147.558C333.201 148.185 332.536 148.598 331.698 148.797L335.047 154H332.129L329.255 149.298H326.214ZM331.821 145.413C331.821 144.821 331.631 144.376 331.25 144.077C330.869 143.778 330.298 143.629 329.536 143.629H326.214V147.285H329.607C330.333 147.285 330.884 147.121 331.259 146.793C331.634 146.465 331.821 146.005 331.821 145.413Z" fill="#39000D"/>
<path d="M392.29 151.97V154H383.624V152.286C383.841 151.812 384.116 151.349 384.45 150.897C384.784 150.44 385.183 149.983 385.646 149.526C386.114 149.063 386.647 148.589 387.245 148.103C387.679 147.751 388.048 147.432 388.353 147.145C388.657 146.852 388.895 146.591 389.064 146.362C389.24 146.134 389.372 145.908 389.46 145.686C389.548 145.457 389.592 145.234 389.592 145.018C389.592 144.479 389.454 144.074 389.179 143.805C388.909 143.535 388.505 143.4 387.966 143.4C387.438 143.4 387.034 143.544 386.753 143.831C386.478 144.112 386.299 144.537 386.217 145.105L383.729 144.965C383.87 143.816 384.298 142.94 385.013 142.337C385.733 141.733 386.712 141.432 387.948 141.432C389.284 141.432 390.31 141.736 391.024 142.346C391.739 142.955 392.097 143.811 392.097 144.912C392.097 145.533 391.968 146.09 391.71 146.582C391.452 147.074 391.124 147.528 390.726 147.944C390.397 148.302 390.025 148.642 389.609 148.964C389.199 149.286 388.801 149.6 388.414 149.904C388.004 150.232 387.629 150.563 387.289 150.897C386.955 151.231 386.706 151.589 386.542 151.97H392.29ZM402.84 150.563C402.84 151.724 402.459 152.62 401.697 153.253C400.936 153.886 399.852 154.202 398.445 154.202C397.115 154.202 396.058 153.897 395.273 153.288C394.487 152.673 394.027 151.788 393.893 150.634L396.406 150.414C396.564 151.604 397.241 152.198 398.437 152.198C399.028 152.198 399.488 152.052 399.816 151.759C400.145 151.466 400.309 151.018 400.309 150.414C400.309 149.863 400.109 149.441 399.711 149.148C399.313 148.855 398.721 148.709 397.936 148.709H397.074V146.714H397.883C398.592 146.714 399.125 146.57 399.482 146.283C399.84 145.99 400.019 145.574 400.019 145.035C400.019 144.525 399.875 144.127 399.588 143.84C399.307 143.547 398.894 143.4 398.349 143.4C397.839 143.4 397.426 143.541 397.109 143.822C396.799 144.104 396.62 144.502 396.573 145.018L394.104 144.842C394.232 143.775 394.675 142.94 395.431 142.337C396.187 141.733 397.174 141.432 398.393 141.432C399.688 141.432 400.698 141.725 401.425 142.311C402.157 142.891 402.523 143.696 402.523 144.728C402.523 145.501 402.295 146.137 401.838 146.635C401.387 147.133 400.733 147.464 399.878 147.628V147.663C400.827 147.774 401.557 148.088 402.066 148.604C402.582 149.113 402.84 149.767 402.84 150.563ZM412.936 146.494V154H410.633V141.616H414.105L416.319 148.542C416.419 148.929 416.522 149.318 416.627 149.711C416.733 150.098 416.835 150.484 416.935 150.871C416.999 150.648 417.061 150.429 417.119 150.212C417.178 149.989 417.236 149.767 417.295 149.544C417.359 149.321 417.424 149.102 417.488 148.885L419.765 141.616H423.219V154H420.916V146.494C420.916 146.324 420.922 145.984 420.934 145.475C420.951 144.959 420.975 144.399 421.004 143.796C420.799 144.581 420.617 145.249 420.459 145.8C420.307 146.351 420.181 146.781 420.081 147.092L417.849 154H416.003L413.771 147.092L412.83 143.796C412.865 144.476 412.892 145.041 412.909 145.492C412.927 145.938 412.936 146.271 412.936 146.494ZM428.68 141.616V154H426.087V141.616H428.68ZM433.86 146.696V154H431.557V141.616H434.519L439.994 151.231C439.889 150.341 439.836 149.535 439.836 148.814V141.616H442.139V154H439.098L433.701 144.464C433.754 144.927 433.792 145.346 433.816 145.721C433.845 146.09 433.86 146.415 433.86 146.696ZM455.123 150.432C455.123 151.645 454.672 152.573 453.77 153.218C452.873 153.856 451.555 154.176 449.815 154.176C446.68 154.176 444.855 153.042 444.339 150.774L446.844 150.361C447.014 151.018 447.345 151.495 447.837 151.794C448.329 152.087 449.012 152.233 449.885 152.233C450.793 152.233 451.473 152.096 451.924 151.82C452.375 151.545 452.601 151.132 452.601 150.581C452.601 150.229 452.498 149.939 452.293 149.711C452.088 149.482 451.795 149.292 451.414 149.14C451.227 149.063 450.951 148.981 450.588 148.894C450.225 148.8 449.774 148.697 449.235 148.586C448.614 148.439 448.127 148.316 447.776 148.217C447.424 148.111 447.143 148.012 446.932 147.918C446.721 147.818 446.516 147.71 446.317 147.593C445.877 147.329 445.534 146.978 445.288 146.538C445.042 146.099 444.919 145.551 444.919 144.895C444.919 143.775 445.338 142.92 446.176 142.328C447.02 141.73 448.244 141.432 449.85 141.432C451.385 141.432 452.536 141.672 453.304 142.152C454.077 142.633 454.575 143.427 454.798 144.534L452.284 144.877C452.156 144.344 451.892 143.942 451.493 143.673C451.101 143.403 450.535 143.269 449.797 143.269C449.012 143.269 448.423 143.392 448.031 143.638C447.638 143.884 447.442 144.253 447.442 144.745C447.442 145.067 447.524 145.331 447.688 145.536C447.858 145.741 448.107 145.917 448.435 146.063C448.745 146.204 449.41 146.383 450.43 146.6C451.022 146.729 451.531 146.852 451.959 146.969C452.387 147.08 452.73 147.188 452.988 147.294C453.245 147.405 453.474 147.522 453.673 147.646C453.878 147.769 454.054 147.9 454.2 148.041C454.499 148.328 454.728 148.671 454.886 149.069C455.044 149.462 455.123 149.916 455.123 150.432Z" fill="#39000D"/>
<path d="M104.453 194.721C104.453 195.482 104.154 196.072 103.557 196.49C102.963 196.908 102.125 197.117 101.043 197.117C99.0312 197.117 97.8652 196.418 97.5449 195.02L98.6289 194.803C98.7539 195.299 99.0195 195.664 99.4258 195.898C99.832 196.129 100.385 196.244 101.084 196.244C101.807 196.244 102.363 196.121 102.754 195.875C103.148 195.625 103.346 195.26 103.346 194.779C103.346 194.51 103.283 194.291 103.158 194.123C103.037 193.955 102.865 193.816 102.643 193.707C102.42 193.598 102.154 193.506 101.846 193.432C101.537 193.357 101.195 193.277 100.82 193.191C100.387 193.094 100.023 192.998 99.7305 192.904C99.4414 192.811 99.2031 192.713 99.0156 192.611C98.8281 192.506 98.668 192.395 98.5352 192.277C98.3398 192.098 98.1895 191.889 98.084 191.65C97.9824 191.412 97.9316 191.139 97.9316 190.83C97.9316 190.123 98.2012 189.578 98.7402 189.195C99.2832 188.812 100.059 188.621 101.066 188.621C102.004 188.621 102.721 188.766 103.217 189.055C103.713 189.34 104.061 189.828 104.26 190.52L103.158 190.713C103.037 190.275 102.807 189.959 102.467 189.764C102.127 189.564 101.656 189.465 101.055 189.465C100.395 189.465 99.8906 189.574 99.543 189.793C99.1953 190.012 99.0215 190.338 99.0215 190.771C99.0215 191.025 99.0879 191.236 99.2207 191.404C99.3574 191.568 99.5527 191.707 99.8066 191.82C100.045 191.934 100.551 192.076 101.324 192.248C101.641 192.322 101.953 192.4 102.262 192.482C102.57 192.561 102.861 192.66 103.135 192.781C103.295 192.848 103.447 192.93 103.592 193.027C103.74 193.121 103.869 193.23 103.979 193.355C104.127 193.52 104.242 193.713 104.324 193.936C104.41 194.158 104.453 194.42 104.453 194.721ZM112.952 196.086V197H106.448V188.744H112.712V189.658H107.567V192.307H112.36V193.209H107.567V196.086H112.952ZM121.416 196.086V197H114.912V188.744H121.176V189.658H116.031V192.307H120.824V193.209H116.031V196.086H121.416ZM134.283 192.787C134.283 193.658 134.113 194.408 133.774 195.037C133.438 195.666 132.967 196.15 132.361 196.49C131.76 196.83 131.061 197 130.264 197H127.176V188.744H129.906C131.305 188.744 132.383 189.096 133.141 189.799C133.903 190.498 134.283 191.494 134.283 192.787ZM133.158 192.787C133.158 191.764 132.877 190.984 132.315 190.449C131.756 189.91 130.945 189.641 129.883 189.641H128.295V196.104H130.135C130.748 196.104 131.279 195.969 131.729 195.699C132.182 195.43 132.533 195.047 132.783 194.551C133.033 194.055 133.158 193.467 133.158 192.787ZM142.812 196.086V197H136.308V188.744H142.571V189.658H137.427V192.307H142.22V193.209H137.427V196.086H142.812ZM148.006 189.658V197H146.893V189.658H144.057V188.744H150.842V189.658H148.006ZM152.825 194.586L151.876 197H150.716L154.085 188.744H155.357L158.673 197H157.531L156.587 194.586H152.825ZM154.706 189.588C154.64 189.807 154.56 190.051 154.466 190.32C154.376 190.586 154.292 190.82 154.214 191.023L153.165 193.713H156.253L155.193 190.988C155.138 190.852 155.066 190.658 154.976 190.408C154.886 190.158 154.796 189.885 154.706 189.588ZM161.383 188.744V197H160.264V188.744H161.383ZM169.232 196.086V197H163.941V188.744H165.06V196.086H169.232ZM177.549 194.721C177.549 195.482 177.25 196.072 176.653 196.49C176.059 196.908 175.221 197.117 174.139 197.117C172.127 197.117 170.961 196.418 170.641 195.02L171.725 194.803C171.85 195.299 172.116 195.664 172.522 195.898C172.928 196.129 173.481 196.244 174.18 196.244C174.903 196.244 175.459 196.121 175.85 195.875C176.245 195.625 176.442 195.26 176.442 194.779C176.442 194.51 176.379 194.291 176.254 194.123C176.133 193.955 175.961 193.816 175.739 193.707C175.516 193.598 175.25 193.506 174.942 193.432C174.633 193.357 174.291 193.277 173.916 193.191C173.483 193.094 173.12 192.998 172.827 192.904C172.537 192.811 172.299 192.713 172.112 192.611C171.924 192.506 171.764 192.395 171.631 192.277C171.436 192.098 171.286 191.889 171.18 191.65C171.079 191.412 171.028 191.139 171.028 190.83C171.028 190.123 171.297 189.578 171.836 189.195C172.379 188.812 173.155 188.621 174.162 188.621C175.1 188.621 175.817 188.766 176.313 189.055C176.809 189.34 177.157 189.828 177.356 190.52L176.254 190.713C176.133 190.275 175.903 189.959 175.563 189.764C175.223 189.564 174.752 189.465 174.151 189.465C173.491 189.465 172.987 189.574 172.639 189.793C172.291 190.012 172.118 190.338 172.118 190.771C172.118 191.025 172.184 191.236 172.317 191.404C172.454 191.568 172.649 191.707 172.903 191.82C173.141 191.934 173.647 192.076 174.42 192.248C174.737 192.322 175.049 192.4 175.358 192.482C175.666 192.561 175.957 192.66 176.231 192.781C176.391 192.848 176.543 192.93 176.688 193.027C176.836 193.121 176.965 193.23 177.075 193.355C177.223 193.52 177.338 193.713 177.42 193.936C177.506 194.158 177.549 194.42 177.549 194.721Z" fill="#054DA7"/>
</g>
</g>
<defs>
<filter id="filter0_ddd_156_136171" x="0" y="0" width="512" height="236" filterUnits="userSpaceOnUse" color-interpolation-filters="sRGB">
<feFlood flood-opacity="0" result="BackgroundImageFix"/>
<feColorMatrix in="SourceAlpha" type="matrix" values="0 0 0 0 0 0 0 0 0 0 0 0 0 0 0 0 0 0 127 0" result="hardAlpha"/>
<feMorphology radius="2" operator="erode" in="SourceAlpha" result="effect1_dropShadow_156_136171"/>
<feOffset dy="3"/>
<feGaussianBlur stdDeviation="0.5"/>
<feComposite in2="hardAlpha" operator="out"/>
<feColorMatrix type="matrix" values="0 0 0 0 0 0 0 0 0 0 0 0 0 0 0 0 0 0 0.2 0"/>
<feBlend mode="normal" in2="BackgroundImageFix" result="effect1_dropShadow_156_136171"/>
<feColorMatrix in="SourceAlpha" type="matrix" values="0 0 0 0 0 0 0 0 0 0 0 0 0 0 0 0 0 0 127 0" result="hardAlpha"/>
<feOffset dy="2"/>
<feGaussianBlur stdDeviation="1"/>
<feComposite in2="hardAlpha" operator="out"/>
<feColorMatrix type="matrix" values="0 0 0 0 0 0 0 0 0 0 0 0 0 0 0 0 0 0 0.14 0"/>
<feBlend mode="normal" in2="effect1_dropShadow_156_136171" result="effect2_dropShadow_156_136171"/>
<feColorMatrix in="SourceAlpha" type="matrix" values="0 0 0 0 0 0 0 0 0 0 0 0 0 0 0 0 0 0 127 0" result="hardAlpha"/>
<feOffset dy="1"/>
<feGaussianBlur stdDeviation="2.5"/>
<feComposite in2="hardAlpha" operator="out"/>
<feColorMatrix type="matrix" values="0 0 0 0 0 0 0 0 0 0 0 0 0 0 0 0 0 0 0.12 0"/>
<feBlend mode="normal" in2="effect2_dropShadow_156_136171" result="effect3_dropShadow_156_136171"/>
<feBlend mode="normal" in="SourceGraphic" in2="effect3_dropShadow_156_136171" result="shape"/>
</filter>
<filter id="filter1_d_156_136171" x="36" y="115" width="441" height="100" filterUnits="userSpaceOnUse" color-interpolation-filters="sRGB">
<feFlood flood-opacity="0" result="BackgroundImageFix"/>
<feColorMatrix in="SourceAlpha" type="matrix" values="0 0 0 0 0 0 0 0 0 0 0 0 0 0 0 0 0 0 127 0" result="hardAlpha"/>
<feMorphology radius="1" operator="dilate" in="SourceAlpha" result="effect1_dropShadow_156_136171"/>
<feOffset/>
<feColorMatrix type="matrix" values="0 0 0 0 0.878431 0 0 0 0 0.878431 0 0 0 0 0.878431 0 0 0 1 0"/>
<feBlend mode="normal" in2="BackgroundImageFix" result="effect1_dropShadow_156_136171"/>
<feBlend mode="normal" in="SourceGraphic" in2="effect1_dropShadow_156_136171" result="shape"/>
</filter>
</defs>
</svg>
