<svg width="535" height="274" viewBox="0 0 535 274" fill="none" xmlns="http://www.w3.org/2000/svg">
<rect width="535" height="274" fill="white"/>
<g filter="url(#filter0_ddd_727_7117)">
<rect x="42" y="29" width="48" height="48" rx="4" fill="#F7F7F8"/>
<rect x="41.75" y="28.75" width="48.5" height="48.5" rx="4.25" stroke="#9E9E9E" stroke-width="0.5"/>
<path fill-rule="evenodd" clip-rule="evenodd" d="M81 46.7002C81 51.5002 74.3106 55.4004 66 55.4004C57.6894 55.4004 51 51.5002 51 46.7002V59.2998C51 64.0998 57.6894 68 66 68C74.3106 68 81 64.0998 81 59.2998V46.7002Z" fill="#9E9E9E"/>
<path fill-rule="evenodd" clip-rule="evenodd" d="M81 46.7002C81 51.5002 74.3106 55.4004 66 55.4004C57.6894 55.4004 51 51.5002 51 46.7002V59.2998C51 64.0998 57.6894 68 66 68C74.3106 68 81 64.0998 81 59.2998V46.7002Z" stroke="white" stroke-width="0.788" stroke-linecap="round"/>
<path fill-rule="evenodd" clip-rule="evenodd" d="M66 55.3996C74.3111 55.3996 81 51.4994 81 46.6994C81 41.8994 74.3111 38 66 38C57.6889 38 51 41.9002 51 46.7002C51 51.5002 57.6894 55.4004 66 55.4004V55.3996Z" fill="#9E9E9E"/>
<path fill-rule="evenodd" clip-rule="evenodd" d="M66 55.3996C74.3111 55.3996 81 51.4994 81 46.6994C81 41.8994 74.3111 38 66 38C57.6889 38 51 41.9002 51 46.7002C51 51.5002 57.6894 55.4004 66 55.4004V55.3996Z" stroke="white" stroke-width="0.788" stroke-linecap="round"/>
<path fill-rule="evenodd" clip-rule="evenodd" d="M62.5564 43.3948L63.7729 46.0949L59.1108 47.5951L60.1245 46.3951L53.0294 44.5948L54.8539 42.4949L61.7461 44.2946L62.557 43.3948H62.5564ZM69.2459 49.9944L68.2322 47.2949L72.4892 45.7948L71.8812 46.9948L78.7734 48.7944L77.1518 50.5948L70.0572 48.7944L69.2464 49.9944H69.2459ZM66.8134 41.8953L71.4755 40.0957L71.6783 42.7959L70.4619 42.4957L68.2322 45.4961L66.0026 44.8965L68.2322 42.1963L66.8134 41.8961V41.8953ZM64.7866 52.6953L60.3273 53.8953L60.1245 50.5955L61.5433 51.1951L63.9758 47.8953L66.2054 48.4949L63.5701 52.0949L64.7861 52.6953H64.7866Z" fill="white"/>
</g>
<g filter="url(#filter1_ddd_727_7117)">
<rect x="102" y="29" width="48" height="48" rx="6" fill="#F7F7F8"/>
<rect x="101.75" y="28.75" width="48.5" height="48.5" rx="6.25" stroke="#7D4E00" stroke-width="0.5"/>
<path fill-rule="evenodd" clip-rule="evenodd" d="M141 46.7002C141 51.5002 134.311 55.4004 126 55.4004C117.689 55.4004 111 51.5002 111 46.7002V59.2998C111 64.0998 117.689 68 126 68C134.311 68 141 64.0998 141 59.2998V46.7002Z" fill="#BF8700"/>
<path fill-rule="evenodd" clip-rule="evenodd" d="M141 46.7002C141 51.5002 134.311 55.4004 126 55.4004C117.689 55.4004 111 51.5002 111 46.7002V59.2998C111 64.0998 117.689 68 126 68C134.311 68 141 64.0998 141 59.2998V46.7002Z" stroke="white" stroke-width="0.788" stroke-linecap="round"/>
<path fill-rule="evenodd" clip-rule="evenodd" d="M126 55.3996C134.311 55.3996 141 51.4994 141 46.6994C141 41.8994 134.311 38 126 38C117.689 38 111 41.9002 111 46.7002C111 51.5002 117.689 55.4004 126 55.4004V55.3996Z" fill="#BF8700"/>
<path fill-rule="evenodd" clip-rule="evenodd" d="M126 55.3996C134.311 55.3996 141 51.4994 141 46.6994C141 41.8994 134.311 38 126 38C117.689 38 111 41.9002 111 46.7002C111 51.5002 117.689 55.4004 126 55.4004V55.3996Z" stroke="white" stroke-width="0.788" stroke-linecap="round"/>
<path fill-rule="evenodd" clip-rule="evenodd" d="M122.556 43.3948L123.773 46.0949L119.111 47.5951L120.124 46.3951L113.029 44.5948L114.854 42.4949L121.746 44.2946L122.557 43.3948H122.556ZM129.246 49.9944L128.232 47.2949L132.489 45.7948L131.881 46.9948L138.773 48.7944L137.152 50.5948L130.057 48.7944L129.246 49.9944H129.246ZM126.813 41.8953L131.476 40.0957L131.678 42.7959L130.462 42.4957L128.232 45.4961L126.003 44.8965L128.232 42.1963L126.813 41.8961V41.8953ZM124.787 52.6953L120.327 53.8953L120.124 50.5955L121.543 51.1951L123.976 47.8953L126.205 48.4949L123.57 52.0949L124.786 52.6953H124.787Z" fill="white"/>
</g>
<rect x="120" y="23" width="12" height="12" rx="6" fill="white"/>
<path d="M126 24C123.24 24 121 26.24 121 29C121 31.76 123.24 34 126 34C128.76 34 131 31.76 131 29C131 26.24 128.76 24 126 24ZM126 29.5C125.725 29.5 125.5 29.275 125.5 29V27C125.5 26.725 125.725 26.5 126 26.5C126.275 26.5 126.5 26.725 126.5 27V29C126.5 29.275 126.275 29.5 126 29.5ZM126.5 31.5H125.5V30.5H126.5V31.5Z" fill="white"/>
<path d="M126 24C123.24 24 121 26.24 121 29C121 31.76 123.24 34 126 34C128.76 34 131 31.76 131 29C131 26.24 128.76 24 126 24ZM126 29.5C125.725 29.5 125.5 29.275 125.5 29V27C125.5 26.725 125.725 26.5 126 26.5C126.275 26.5 126.5 26.725 126.5 27V29C126.5 29.275 126.275 29.5 126 29.5ZM126.5 31.5H125.5V30.5H126.5V31.5Z" fill="#BF8700"/>
<g filter="url(#filter2_ddd_727_7117)">
<rect x="163" y="28" width="48" height="48" rx="6" fill="#F7F7F8"/>
<rect x="162.75" y="27.75" width="48.5" height="48.5" rx="6.25" stroke="#D3232F" stroke-width="0.5"/>
<path fill-rule="evenodd" clip-rule="evenodd" d="M202 45.7002C202 50.5002 195.311 54.4004 187 54.4004C178.689 54.4004 172 50.5002 172 45.7002V58.2998C172 63.0998 178.689 67 187 67C195.311 67 202 63.0998 202 58.2998V45.7002Z" fill="#D3232F"/>
<path fill-rule="evenodd" clip-rule="evenodd" d="M202 45.7002C202 50.5002 195.311 54.4004 187 54.4004C178.689 54.4004 172 50.5002 172 45.7002V58.2998C172 63.0998 178.689 67 187 67C195.311 67 202 63.0998 202 58.2998V45.7002Z" stroke="white" stroke-width="0.788" stroke-linecap="round"/>
<path fill-rule="evenodd" clip-rule="evenodd" d="M187 54.3996C195.311 54.3996 202 50.4994 202 45.6994C202 40.8994 195.311 37 187 37C178.689 37 172 40.9002 172 45.7002C172 50.5002 178.689 54.4004 187 54.4004V54.3996Z" fill="#D3232F"/>
<path fill-rule="evenodd" clip-rule="evenodd" d="M187 54.3996C195.311 54.3996 202 50.4994 202 45.6994C202 40.8994 195.311 37 187 37C178.689 37 172 40.9002 172 45.7002C172 50.5002 178.689 54.4004 187 54.4004V54.3996Z" stroke="white" stroke-width="0.788" stroke-linecap="round"/>
<path fill-rule="evenodd" clip-rule="evenodd" d="M183.556 42.3948L184.773 45.0949L180.111 46.5951L181.124 45.3951L174.029 43.5948L175.854 41.4949L182.746 43.2946L183.557 42.3948H183.556ZM190.246 48.9944L189.232 46.2949L193.489 44.7948L192.881 45.9948L199.773 47.7944L198.152 49.5948L191.057 47.7944L190.246 48.9944H190.246ZM187.813 40.8953L192.476 39.0957L192.678 41.7959L191.462 41.4957L189.232 44.4961L187.003 43.8965L189.232 41.1963L187.813 40.8961V40.8953ZM185.787 51.6953L181.327 52.8953L181.124 49.5955L182.543 50.1951L184.976 46.8953L187.205 47.4949L184.57 51.0949L185.786 51.6953H185.787Z" fill="white"/>
</g>
<rect x="181" y="22" width="12" height="12" rx="6" fill="white"/>
<path d="M187 23C184.24 23 182 25.24 182 28C182 30.76 184.24 33 187 33C189.76 33 192 30.76 192 28C192 25.24 189.76 23 187 23ZM187 28.5C186.725 28.5 186.5 28.275 186.5 28V26C186.5 25.725 186.725 25.5 187 25.5C187.275 25.5 187.5 25.725 187.5 26V28C187.5 28.275 187.275 28.5 187 28.5ZM187.5 30.5H186.5V29.5H187.5V30.5Z" fill="#D3232F"/>
<rect x="51.5" y="137.5" width="84" height="84" rx="6.5" fill="white"/>
<rect x="51.5" y="137.5" width="84" height="84" rx="6.5" stroke="#9E9E9E" stroke-width="3"/>
<g clip-path="url(#clip0_727_7117)">
<path d="M78.9167 181.958V187.812C78.9167 189.333 79.75 190.75 81.0833 191.479L91.5 197.166C92.75 197.854 94.25 197.854 95.5 197.166L105.917 191.479C107.25 190.75 108.083 189.333 108.083 187.812V181.958L95.5 188.833C94.25 189.521 92.75 189.521 91.5 188.833L78.9167 181.958ZM91.5 161.833L73.9375 171.416C72.5 172.208 72.5 174.291 73.9375 175.083L91.5 184.666C92.75 185.354 94.25 185.354 95.5 184.666L112.25 175.521V187.833C112.25 188.979 113.187 189.916 114.333 189.916C115.479 189.916 116.417 188.979 116.417 187.833V174.479C116.417 173.708 116 173.021 115.333 172.646L95.5 161.833C94.25 161.166 92.75 161.166 91.5 161.833V161.833Z" fill="#9E9E9E"/>
</g>
<path d="M45.603 248.836L44.5044 252H41.9116L46.4292 239.616H49.4878L53.9878 252H51.4214L50.3228 248.836H45.603ZM47.9585 241.523C47.8999 241.758 47.8179 242.039 47.7124 242.367C47.607 242.695 47.5308 242.927 47.4839 243.062L46.1831 246.885H49.7427L48.4068 242.982C48.3247 242.742 48.2486 242.499 48.1782 242.253C48.1079 242.007 48.0347 241.764 47.9585 241.523ZM60.318 244.494V252H58.0153V239.616H61.487L63.7018 246.542C63.8014 246.929 63.904 247.318 64.0095 247.711C64.1149 248.098 64.2175 248.484 64.3171 248.871C64.3815 248.648 64.443 248.429 64.5016 248.212C64.5602 247.989 64.6188 247.767 64.6774 247.544C64.7419 247.321 64.8063 247.102 64.8708 246.885L67.1471 239.616H70.6012V252H68.2985V244.494C68.2985 244.324 68.3044 243.984 68.3161 243.475C68.3337 242.959 68.3571 242.399 68.3864 241.796C68.1813 242.581 67.9997 243.249 67.8415 243.8C67.6891 244.351 67.5632 244.781 67.4636 245.092L65.2311 252H63.3854L61.153 245.092L60.2126 241.796C60.2477 242.476 60.2741 243.041 60.2917 243.492C60.3093 243.938 60.318 244.271 60.318 244.494ZM77.9422 246.691V252H75.3495V239.616H77.9422V244.547H83.3387V239.616H85.9315V252H83.3387V246.691H77.9422ZM100.796 249.996V252H90.6973V239.616H100.436V241.62H93.29V244.731H99.8994V246.735H93.29V249.996H100.796ZM107.636 247.298V252H105.043V239.616H111.231C112.707 239.616 113.847 239.936 114.65 240.574C115.452 241.207 115.854 242.118 115.854 243.308C115.854 244.175 115.608 244.925 115.115 245.558C114.623 246.185 113.958 246.598 113.12 246.797L116.469 252H113.551L110.677 247.298H107.636ZM113.243 243.413C113.243 242.821 113.053 242.376 112.672 242.077C112.291 241.778 111.72 241.629 110.958 241.629H107.636V245.285H111.028C111.755 245.285 112.306 245.121 112.681 244.793C113.056 244.465 113.243 244.005 113.243 243.413ZM130.49 248.432C130.49 249.645 130.038 250.573 129.136 251.218C128.24 251.856 126.921 252.176 125.181 252.176C122.046 252.176 120.221 251.042 119.705 248.774L122.21 248.361C122.38 249.018 122.711 249.495 123.203 249.794C123.696 250.087 124.378 250.233 125.251 250.233C126.159 250.233 126.839 250.096 127.29 249.82C127.742 249.545 127.967 249.132 127.967 248.581C127.967 248.229 127.865 247.939 127.659 247.711C127.454 247.482 127.161 247.292 126.781 247.14C126.593 247.063 126.318 246.981 125.954 246.894C125.591 246.8 125.14 246.697 124.601 246.586C123.98 246.439 123.493 246.316 123.142 246.217C122.79 246.111 122.509 246.012 122.298 245.918C122.087 245.818 121.882 245.71 121.683 245.593C121.243 245.329 120.901 244.978 120.655 244.538C120.409 244.099 120.285 243.551 120.285 242.895C120.285 241.775 120.704 240.92 121.542 240.328C122.386 239.73 123.611 239.432 125.216 239.432C126.751 239.432 127.903 239.672 128.67 240.152C129.444 240.633 129.942 241.427 130.164 242.534L127.651 242.877C127.522 242.344 127.258 241.942 126.86 241.673C126.467 241.403 125.902 241.269 125.163 241.269C124.378 241.269 123.789 241.392 123.397 241.638C123.004 241.884 122.808 242.253 122.808 242.745C122.808 243.067 122.89 243.331 123.054 243.536C123.224 243.741 123.473 243.917 123.801 244.063C124.112 244.204 124.777 244.383 125.796 244.6C126.388 244.729 126.898 244.852 127.326 244.969C127.753 245.08 128.096 245.188 128.354 245.294C128.612 245.405 128.84 245.522 129.039 245.646C129.244 245.769 129.42 245.9 129.567 246.041C129.866 246.328 130.094 246.671 130.252 247.069C130.41 247.462 130.49 247.916 130.49 248.432ZM140.327 241.62V252H137.734V241.62H133.735V239.616H144.334V241.62H140.327Z" fill="#00153C"/>
<rect x="176.5" y="137.5" width="84" height="84" rx="6.5" fill="white"/>
<rect x="176.5" y="137.5" width="84" height="84" rx="6.5" stroke="#BF8700" stroke-width="3"/>
<g clip-path="url(#clip1_727_7117)">
<path d="M203.917 181.958V187.812C203.917 189.333 204.75 190.75 206.083 191.479L216.5 197.166C217.75 197.854 219.25 197.854 220.5 197.166L230.917 191.479C232.25 190.75 233.083 189.333 233.083 187.812V181.958L220.5 188.833C219.25 189.521 217.75 189.521 216.5 188.833L203.917 181.958ZM216.5 161.833L198.937 171.416C197.5 172.208 197.5 174.291 198.937 175.083L216.5 184.666C217.75 185.354 219.25 185.354 220.5 184.666L237.25 175.521V187.833C237.25 188.979 238.187 189.916 239.333 189.916C240.479 189.916 241.417 188.979 241.417 187.833V174.479C241.417 173.708 241 173.021 240.333 172.646L220.5 161.833C219.25 161.166 217.75 161.166 216.5 161.833V161.833Z" fill="#BF8700"/>
</g>
<rect x="204" y="122" width="28" height="28" rx="14" fill="white"/>
<path d="M218 124.333C211.56 124.333 206.333 129.56 206.333 136C206.333 142.44 211.56 147.666 218 147.666C224.44 147.666 229.667 142.44 229.667 136C229.667 129.56 224.44 124.333 218 124.333ZM218 137.166C217.358 137.166 216.833 136.641 216.833 136V131.333C216.833 130.691 217.358 130.166 218 130.166C218.642 130.166 219.167 130.691 219.167 131.333V136C219.167 136.641 218.642 137.166 218 137.166ZM219.167 141.833H216.833V139.5H219.167V141.833Z" fill="white"/>
<path d="M218 124.333C211.56 124.333 206.333 129.56 206.333 136C206.333 142.44 211.56 147.666 218 147.666C224.44 147.666 229.667 142.44 229.667 136C229.667 129.56 224.44 124.333 218 124.333ZM218 137.166C217.358 137.166 216.833 136.641 216.833 136V131.333C216.833 130.691 217.358 130.166 218 130.166C218.642 130.166 219.167 130.691 219.167 131.333V136C219.167 136.641 218.642 137.166 218 137.166ZM219.167 141.833H216.833V139.5H219.167V141.833Z" fill="#BF8700"/>
<path d="M170.603 244.836L169.504 248H166.912L171.429 235.616H174.488L178.988 248H176.421L175.323 244.836H170.603ZM172.959 237.523C172.9 237.758 172.818 238.039 172.712 238.367C172.607 238.695 172.531 238.927 172.484 239.062L171.183 242.885H174.743L173.407 238.982C173.325 238.742 173.249 238.499 173.178 238.253C173.108 238.007 173.035 237.764 172.959 237.523ZM185.318 240.494V248H183.015V235.616H186.487L188.702 242.542C188.801 242.929 188.904 243.318 189.009 243.711C189.115 244.098 189.217 244.484 189.317 244.871C189.382 244.648 189.443 244.429 189.502 244.212C189.56 243.989 189.619 243.767 189.677 243.544C189.742 243.321 189.806 243.102 189.871 242.885L192.147 235.616H195.601V248H193.299V240.494C193.299 240.324 193.304 239.984 193.316 239.475C193.334 238.959 193.357 238.399 193.386 237.796C193.181 238.581 193 239.249 192.841 239.8C192.689 240.351 192.563 240.781 192.464 241.092L190.231 248H188.385L186.153 241.092L185.213 237.796C185.248 238.476 185.274 239.041 185.292 239.492C185.309 239.938 185.318 240.271 185.318 240.494ZM202.942 242.691V248H200.349V235.616H202.942V240.547H208.339V235.616H210.931V248H208.339V242.691H202.942ZM225.796 245.996V248H215.697V235.616H225.436V237.62H218.29V240.731H224.899V242.735H218.29V245.996H225.796ZM232.636 243.298V248H230.043V235.616H236.231C237.707 235.616 238.847 235.936 239.65 236.574C240.452 237.207 240.854 238.118 240.854 239.308C240.854 240.175 240.608 240.925 240.115 241.558C239.623 242.185 238.958 242.598 238.12 242.797L241.469 248H238.551L235.677 243.298H232.636ZM238.243 239.413C238.243 238.821 238.053 238.376 237.672 238.077C237.291 237.778 236.72 237.629 235.958 237.629H232.636V241.285H236.028C236.755 241.285 237.306 241.121 237.681 240.793C238.056 240.465 238.243 240.005 238.243 239.413ZM255.49 244.432C255.49 245.645 255.038 246.573 254.136 247.218C253.24 247.856 251.921 248.176 250.181 248.176C247.046 248.176 245.221 247.042 244.705 244.774L247.21 244.361C247.38 245.018 247.711 245.495 248.203 245.794C248.696 246.087 249.378 246.233 250.251 246.233C251.159 246.233 251.839 246.096 252.29 245.82C252.742 245.545 252.967 245.132 252.967 244.581C252.967 244.229 252.865 243.939 252.659 243.711C252.454 243.482 252.161 243.292 251.781 243.14C251.593 243.063 251.318 242.981 250.954 242.894C250.591 242.8 250.14 242.697 249.601 242.586C248.98 242.439 248.493 242.316 248.142 242.217C247.79 242.111 247.509 242.012 247.298 241.918C247.087 241.818 246.882 241.71 246.683 241.593C246.243 241.329 245.901 240.978 245.655 240.538C245.409 240.099 245.285 239.551 245.285 238.895C245.285 237.775 245.704 236.92 246.542 236.328C247.386 235.73 248.611 235.432 250.216 235.432C251.751 235.432 252.903 235.672 253.67 236.152C254.444 236.633 254.942 237.427 255.164 238.534L252.651 238.877C252.522 238.344 252.258 237.942 251.86 237.673C251.467 237.403 250.902 237.269 250.163 237.269C249.378 237.269 248.789 237.392 248.397 237.638C248.004 237.884 247.808 238.253 247.808 238.745C247.808 239.067 247.89 239.331 248.054 239.536C248.224 239.741 248.473 239.917 248.801 240.063C249.112 240.204 249.777 240.383 250.796 240.6C251.388 240.729 251.898 240.852 252.326 240.969C252.753 241.08 253.096 241.188 253.354 241.294C253.612 241.405 253.84 241.522 254.039 241.646C254.244 241.769 254.42 241.9 254.567 242.041C254.866 242.328 255.094 242.671 255.252 243.069C255.41 243.462 255.49 243.916 255.49 244.432ZM265.327 237.62V248H262.734V237.62H258.735V235.616H269.334V237.62H265.327Z" fill="#BF8700"/>
<rect x="301.5" y="137.5" width="84" height="84" rx="6.5" fill="white"/>
<rect x="301.5" y="137.5" width="84" height="84" rx="6.5" stroke="#D3232F" stroke-width="3"/>
<g clip-path="url(#clip2_727_7117)">
<path d="M328.917 181.958V187.812C328.917 189.333 329.75 190.75 331.083 191.479L341.5 197.166C342.75 197.854 344.25 197.854 345.5 197.166L355.917 191.479C357.25 190.75 358.083 189.333 358.083 187.812V181.958L345.5 188.833C344.25 189.521 342.75 189.521 341.5 188.833L328.917 181.958ZM341.5 161.833L323.937 171.416C322.5 172.208 322.5 174.291 323.937 175.083L341.5 184.666C342.75 185.354 344.25 185.354 345.5 184.666L362.25 175.521V187.833C362.25 188.979 363.187 189.916 364.333 189.916C365.479 189.916 366.417 188.979 366.417 187.833V174.479C366.417 173.708 366 173.021 365.333 172.646L345.5 161.833C344.25 161.166 342.75 161.166 341.5 161.833V161.833Z" fill="#D3232F"/>
</g>
<rect x="329" y="122" width="28" height="28" rx="14" fill="white"/>
<path d="M343 124.333C336.56 124.333 331.333 129.56 331.333 136C331.333 142.44 336.56 147.666 343 147.666C349.44 147.666 354.667 142.44 354.667 136C354.667 129.56 349.44 124.333 343 124.333ZM343 137.166C342.358 137.166 341.833 136.641 341.833 136V131.333C341.833 130.691 342.358 130.166 343 130.166C343.642 130.166 344.167 130.691 344.167 131.333V136C344.167 136.641 343.642 137.166 343 137.166ZM344.167 141.833H341.833V139.5H344.167V141.833Z" fill="#D3232F"/>
<path d="M295.603 244.836L294.504 248H291.912L296.429 235.616H299.488L303.988 248H301.421L300.323 244.836H295.603ZM297.959 237.523C297.9 237.758 297.818 238.039 297.712 238.367C297.607 238.695 297.531 238.927 297.484 239.062L296.183 242.885H299.743L298.407 238.982C298.325 238.742 298.249 238.499 298.178 238.253C298.108 238.007 298.035 237.764 297.959 237.523ZM310.318 240.494V248H308.015V235.616H311.487L313.702 242.542C313.801 242.929 313.904 243.318 314.009 243.711C314.115 244.098 314.217 244.484 314.317 244.871C314.382 244.648 314.443 244.429 314.502 244.212C314.56 243.989 314.619 243.767 314.677 243.544C314.742 243.321 314.806 243.102 314.871 242.885L317.147 235.616H320.601V248H318.299V240.494C318.299 240.324 318.304 239.984 318.316 239.475C318.334 238.959 318.357 238.399 318.386 237.796C318.181 238.581 318 239.249 317.841 239.8C317.689 240.351 317.563 240.781 317.464 241.092L315.231 248H313.385L311.153 241.092L310.213 237.796C310.248 238.476 310.274 239.041 310.292 239.492C310.309 239.938 310.318 240.271 310.318 240.494ZM327.942 242.691V248H325.349V235.616H327.942V240.547H333.339V235.616H335.931V248H333.339V242.691H327.942ZM350.796 245.996V248H340.697V235.616H350.436V237.62H343.29V240.731H349.899V242.735H343.29V245.996H350.796ZM357.636 243.298V248H355.043V235.616H361.231C362.707 235.616 363.847 235.936 364.65 236.574C365.452 237.207 365.854 238.118 365.854 239.308C365.854 240.175 365.608 240.925 365.115 241.558C364.623 242.185 363.958 242.598 363.12 242.797L366.469 248H363.551L360.677 243.298H357.636ZM363.243 239.413C363.243 238.821 363.053 238.376 362.672 238.077C362.291 237.778 361.72 237.629 360.958 237.629H357.636V241.285H361.028C361.755 241.285 362.306 241.121 362.681 240.793C363.056 240.465 363.243 240.005 363.243 239.413ZM380.49 244.432C380.49 245.645 380.038 246.573 379.136 247.218C378.24 247.856 376.921 248.176 375.181 248.176C372.046 248.176 370.221 247.042 369.705 244.774L372.21 244.361C372.38 245.018 372.711 245.495 373.203 245.794C373.696 246.087 374.378 246.233 375.251 246.233C376.159 246.233 376.839 246.096 377.29 245.82C377.742 245.545 377.967 245.132 377.967 244.581C377.967 244.229 377.865 243.939 377.659 243.711C377.454 243.482 377.161 243.292 376.781 243.14C376.593 243.063 376.318 242.981 375.954 242.894C375.591 242.8 375.14 242.697 374.601 242.586C373.98 242.439 373.493 242.316 373.142 242.217C372.79 242.111 372.509 242.012 372.298 241.918C372.087 241.818 371.882 241.71 371.683 241.593C371.243 241.329 370.901 240.978 370.655 240.538C370.409 240.099 370.285 239.551 370.285 238.895C370.285 237.775 370.704 236.92 371.542 236.328C372.386 235.73 373.611 235.432 375.216 235.432C376.751 235.432 377.903 235.672 378.67 236.152C379.444 236.633 379.942 237.427 380.164 238.534L377.651 238.877C377.522 238.344 377.258 237.942 376.86 237.673C376.467 237.403 375.902 237.269 375.163 237.269C374.378 237.269 373.789 237.392 373.397 237.638C373.004 237.884 372.808 238.253 372.808 238.745C372.808 239.067 372.89 239.331 373.054 239.536C373.224 239.741 373.473 239.917 373.801 240.063C374.112 240.204 374.777 240.383 375.796 240.6C376.388 240.729 376.898 240.852 377.326 240.969C377.753 241.08 378.096 241.188 378.354 241.294C378.612 241.405 378.84 241.522 379.039 241.646C379.244 241.769 379.42 241.9 379.567 242.041C379.866 242.328 380.094 242.671 380.252 243.069C380.41 243.462 380.49 243.916 380.49 244.432ZM390.327 237.62V248H387.734V237.62H383.735V235.616H394.334V237.62H390.327Z" fill="#39000D"/>
<defs>
<filter id="filter0_ddd_727_7117" x="38.5" y="26.5" width="55" height="55" filterUnits="userSpaceOnUse" color-interpolation-filters="sRGB">
<feFlood flood-opacity="0" result="BackgroundImageFix"/>
<feColorMatrix in="SourceAlpha" type="matrix" values="0 0 0 0 0 0 0 0 0 0 0 0 0 0 0 0 0 0 127 0" result="hardAlpha"/>
<feMorphology radius="1" operator="erode" in="SourceAlpha" result="effect1_dropShadow_727_7117"/>
<feOffset dy="2"/>
<feGaussianBlur stdDeviation="0.5"/>
<feComposite in2="hardAlpha" operator="out"/>
<feColorMatrix type="matrix" values="0 0 0 0 0 0 0 0 0 0 0 0 0 0 0 0 0 0 0.2 0"/>
<feBlend mode="normal" in2="BackgroundImageFix" result="effect1_dropShadow_727_7117"/>
<feColorMatrix in="SourceAlpha" type="matrix" values="0 0 0 0 0 0 0 0 0 0 0 0 0 0 0 0 0 0 127 0" result="hardAlpha"/>
<feOffset dy="1"/>
<feGaussianBlur stdDeviation="0.5"/>
<feComposite in2="hardAlpha" operator="out"/>
<feColorMatrix type="matrix" values="0 0 0 0 0 0 0 0 0 0 0 0 0 0 0 0 0 0 0.14 0"/>
<feBlend mode="normal" in2="effect1_dropShadow_727_7117" result="effect2_dropShadow_727_7117"/>
<feColorMatrix in="SourceAlpha" type="matrix" values="0 0 0 0 0 0 0 0 0 0 0 0 0 0 0 0 0 0 127 0" result="hardAlpha"/>
<feOffset dy="1"/>
<feGaussianBlur stdDeviation="1.5"/>
<feComposite in2="hardAlpha" operator="out"/>
<feColorMatrix type="matrix" values="0 0 0 0 0 0 0 0 0 0 0 0 0 0 0 0 0 0 0.12 0"/>
<feBlend mode="normal" in2="effect2_dropShadow_727_7117" result="effect3_dropShadow_727_7117"/>
<feBlend mode="normal" in="SourceGraphic" in2="effect3_dropShadow_727_7117" result="shape"/>
</filter>
<filter id="filter1_ddd_727_7117" x="98.5" y="26.5" width="55" height="55" filterUnits="userSpaceOnUse" color-interpolation-filters="sRGB">
<feFlood flood-opacity="0" result="BackgroundImageFix"/>
<feColorMatrix in="SourceAlpha" type="matrix" values="0 0 0 0 0 0 0 0 0 0 0 0 0 0 0 0 0 0 127 0" result="hardAlpha"/>
<feMorphology radius="1" operator="erode" in="SourceAlpha" result="effect1_dropShadow_727_7117"/>
<feOffset dy="2"/>
<feGaussianBlur stdDeviation="0.5"/>
<feComposite in2="hardAlpha" operator="out"/>
<feColorMatrix type="matrix" values="0 0 0 0 0 0 0 0 0 0 0 0 0 0 0 0 0 0 0.2 0"/>
<feBlend mode="normal" in2="BackgroundImageFix" result="effect1_dropShadow_727_7117"/>
<feColorMatrix in="SourceAlpha" type="matrix" values="0 0 0 0 0 0 0 0 0 0 0 0 0 0 0 0 0 0 127 0" result="hardAlpha"/>
<feOffset dy="1"/>
<feGaussianBlur stdDeviation="0.5"/>
<feComposite in2="hardAlpha" operator="out"/>
<feColorMatrix type="matrix" values="0 0 0 0 0 0 0 0 0 0 0 0 0 0 0 0 0 0 0.14 0"/>
<feBlend mode="normal" in2="effect1_dropShadow_727_7117" result="effect2_dropShadow_727_7117"/>
<feColorMatrix in="SourceAlpha" type="matrix" values="0 0 0 0 0 0 0 0 0 0 0 0 0 0 0 0 0 0 127 0" result="hardAlpha"/>
<feOffset dy="1"/>
<feGaussianBlur stdDeviation="1.5"/>
<feComposite in2="hardAlpha" operator="out"/>
<feColorMatrix type="matrix" values="0 0 0 0 0 0 0 0 0 0 0 0 0 0 0 0 0 0 0.12 0"/>
<feBlend mode="normal" in2="effect2_dropShadow_727_7117" result="effect3_dropShadow_727_7117"/>
<feBlend mode="normal" in="SourceGraphic" in2="effect3_dropShadow_727_7117" result="shape"/>
</filter>
<filter id="filter2_ddd_727_7117" x="159.5" y="25.5" width="55" height="55" filterUnits="userSpaceOnUse" color-interpolation-filters="sRGB">
<feFlood flood-opacity="0" result="BackgroundImageFix"/>
<feColorMatrix in="SourceAlpha" type="matrix" values="0 0 0 0 0 0 0 0 0 0 0 0 0 0 0 0 0 0 127 0" result="hardAlpha"/>
<feMorphology radius="1" operator="erode" in="SourceAlpha" result="effect1_dropShadow_727_7117"/>
<feOffset dy="2"/>
<feGaussianBlur stdDeviation="0.5"/>
<feComposite in2="hardAlpha" operator="out"/>
<feColorMatrix type="matrix" values="0 0 0 0 0 0 0 0 0 0 0 0 0 0 0 0 0 0 0.2 0"/>
<feBlend mode="normal" in2="BackgroundImageFix" result="effect1_dropShadow_727_7117"/>
<feColorMatrix in="SourceAlpha" type="matrix" values="0 0 0 0 0 0 0 0 0 0 0 0 0 0 0 0 0 0 127 0" result="hardAlpha"/>
<feOffset dy="1"/>
<feGaussianBlur stdDeviation="0.5"/>
<feComposite in2="hardAlpha" operator="out"/>
<feColorMatrix type="matrix" values="0 0 0 0 0 0 0 0 0 0 0 0 0 0 0 0 0 0 0.14 0"/>
<feBlend mode="normal" in2="effect1_dropShadow_727_7117" result="effect2_dropShadow_727_7117"/>
<feColorMatrix in="SourceAlpha" type="matrix" values="0 0 0 0 0 0 0 0 0 0 0 0 0 0 0 0 0 0 127 0" result="hardAlpha"/>
<feOffset dy="1"/>
<feGaussianBlur stdDeviation="1.5"/>
<feComposite in2="hardAlpha" operator="out"/>
<feColorMatrix type="matrix" values="0 0 0 0 0 0 0 0 0 0 0 0 0 0 0 0 0 0 0.12 0"/>
<feBlend mode="normal" in2="effect2_dropShadow_727_7117" result="effect3_dropShadow_727_7117"/>
<feBlend mode="normal" in="SourceGraphic" in2="effect3_dropShadow_727_7117" result="shape"/>
</filter>
<clipPath id="clip0_727_7117">
<rect width="50" height="50" fill="white" transform="translate(68.5 154.5)"/>
</clipPath>
<clipPath id="clip1_727_7117">
<rect width="50" height="50" fill="white" transform="translate(193.5 154.5)"/>
</clipPath>
<clipPath id="clip2_727_7117">
<rect width="50" height="50" fill="white" transform="translate(318.5 154.5)"/>
</clipPath>
</defs>
</svg>
