<svg width="1392" height="246" viewBox="0 0 1392 246" fill="none" xmlns="http://www.w3.org/2000/svg">
<g clip-path="url(#clip0_704_100673)" filter="url(#filter0_d_704_100673)">
<rect width="1390" height="244" transform="translate(1 1)" fill="white"/>
<path d="M569.6 75.4844L568.379 79H565.498L570.518 65.2402H573.916L578.916 79H576.064L574.844 75.4844H569.6ZM572.217 67.3594C572.152 67.6198 572.061 67.9323 571.943 68.2969C571.826 68.6615 571.742 68.9186 571.689 69.0684L570.244 73.3164H574.199L572.715 68.9805C572.624 68.7135 572.539 68.4434 572.461 68.1699C572.383 67.8965 572.301 67.6263 572.217 67.3594ZM583.81 70.6602V79H581.251V65.2402H585.108L587.569 72.9355C587.68 73.3652 587.794 73.7982 587.911 74.2344C588.028 74.6641 588.142 75.0938 588.253 75.5234C588.325 75.276 588.393 75.0319 588.458 74.791C588.523 74.5436 588.588 74.2962 588.653 74.0488C588.725 73.8014 588.797 73.5573 588.868 73.3164L591.398 65.2402H595.235V79H592.677V70.6602C592.677 70.4714 592.683 70.0938 592.696 69.5273C592.716 68.9544 592.742 68.3327 592.774 67.6621C592.547 68.5345 592.345 69.2767 592.169 69.8887C592 70.5007 591.86 70.9792 591.749 71.3242L589.269 79H587.218L584.737 71.3242L583.692 67.6621C583.731 68.4173 583.761 69.0456 583.78 69.5469C583.8 70.0417 583.81 70.4128 583.81 70.6602ZM601.252 73.1016V79H598.371V65.2402H601.252V70.7188H607.248V65.2402H610.129V79H607.248V73.1016H601.252ZM624.505 76.7734V79H613.284V65.2402H624.105V67.4668H616.165V70.9238H623.509V73.1504H616.165V76.7734H624.505ZM629.965 73.7754V79H627.084V65.2402H633.959C635.6 65.2402 636.866 65.5951 637.758 66.3047C638.65 67.0078 639.096 68.0202 639.096 69.3418C639.096 70.3053 638.822 71.1387 638.276 71.8418C637.729 72.5384 636.99 72.9974 636.059 73.2188L639.779 79H636.537L633.344 73.7754H629.965ZM636.195 69.459C636.195 68.8014 635.984 68.3066 635.561 67.9746C635.138 67.6426 634.503 67.4766 633.656 67.4766H629.965V71.5391H633.735C634.542 71.5391 635.154 71.3568 635.57 70.9922C635.987 70.6276 636.195 70.1165 636.195 69.459ZM653.218 75.0352C653.218 76.3828 652.717 77.4147 651.714 78.1309C650.718 78.8405 649.253 79.1953 647.32 79.1953C643.836 79.1953 641.808 77.9355 641.236 75.416L644.019 74.957C644.208 75.6862 644.575 76.2168 645.122 76.5488C645.669 76.8743 646.428 77.0371 647.398 77.0371C648.407 77.0371 649.162 76.8841 649.663 76.5781C650.165 76.2721 650.415 75.8132 650.415 75.2012C650.415 74.8105 650.301 74.4883 650.073 74.2344C649.846 73.9805 649.52 73.7689 649.097 73.5996C648.889 73.515 648.583 73.4238 648.179 73.3262C647.775 73.222 647.274 73.1081 646.675 72.9844C645.985 72.8216 645.445 72.6849 645.054 72.5742C644.663 72.457 644.351 72.3464 644.116 72.2422C643.882 72.1315 643.654 72.0111 643.433 71.8809C642.945 71.5879 642.564 71.1973 642.29 70.709C642.017 70.2207 641.88 69.612 641.88 68.8828C641.88 67.6393 642.346 66.6888 643.277 66.0312C644.214 65.3672 645.575 65.0352 647.359 65.0352C649.064 65.0352 650.344 65.3021 651.196 65.8359C652.056 66.3698 652.609 67.252 652.857 68.4824L650.064 68.8633C649.92 68.2708 649.627 67.8249 649.185 67.5254C648.749 67.2259 648.12 67.0762 647.3 67.0762C646.428 67.0762 645.773 67.2129 645.337 67.4863C644.901 67.7598 644.683 68.1699 644.683 68.7168C644.683 69.0749 644.774 69.3678 644.956 69.5957C645.145 69.8236 645.422 70.0189 645.786 70.1816C646.131 70.3379 646.87 70.5365 648.003 70.7773C648.661 70.9206 649.227 71.0573 649.702 71.1875C650.178 71.3112 650.558 71.4316 650.845 71.5488C651.131 71.6725 651.385 71.8027 651.607 71.9395C651.835 72.0762 652.03 72.2227 652.193 72.3789C652.525 72.6979 652.779 73.0788 652.954 73.5215C653.13 73.9577 653.218 74.4622 653.218 75.0352ZM662.008 67.4668V79H659.127V67.4668H654.684V65.2402H666.461V67.4668H662.008ZM680.936 76.9297C682.681 76.9297 683.888 76.0573 684.559 74.3125L687.069 75.2598C686.528 76.5879 685.734 77.5775 684.686 78.2285C683.644 78.873 682.394 79.1953 680.936 79.1953C679.465 79.1953 678.211 78.9154 677.176 78.3555C676.141 77.7891 675.35 76.972 674.803 75.9043C674.263 74.8366 673.993 73.554 673.993 72.0566C673.993 70.5462 674.253 69.2702 674.774 68.2285C675.295 67.1868 676.063 66.3958 677.078 65.8555C678.094 65.3086 679.338 65.0352 680.809 65.0352C682.423 65.0352 683.739 65.3607 684.754 66.0117C685.77 66.6562 686.483 67.6068 686.893 68.8633L684.354 69.5566C684.139 68.8665 683.716 68.3197 683.084 67.916C682.459 67.5059 681.72 67.3008 680.868 67.3008C679.565 67.3008 678.576 67.7044 677.899 68.5117C677.228 69.319 676.893 70.5007 676.893 72.0566C676.893 73.1113 677.046 74 677.352 74.7227C677.664 75.4453 678.12 75.9954 678.719 76.373C679.325 76.7441 680.063 76.9297 680.936 76.9297ZM702.802 72.0566C702.802 73.4889 702.512 74.7422 701.933 75.8164C701.36 76.8841 700.55 77.7142 699.501 78.3066C698.46 78.8991 697.236 79.1953 695.829 79.1953C694.391 79.1953 693.154 78.9089 692.119 78.3359C691.083 77.7565 690.289 76.9329 689.736 75.8652C689.182 74.7975 688.906 73.528 688.906 72.0566C688.906 70.5853 689.179 69.3255 689.726 68.2773C690.279 67.2292 691.074 66.4284 692.109 65.875C693.15 65.3151 694.397 65.0352 695.849 65.0352C697.307 65.0352 698.554 65.3184 699.589 65.8848C700.624 66.4447 701.419 67.2487 701.972 68.2969C702.525 69.3451 702.802 70.5983 702.802 72.0566ZM699.863 72.0566C699.863 70.5723 699.511 69.4102 698.808 68.5703C698.105 67.724 697.119 67.3008 695.849 67.3008C694.56 67.3008 693.564 67.7207 692.861 68.5605C692.158 69.3939 691.806 70.5592 691.806 72.0566C691.806 73.0592 691.969 73.9251 692.294 74.6543C692.62 75.3835 693.082 75.9466 693.681 76.3438C694.286 76.7344 695.003 76.9297 695.829 76.9297C697.119 76.9297 698.111 76.5065 698.808 75.6602C699.511 74.8138 699.863 73.6126 699.863 72.0566ZM708.33 73.7754V79H705.45V65.2402H712.325C713.965 65.2402 715.232 65.5951 716.123 66.3047C717.015 67.0078 717.461 68.0202 717.461 69.3418C717.461 70.3053 717.188 71.1387 716.641 71.8418C716.094 72.5384 715.355 72.9974 714.424 73.2188L718.145 79H714.903L711.709 73.7754H708.33ZM714.561 69.459C714.561 68.8014 714.349 68.3066 713.926 67.9746C713.503 67.6426 712.868 67.4766 712.022 67.4766H708.33V71.5391H712.1C712.907 71.5391 713.519 71.3568 713.936 70.9922C714.353 70.6276 714.561 70.1165 714.561 69.459ZM731.583 76.7734V79H720.363V65.2402H731.183V67.4668H723.244V70.9238H730.587V73.1504H723.244V76.7734H731.583ZM743.07 73.7754V79H740.189V65.2402H747.064C748.705 65.2402 749.971 65.5951 750.863 66.3047C751.755 67.0078 752.201 68.0202 752.201 69.3418C752.201 70.3053 751.927 71.1387 751.38 71.8418C750.834 72.5384 750.095 72.9974 749.164 73.2188L752.884 79H749.642L746.449 73.7754H743.07ZM749.3 69.459C749.3 68.8014 749.089 68.3066 748.666 67.9746C748.242 67.6426 747.608 67.4766 746.761 67.4766H743.07V71.5391H746.839C747.647 71.5391 748.259 71.3568 748.675 70.9922C749.092 70.6276 749.3 70.1165 749.3 69.459ZM768.481 72.0566C768.481 73.4889 768.191 74.7422 767.612 75.8164C767.039 76.8841 766.228 77.7142 765.18 78.3066C764.139 78.8991 762.915 79.1953 761.508 79.1953C760.07 79.1953 758.833 78.9089 757.797 78.3359C756.762 77.7565 755.968 76.9329 755.415 75.8652C754.861 74.7975 754.585 73.528 754.585 72.0566C754.585 70.5853 754.858 69.3255 755.405 68.2773C755.958 67.2292 756.753 66.4284 757.788 65.875C758.829 65.3151 760.076 65.0352 761.528 65.0352C762.986 65.0352 764.233 65.3184 765.268 65.8848C766.303 66.4447 767.098 67.2487 767.651 68.2969C768.204 69.3451 768.481 70.5983 768.481 72.0566ZM765.542 72.0566C765.542 70.5723 765.19 69.4102 764.487 68.5703C763.784 67.724 762.797 67.3008 761.528 67.3008C760.239 67.3008 759.243 67.7207 758.54 68.5605C757.836 69.3939 757.485 70.5592 757.485 72.0566C757.485 73.0592 757.648 73.9251 757.973 74.6543C758.299 75.3835 758.761 75.9466 759.36 76.3438C759.965 76.7344 760.682 76.9297 761.508 76.9297C762.797 76.9297 763.79 76.5065 764.487 75.6602C765.19 74.8138 765.542 73.6126 765.542 72.0566ZM776.851 79.1953C775.588 79.1953 774.52 78.9902 773.648 78.5801C772.776 78.1634 772.115 77.5579 771.666 76.7637C771.216 75.9629 770.992 74.9896 770.992 73.8438V65.2402H773.873V73.6191C773.873 74.7064 774.13 75.5332 774.644 76.0996C775.165 76.6595 775.927 76.9395 776.929 76.9395C777.958 76.9395 778.749 76.6465 779.302 76.0605C779.856 75.4681 780.132 74.6217 780.132 73.5215V65.2402H783.013V73.6973C783.013 74.8561 782.769 75.8457 782.281 76.666C781.799 77.4863 781.099 78.1146 780.181 78.5508C779.263 78.9805 778.153 79.1953 776.851 79.1953ZM792.253 67.4668V79H789.372V67.4668H784.928V65.2402H796.706V67.4668H792.253ZM809.949 76.7734V79H798.728V65.2402H809.549V67.4668H801.609V70.9238H808.953V73.1504H801.609V76.7734H809.949ZM815.409 73.7754V79H812.528V65.2402H819.403C821.044 65.2402 822.31 65.5951 823.202 66.3047C824.094 67.0078 824.54 68.0202 824.54 69.3418C824.54 70.3053 824.266 71.1387 823.719 71.8418C823.173 72.5384 822.434 72.9974 821.503 73.2188L825.223 79H821.981L818.788 73.7754H815.409ZM821.639 69.459C821.639 68.8014 821.428 68.3066 821.005 67.9746C820.581 67.6426 819.947 67.4766 819.1 67.4766H815.409V71.5391H819.178C819.986 71.5391 820.598 71.3568 821.014 70.9922C821.431 70.6276 821.639 70.1165 821.639 69.459Z" fill="#00153C"/>
<g clip-path="url(#clip1_704_100673)">
<path d="M39.7285 74.7368V76H35.0884V74.7368H39.7285ZM35.5327 66.7578V76H33.9395V66.7578H35.5327ZM45.146 67.9893L42.3848 76H40.7154L44.1939 66.7578H45.2603L45.146 67.9893ZM47.4566 76L44.689 67.9893L44.5684 66.7578H45.6412L49.1324 76H47.4566ZM47.3233 72.5723V73.8354H42.2959V72.5723H47.3233ZM55.4893 73.6196C55.4893 73.4292 55.4597 73.2599 55.4005 73.1118C55.3455 72.9637 55.246 72.8283 55.1021 72.7056C54.9582 72.5828 54.7551 72.4644 54.4928 72.3501C54.2346 72.2316 53.9045 72.111 53.5025 71.9883C53.0624 71.8529 52.6562 71.7026 52.2838 71.5376C51.9156 71.3683 51.594 71.1737 51.3189 70.9536C51.0439 70.7293 50.8302 70.4733 50.6778 70.1855C50.5255 69.8936 50.4493 69.5571 50.4493 69.1763C50.4493 68.7996 50.5276 68.4569 50.6842 68.1479C50.845 67.839 51.0714 67.5724 51.3634 67.3481C51.6596 67.1196 52.0087 66.944 52.4107 66.8213C52.8127 66.6943 53.2571 66.6309 53.7437 66.6309C54.4293 66.6309 55.0196 66.7578 55.5147 67.0117C56.0141 67.2656 56.3971 67.6063 56.6637 68.0337C56.9345 68.4611 57.0699 68.9329 57.0699 69.4492H55.4893C55.4893 69.1445 55.4237 68.8758 55.2926 68.6431C55.1656 68.4061 54.9709 68.2199 54.7086 68.0845C54.4504 67.9491 54.1225 67.8813 53.7247 67.8813C53.3481 67.8813 53.0349 67.9385 52.7852 68.0527C52.5356 68.167 52.3494 68.3215 52.2266 68.5161C52.1039 68.7108 52.0426 68.9308 52.0426 69.1763C52.0426 69.3498 52.0828 69.5085 52.1632 69.6523C52.2436 69.792 52.3663 69.9232 52.5313 70.0459C52.6964 70.1644 52.9037 70.2765 53.1534 70.3823C53.4031 70.4881 53.6972 70.5897 54.0357 70.687C54.5478 70.8394 54.9942 71.0086 55.3751 71.1948C55.7559 71.3768 56.0733 71.5841 56.3272 71.8169C56.5811 72.0496 56.7716 72.3141 56.8985 72.6104C57.0255 72.9023 57.0889 73.2345 57.0889 73.6069C57.0889 73.9963 57.0107 74.3475 56.8541 74.6606C56.6975 74.9696 56.4732 75.234 56.1812 75.4541C55.8935 75.6699 55.5465 75.8371 55.1402 75.9556C54.7382 76.0698 54.2896 76.127 53.7945 76.127C53.3502 76.127 52.9122 76.0677 52.4805 75.9492C52.0531 75.8307 51.6638 75.6509 51.3126 75.4097C50.9613 75.1642 50.682 74.8595 50.4747 74.4956C50.2673 74.1274 50.1637 73.6979 50.1637 73.207H51.7569C51.7569 73.5075 51.8077 73.7635 51.9093 73.9751C52.0151 74.1867 52.161 74.3602 52.3472 74.4956C52.5334 74.6268 52.7493 74.7241 52.9947 74.7876C53.2444 74.8511 53.511 74.8828 53.7945 74.8828C54.1669 74.8828 54.4779 74.8299 54.7276 74.7241C54.9815 74.6183 55.172 74.4702 55.2989 74.2798C55.4259 74.0894 55.4893 73.8693 55.4893 73.6196ZM62.7604 66.7578V76H61.1798V66.7578H62.7604ZM65.6612 66.7578V68.0273H58.3043V66.7578H65.6612ZM72.2878 70.687H73.2019C73.5573 70.687 73.8514 70.6257 74.0842 70.5029C74.3212 70.3802 74.4968 70.2109 74.611 69.9951C74.7253 69.7793 74.7824 69.5317 74.7824 69.2524C74.7824 68.9604 74.7295 68.7108 74.6237 68.5034C74.5222 68.2918 74.3656 68.1289 74.154 68.0146C73.9466 67.9004 73.6822 67.8433 73.3605 67.8433C73.0897 67.8433 72.8443 67.8983 72.6242 68.0083C72.4084 68.1141 72.237 68.2664 72.1101 68.4653C71.9831 68.66 71.9196 68.8927 71.9196 69.1636H70.3835C70.3835 68.6727 70.5126 68.2368 70.7707 67.856C71.0288 67.4751 71.3801 67.1768 71.8244 66.9609C72.273 66.7409 72.7766 66.6309 73.3352 66.6309C73.9318 66.6309 74.4523 66.7303 74.8967 66.9292C75.3452 67.1239 75.6944 67.4159 75.944 67.8052C76.1937 68.1945 76.3186 68.6769 76.3186 69.2524C76.3186 69.5148 76.2572 69.7814 76.1345 70.0522C76.0118 70.3231 75.8298 70.5706 75.5886 70.7949C75.3474 71.015 75.0469 71.1948 74.6872 71.3345C74.3275 71.4699 73.9107 71.5376 73.4367 71.5376H72.2878V70.687ZM72.2878 71.8804V71.0425H73.4367C73.9784 71.0425 74.4396 71.106 74.8205 71.2329C75.2056 71.3599 75.5187 71.5355 75.76 71.7598C76.0012 71.9798 76.1768 72.2316 76.2868 72.5151C76.4011 72.7987 76.4582 73.0991 76.4582 73.4165C76.4582 73.8481 76.3799 74.2332 76.2233 74.5718C76.071 74.9061 75.8531 75.1896 75.5695 75.4224C75.286 75.6551 74.9538 75.8307 74.5729 75.9492C74.1963 76.0677 73.7858 76.127 73.3415 76.127C72.9437 76.127 72.5629 76.0719 72.1989 75.9619C71.835 75.8519 71.5091 75.689 71.2214 75.4731C70.9336 75.2531 70.7051 74.9801 70.5358 74.6543C70.3708 74.3242 70.2883 73.9434 70.2883 73.5117H71.8181C71.8181 73.7868 71.8815 74.0301 72.0085 74.2417C72.1397 74.4491 72.3216 74.612 72.5544 74.7305C72.7914 74.849 73.0622 74.9082 73.3669 74.9082C73.6885 74.9082 73.9657 74.8511 74.1984 74.7368C74.4312 74.6226 74.6089 74.4533 74.7316 74.229C74.8586 74.0047 74.9221 73.7339 74.9221 73.4165C74.9221 73.0568 74.8522 72.7648 74.7126 72.5405C74.5729 72.3162 74.3741 72.1512 74.1159 72.0454C73.8578 71.9354 73.5531 71.8804 73.2019 71.8804H72.2878ZM84.364 70.6045V72.1152C84.364 72.8389 84.2921 73.4567 84.1482 73.9688C84.0085 74.4766 83.8054 74.8892 83.5388 75.2065C83.2722 75.5239 82.9527 75.7567 82.5803 75.9048C82.2121 76.0529 81.7995 76.127 81.3425 76.127C80.9786 76.127 80.64 76.0804 80.3269 75.9873C80.018 75.8942 79.7387 75.7482 79.489 75.5493C79.2393 75.3504 79.0256 75.0944 78.8479 74.7812C78.6744 74.4639 78.539 74.0851 78.4416 73.645C78.3485 73.2049 78.302 72.695 78.302 72.1152V70.6045C78.302 69.8766 78.3739 69.263 78.5178 68.7637C78.6617 68.2601 78.8669 67.8517 79.1335 67.5386C79.4001 67.2212 79.7175 66.9906 80.0857 66.8467C80.4581 66.7028 80.8728 66.6309 81.3298 66.6309C81.698 66.6309 82.0365 66.6774 82.3454 66.7705C82.6586 66.8594 82.9379 67.0011 83.1833 67.1958C83.433 67.3905 83.6446 67.6444 83.8181 67.9575C83.9958 68.2664 84.1313 68.641 84.2244 69.0811C84.3175 69.5169 84.364 70.0247 84.364 70.6045ZM82.8342 72.3311V70.376C82.8342 70.0078 82.8131 69.6841 82.7707 69.4048C82.7284 69.1213 82.6649 68.8822 82.5803 68.6875C82.4999 68.4886 82.3983 68.3278 82.2756 68.2051C82.1529 68.0781 82.0133 67.9871 81.8567 67.9321C81.7001 67.8729 81.5245 67.8433 81.3298 67.8433C81.0928 67.8433 80.8813 67.8898 80.6951 67.9829C80.5089 68.0718 80.3523 68.2157 80.2253 68.4146C80.0984 68.6134 80.001 68.8758 79.9333 69.2017C79.8699 69.5233 79.8381 69.9147 79.8381 70.376V72.3311C79.8381 72.7035 79.8593 73.0314 79.9016 73.3149C79.9439 73.5985 80.0074 73.8418 80.092 74.0449C80.1767 74.2438 80.2782 74.4089 80.3967 74.54C80.5194 74.667 80.6591 74.7601 80.8157 74.8193C80.9765 74.8786 81.1521 74.9082 81.3425 74.9082C81.5837 74.9082 81.7974 74.8617 81.9836 74.7686C82.1698 74.6755 82.3264 74.5273 82.4534 74.3242C82.5803 74.1169 82.6755 73.8481 82.739 73.5181C82.8025 73.188 82.8342 72.7923 82.8342 72.3311ZM92.8123 76H90.8382L90.8509 74.7368H92.8123C93.3836 74.7368 93.8618 74.612 94.2469 74.3623C94.6362 74.1126 94.9282 73.755 95.1229 73.2896C95.3218 72.8241 95.4212 72.2697 95.4212 71.6265V71.125C95.4212 70.6257 95.3641 70.1834 95.2498 69.7983C95.1398 69.4132 94.9748 69.0895 94.7547 68.8271C94.5389 68.5648 94.2723 68.3659 93.9549 68.2305C93.6418 68.0951 93.2799 68.0273 92.8695 68.0273H90.8001V66.7578H92.8695C93.4831 66.7578 94.0438 66.8615 94.5516 67.0688C95.0594 67.272 95.4974 67.5661 95.8655 67.9512C96.2379 68.3363 96.5236 68.7975 96.7225 69.335C96.9214 69.8724 97.0208 70.4733 97.0208 71.1377V71.6265C97.0208 72.2909 96.9214 72.8918 96.7225 73.4292C96.5236 73.9666 96.2379 74.4279 95.8655 74.813C95.4932 75.1938 95.0488 75.488 94.5325 75.6953C94.0205 75.8984 93.4471 76 92.8123 76ZM91.7205 66.7578V76H90.1273V66.7578H91.7205ZM102.54 67.9893L99.7787 76H98.1092L101.588 66.7578H102.654L102.54 67.9893ZM104.85 76L102.083 67.9893L101.962 66.7578H103.035L106.526 76H104.85ZM104.717 72.5723V73.8354H99.6898V72.5723H104.717ZM108.18 66.7578L110.325 71.1694L112.471 66.7578H114.235L111.125 72.5977V76H109.519V72.5977L106.409 66.7578H108.18ZM120.465 73.6196C120.465 73.4292 120.436 73.2599 120.376 73.1118C120.321 72.9637 120.222 72.8283 120.078 72.7056C119.934 72.5828 119.731 72.4644 119.469 72.3501C119.211 72.2316 118.88 72.111 118.478 71.9883C118.038 71.8529 117.632 71.7026 117.26 71.5376C116.892 71.3683 116.57 71.1737 116.295 70.9536C116.02 70.7293 115.806 70.4733 115.654 70.1855C115.501 69.8936 115.425 69.5571 115.425 69.1763C115.425 68.7996 115.504 68.4569 115.66 68.1479C115.821 67.839 116.047 67.5724 116.339 67.3481C116.636 67.1196 116.985 66.944 117.387 66.8213C117.789 66.6943 118.233 66.6309 118.72 66.6309C119.405 66.6309 119.996 66.7578 120.491 67.0117C120.99 67.2656 121.373 67.6063 121.64 68.0337C121.91 68.4611 122.046 68.9329 122.046 69.4492H120.465C120.465 69.1445 120.4 68.8758 120.268 68.6431C120.142 68.4061 119.947 68.2199 119.685 68.0845C119.426 67.9491 119.098 67.8813 118.701 67.8813C118.324 67.8813 118.011 67.9385 117.761 68.0527C117.511 68.167 117.325 68.3215 117.203 68.5161C117.08 68.7108 117.018 68.9308 117.018 69.1763C117.018 69.3498 117.059 69.5085 117.139 69.6523C117.22 69.792 117.342 69.9232 117.507 70.0459C117.672 70.1644 117.88 70.2765 118.129 70.3823C118.379 70.4881 118.673 70.5897 119.012 70.687C119.524 70.8394 119.97 71.0086 120.351 71.1948C120.732 71.3768 121.049 71.5841 121.303 71.8169C121.557 72.0496 121.747 72.3141 121.874 72.6104C122.001 72.9023 122.065 73.2345 122.065 73.6069C122.065 73.9963 121.987 74.3475 121.83 74.6606C121.673 74.9696 121.449 75.234 121.157 75.4541C120.869 75.6699 120.522 75.8371 120.116 75.9556C119.714 76.0698 119.266 76.127 118.77 76.127C118.326 76.127 117.888 76.0677 117.456 75.9492C117.029 75.8307 116.64 75.6509 116.289 75.4097C115.937 75.1642 115.658 74.8595 115.451 74.4956C115.243 74.1274 115.14 73.6979 115.14 73.207H116.733C116.733 73.5075 116.784 73.7635 116.885 73.9751C116.991 74.1867 117.137 74.3602 117.323 74.4956C117.509 74.6268 117.725 74.7241 117.971 74.7876C118.22 74.8511 118.487 74.8828 118.77 74.8828C119.143 74.8828 119.454 74.8299 119.704 74.7241C119.957 74.6183 120.148 74.4702 120.275 74.2798C120.402 74.0894 120.465 73.8693 120.465 73.6196Z" fill="#054DA7"/>
<line x1="132.5" y1="87" x2="132.5" y2="57" stroke="#054DA7"/>
<rect width="39" height="30" transform="translate(133 57)" fill="#096BDE" fill-opacity="0.08"/>
<path d="M147.916 69.7083L152.499 74.2916L157.083 69.7083H147.916Z" fill="#02367D"/>
</g>
<rect x="23.5" y="57.5" width="148" height="29" rx="3.5" stroke="#054DA7"/>
<path d="M50.1709 222.341C50.1709 223.229 49.8883 223.918 49.3232 224.405C48.7581 224.893 47.9515 225.137 46.9033 225.137C45.9281 225.137 45.1488 224.918 44.5654 224.48C43.9867 224.038 43.6426 223.387 43.5332 222.525L44.8047 222.409C44.9688 223.549 45.6683 224.118 46.9033 224.118C47.5231 224.118 48.0085 223.965 48.3594 223.66C48.7148 223.355 48.8926 222.901 48.8926 222.3C48.8926 221.776 48.6898 221.368 48.2842 221.076C47.8831 220.78 47.3021 220.632 46.541 220.632H45.8438V219.565H46.5137C47.1882 219.565 47.71 219.42 48.0791 219.128C48.4528 218.832 48.6396 218.424 48.6396 217.904C48.6396 217.389 48.487 216.984 48.1816 216.688C47.8809 216.387 47.432 216.236 46.835 216.236C46.2926 216.236 45.8529 216.375 45.5156 216.653C45.1829 216.931 44.9893 217.323 44.9346 217.829L43.6973 217.733C43.7884 216.945 44.1143 216.33 44.6748 215.888C45.2399 215.446 45.9645 215.225 46.8486 215.225C47.8148 215.225 48.5645 215.45 49.0977 215.901C49.6354 216.348 49.9043 216.972 49.9043 217.774C49.9043 218.39 49.7311 218.891 49.3848 219.278C49.043 219.661 48.5439 219.921 47.8877 220.058V220.085C48.6077 220.162 49.1683 220.404 49.5693 220.81C49.9704 221.215 50.1709 221.726 50.1709 222.341ZM58.4922 220.181C58.4922 221.789 58.2074 223.018 57.6377 223.865C57.0726 224.713 56.2364 225.137 55.1289 225.137C54.0215 225.137 53.1898 224.715 52.6338 223.872C52.0778 223.029 51.7998 221.799 51.7998 220.181C51.7998 218.526 52.0687 217.287 52.6065 216.462C53.1488 215.637 54.0033 215.225 55.17 215.225C56.3047 215.225 57.141 215.642 57.6788 216.476C58.2211 217.31 58.4922 218.545 58.4922 220.181ZM57.2413 220.181C57.2413 219.251 57.1706 218.497 57.0293 217.918C56.8926 217.335 56.6716 216.906 56.3663 216.633C56.0609 216.359 55.6621 216.223 55.17 216.223C54.6687 216.223 54.2608 216.357 53.9463 216.626C53.6319 216.895 53.4017 217.321 53.2559 217.904C53.1146 218.483 53.044 219.242 53.044 220.181C53.044 221.092 53.1169 221.84 53.2627 222.423C53.4131 223.006 53.6433 223.437 53.9532 223.715C54.2631 223.993 54.6595 224.132 55.1426 224.132C55.8672 224.132 56.3982 223.808 56.7354 223.161C57.0726 222.514 57.2413 221.521 57.2413 220.181ZM73.3029 220.085C73.3029 221.101 73.1046 221.976 72.7081 222.71C72.3162 223.444 71.767 224.009 71.0607 224.405C70.3588 224.802 69.5431 225 68.6134 225H65.0109V215.368H68.1964C69.8279 215.368 71.0857 215.778 71.9698 216.599C72.8585 217.414 73.3029 218.576 73.3029 220.085ZM71.9904 220.085C71.9904 218.891 71.6622 217.982 71.006 217.357C70.3543 216.729 69.4086 216.414 68.1691 216.414H66.3165V223.954H68.463C69.1785 223.954 69.7983 223.797 70.3224 223.482C70.851 223.168 71.2612 222.721 71.5529 222.143C71.8445 221.564 71.9904 220.878 71.9904 220.085ZM76.9279 222.184L75.8205 225H74.467L78.3976 215.368H79.881L83.7502 225H82.4171L81.3166 222.184H76.9279ZM79.1222 216.353C79.0448 216.608 78.9513 216.893 78.842 217.207C78.7371 217.517 78.6392 217.79 78.548 218.027L77.3244 221.165H80.9269L79.6896 217.986C79.6258 217.827 79.5415 217.601 79.4367 217.31C79.3319 217.018 79.227 216.699 79.1222 216.353ZM88.51 221.008V225H87.2111V221.008L83.5061 215.368H84.9416L87.8742 219.955L90.7932 215.368H92.2287L88.51 221.008ZM101.692 222.341C101.692 223.229 101.343 223.918 100.646 224.405C99.953 224.893 98.9755 225.137 97.7131 225.137C95.3661 225.137 94.0058 224.321 93.6321 222.689L94.8967 222.437C95.0426 223.015 95.3524 223.441 95.8264 223.715C96.3004 223.984 96.9452 224.118 97.761 224.118C98.6041 224.118 99.2535 223.975 99.7092 223.688C100.17 223.396 100.4 222.97 100.4 222.409C100.4 222.095 100.327 221.84 100.181 221.644C100.04 221.448 99.8391 221.286 99.5793 221.158C99.3196 221.031 99.0097 220.924 98.6496 220.837C98.2896 220.75 97.8909 220.657 97.4534 220.557C96.9475 220.443 96.5237 220.331 96.1819 220.222C95.8446 220.112 95.5666 219.998 95.3479 219.88C95.1291 219.757 94.9423 219.627 94.7873 219.49C94.5595 219.281 94.384 219.037 94.261 218.759C94.1425 218.481 94.0832 218.162 94.0832 217.802C94.0832 216.977 94.3977 216.341 95.0266 215.895C95.6601 215.448 96.5647 215.225 97.7405 215.225C98.8342 215.225 99.6705 215.393 100.249 215.73C100.828 216.063 101.234 216.633 101.466 217.439L100.181 217.665C100.04 217.155 99.7707 216.785 99.3743 216.558C98.9778 216.325 98.4286 216.209 97.7268 216.209C96.9566 216.209 96.3687 216.337 95.9631 216.592C95.5575 216.847 95.3547 217.228 95.3547 217.733C95.3547 218.03 95.4322 218.276 95.5871 218.472C95.7467 218.663 95.9745 218.825 96.2707 218.957C96.5487 219.089 97.1389 219.256 98.0412 219.456C98.4104 219.543 98.775 219.634 99.135 219.729C99.495 219.821 99.8345 219.937 100.154 220.078C100.34 220.156 100.518 220.251 100.687 220.365C100.86 220.475 101.01 220.602 101.138 220.748C101.311 220.939 101.446 221.165 101.541 221.425C101.642 221.685 101.692 221.99 101.692 222.341ZM108.86 222.184L107.752 225H106.399L110.329 215.368H111.813L115.682 225H114.349L113.248 222.184H108.86ZM111.054 216.353C110.977 216.608 110.883 216.893 110.774 217.207C110.669 217.517 110.571 217.79 110.48 218.027L109.256 221.165H112.859L111.621 217.986C111.558 217.827 111.473 217.601 111.368 217.31C111.264 217.018 111.159 216.699 111.054 216.353ZM121.727 224.077C122.356 224.077 122.941 223.981 123.484 223.79C124.031 223.599 124.473 223.339 124.81 223.011V221.274H121.932V220.181H126.013V223.503C125.503 224.022 124.876 224.426 124.133 224.713C123.395 224.995 122.593 225.137 121.727 225.137C120.724 225.137 119.861 224.934 119.136 224.528C118.411 224.123 117.853 223.546 117.461 222.799C117.069 222.047 116.873 221.16 116.873 220.14C116.873 218.576 117.293 217.367 118.131 216.51C118.97 215.653 120.148 215.225 121.665 215.225C122.732 215.225 123.598 215.405 124.263 215.765C124.928 216.125 125.441 216.701 125.801 217.494L124.557 217.863C124.284 217.316 123.905 216.918 123.422 216.667C122.944 216.416 122.347 216.291 121.631 216.291C120.519 216.291 119.669 216.628 119.081 217.303C118.494 217.973 118.2 218.918 118.2 220.14C118.2 221.356 118.512 222.318 119.136 223.024C119.76 223.726 120.624 224.077 121.727 224.077ZM137.746 220.14C137.746 221.17 137.55 222.058 137.158 222.806C136.77 223.553 136.219 224.13 135.503 224.535C134.788 224.936 133.94 225.137 132.96 225.137C131.976 225.137 131.126 224.936 130.411 224.535C129.7 224.134 129.15 223.56 128.763 222.812C128.38 222.065 128.189 221.174 128.189 220.14C128.189 219.11 128.378 218.23 128.756 217.501C129.139 216.767 129.686 216.204 130.397 215.812C131.112 215.421 131.971 215.225 132.974 215.225C133.958 215.225 134.806 215.418 135.517 215.806C136.232 216.193 136.782 216.754 137.164 217.487C137.552 218.216 137.746 219.101 137.746 220.14ZM136.412 220.14C136.412 218.941 136.112 218 135.51 217.316C134.913 216.633 134.068 216.291 132.974 216.291C131.871 216.291 131.019 216.628 130.417 217.303C129.816 217.977 129.515 218.923 129.515 220.14C129.515 220.942 129.652 221.639 129.925 222.231C130.199 222.819 130.593 223.275 131.108 223.599C131.623 223.918 132.24 224.077 132.96 224.077C134.072 224.077 134.925 223.735 135.517 223.052C136.114 222.364 136.412 221.393 136.412 220.14Z" fill="#00153C"/>
<line x1="151" y1="219.5" x2="1288" y2="219.5" stroke="#096BDE" stroke-width="2"/>
<path d="M1302.92 216.435V225H1301.62V216.435H1298.31V215.368H1306.23V216.435H1302.92ZM1316.98 220.14C1316.98 221.17 1316.78 222.058 1316.39 222.806C1316 223.553 1315.45 224.13 1314.74 224.535C1314.02 224.936 1313.17 225.137 1312.19 225.137C1311.21 225.137 1310.36 224.936 1309.64 224.535C1308.93 224.134 1308.38 223.56 1308 222.812C1307.61 222.065 1307.42 221.174 1307.42 220.14C1307.42 219.11 1307.61 218.23 1307.99 217.501C1308.37 216.767 1308.92 216.204 1309.63 215.812C1310.35 215.421 1311.2 215.225 1312.21 215.225C1313.19 215.225 1314.04 215.418 1314.75 215.806C1315.47 216.193 1316.01 216.754 1316.4 217.487C1316.78 218.216 1316.98 219.101 1316.98 220.14ZM1315.65 220.14C1315.65 218.941 1315.34 218 1314.74 217.316C1314.15 216.633 1313.3 216.291 1312.21 216.291C1311.1 216.291 1310.25 216.628 1309.65 217.303C1309.05 217.977 1308.75 218.923 1308.75 220.14C1308.75 220.942 1308.88 221.639 1309.16 222.231C1309.43 222.819 1309.83 223.275 1310.34 223.599C1310.86 223.918 1311.47 224.077 1312.19 224.077C1313.31 224.077 1314.16 223.735 1314.75 223.052C1315.35 222.364 1315.65 221.393 1315.65 220.14ZM1327.56 220.085C1327.56 221.101 1327.36 221.976 1326.96 222.71C1326.57 223.444 1326.02 224.009 1325.31 224.405C1324.61 224.802 1323.8 225 1322.87 225H1319.26V215.368H1322.45C1324.08 215.368 1325.34 215.778 1326.22 216.599C1327.11 217.414 1327.56 218.576 1327.56 220.085ZM1326.24 220.085C1326.24 218.891 1325.92 217.982 1325.26 217.357C1324.61 216.729 1323.66 216.414 1322.42 216.414H1320.57V223.954H1322.72C1323.43 223.954 1324.05 223.797 1324.58 223.482C1325.1 223.168 1325.51 222.721 1325.81 222.143C1326.1 221.564 1326.24 220.878 1326.24 220.085ZM1331.18 222.184L1330.07 225H1328.72L1332.65 215.368H1334.13L1338 225H1336.67L1335.57 222.184H1331.18ZM1333.38 216.353C1333.3 216.608 1333.2 216.893 1333.09 217.207C1332.99 217.517 1332.89 217.79 1332.8 218.027L1331.58 221.165H1335.18L1333.94 217.986C1333.88 217.827 1333.79 217.601 1333.69 217.31C1333.58 217.018 1333.48 216.699 1333.38 216.353ZM1342.76 221.008V225H1341.46V221.008L1337.76 215.368H1339.19L1342.13 219.955L1345.05 215.368H1346.48L1342.76 221.008Z" fill="#00153C"/>
<rect x="112" y="126" width="25.366" height="64" rx="4" fill="#43A047"/>
<rect x="151.701" y="126" width="25.366" height="64" rx="4" fill="#BF8700"/>
<rect x="191.402" y="126" width="25.366" height="64" rx="4" fill="#43A047"/>
<rect x="231.104" y="126" width="25.366" height="64" rx="4" fill="#43A047"/>
<rect x="270.805" y="126" width="25.366" height="64" rx="4" fill="#43A047"/>
<rect x="310.506" y="126" width="25.366" height="64" rx="4" fill="#43A047"/>
<rect x="350.207" y="126" width="25.366" height="64" rx="4" fill="#43A047"/>
<rect x="389.908" y="126" width="25.366" height="64" rx="4" fill="#43A047"/>
<rect x="429.609" y="126" width="25.366" height="64" rx="4" fill="#43A047"/>
<rect x="469.311" y="126" width="25.366" height="64" rx="4" fill="#43A047"/>
<rect x="509.012" y="126" width="25.366" height="64" rx="4" fill="#43A047"/>
<rect x="548.713" y="126" width="25.366" height="64" rx="4" fill="#43A047"/>
<rect x="588.414" y="126" width="25.366" height="64" rx="4" fill="#43A047"/>
<rect x="628.115" y="126" width="25.366" height="64" rx="4" fill="#43A047"/>
<rect x="667.816" y="126" width="25.366" height="64" rx="4" fill="#BF8700"/>
<rect x="707.518" y="126" width="25.366" height="64" rx="4" fill="#BF8700"/>
<rect x="747.221" y="126" width="25.366" height="64" rx="4" fill="#43A047"/>
<rect x="786.92" y="126" width="25.366" height="64" rx="4" fill="#43A047"/>
<rect x="826.621" y="126" width="25.366" height="64" rx="4" fill="#43A047"/>
<rect x="866.322" y="126" width="25.366" height="64" rx="4" fill="#43A047"/>
<rect x="906.023" y="126" width="25.366" height="64" rx="4" fill="#43A047"/>
<rect x="945.727" y="126" width="25.366" height="64" rx="4" fill="#43A047"/>
<rect x="985.426" y="126" width="25.366" height="64" rx="4" fill="#43A047"/>
<rect x="1025.13" y="126" width="25.366" height="64" rx="4" fill="#43A047"/>
<rect x="1064.83" y="126" width="25.366" height="64" rx="4" fill="#43A047"/>
<rect x="1104.53" y="126" width="25.366" height="64" rx="4" fill="#43A047"/>
<rect x="1144.23" y="126" width="25.366" height="64" rx="4" fill="#43A047"/>
<rect x="1183.93" y="126" width="25.366" height="64" rx="4" fill="#43A047"/>
<rect x="1223.63" y="126" width="25.366" height="64" rx="4" fill="#43A047"/>
<rect x="1263" y="126" width="25.366" height="64" rx="4" fill="#D3232F"/>
<g filter="url(#filter1_ddd_704_100673)">
<rect width="1395" height="37" transform="translate(1 3)" fill="white"/>
<g clip-path="url(#clip2_704_100673)">
<path d="M24.75 29C24.75 30.375 23.625 31.5 22.25 31.5C20.875 31.5 19.75 30.375 19.75 29C19.75 27.625 20.875 26.5 22.25 26.5C23.625 26.5 24.75 27.625 24.75 29ZM22.25 19C20.875 19 19.75 20.125 19.75 21.5C19.75 22.875 20.875 24 22.25 24C23.625 24 24.75 22.875 24.75 21.5C24.75 20.125 23.625 19 22.25 19ZM22.25 11.5C20.875 11.5 19.75 12.625 19.75 14C19.75 15.375 20.875 16.5 22.25 16.5C23.625 16.5 24.75 15.375 24.75 14C24.75 12.625 23.625 11.5 22.25 11.5ZM29.75 16.5C31.125 16.5 32.25 15.375 32.25 14C32.25 12.625 31.125 11.5 29.75 11.5C28.375 11.5 27.25 12.625 27.25 14C27.25 15.375 28.375 16.5 29.75 16.5ZM29.75 19C28.375 19 27.25 20.125 27.25 21.5C27.25 22.875 28.375 24 29.75 24C31.125 24 32.25 22.875 32.25 21.5C32.25 20.125 31.125 19 29.75 19ZM29.75 26.5C28.375 26.5 27.25 27.625 27.25 29C27.25 30.375 28.375 31.5 29.75 31.5C31.125 31.5 32.25 30.375 32.25 29C32.25 27.625 31.125 26.5 29.75 26.5Z" fill="black"/>
</g>
<path d="M1366.85 20.5H1375.15C1375.61 20.5 1375.98 20.875 1375.98 21.3333C1375.98 21.7917 1375.61 22.1667 1375.15 22.1667H1366.85C1366.39 22.1667 1366.02 21.7917 1366.02 21.3333C1366.02 20.875 1366.39 20.5 1366.85 20.5Z" fill="#00153C"/>
</g>
</g>
<defs>
<filter id="filter0_d_704_100673" x="0" y="0" width="1392" height="246" filterUnits="userSpaceOnUse" color-interpolation-filters="sRGB">
<feFlood flood-opacity="0" result="BackgroundImageFix"/>
<feColorMatrix in="SourceAlpha" type="matrix" values="0 0 0 0 0 0 0 0 0 0 0 0 0 0 0 0 0 0 127 0" result="hardAlpha"/>
<feMorphology radius="1" operator="dilate" in="SourceAlpha" result="effect1_dropShadow_704_100673"/>
<feOffset/>
<feColorMatrix type="matrix" values="0 0 0 0 0.878431 0 0 0 0 0.878431 0 0 0 0 0.878431 0 0 0 1 0"/>
<feBlend mode="normal" in2="BackgroundImageFix" result="effect1_dropShadow_704_100673"/>
<feBlend mode="normal" in="SourceGraphic" in2="effect1_dropShadow_704_100673" result="shape"/>
</filter>
<filter id="filter1_ddd_704_100673" x="-2" y="1" width="1401" height="43" filterUnits="userSpaceOnUse" color-interpolation-filters="sRGB">
<feFlood flood-opacity="0" result="BackgroundImageFix"/>
<feColorMatrix in="SourceAlpha" type="matrix" values="0 0 0 0 0 0 0 0 0 0 0 0 0 0 0 0 0 0 127 0" result="hardAlpha"/>
<feMorphology radius="1" operator="erode" in="SourceAlpha" result="effect1_dropShadow_704_100673"/>
<feOffset dy="2"/>
<feGaussianBlur stdDeviation="0.5"/>
<feComposite in2="hardAlpha" operator="out"/>
<feColorMatrix type="matrix" values="0 0 0 0 0 0 0 0 0 0 0 0 0 0 0 0 0 0 0.2 0"/>
<feBlend mode="normal" in2="BackgroundImageFix" result="effect1_dropShadow_704_100673"/>
<feColorMatrix in="SourceAlpha" type="matrix" values="0 0 0 0 0 0 0 0 0 0 0 0 0 0 0 0 0 0 127 0" result="hardAlpha"/>
<feOffset dy="1"/>
<feGaussianBlur stdDeviation="0.5"/>
<feComposite in2="hardAlpha" operator="out"/>
<feColorMatrix type="matrix" values="0 0 0 0 0 0 0 0 0 0 0 0 0 0 0 0 0 0 0.14 0"/>
<feBlend mode="normal" in2="effect1_dropShadow_704_100673" result="effect2_dropShadow_704_100673"/>
<feColorMatrix in="SourceAlpha" type="matrix" values="0 0 0 0 0 0 0 0 0 0 0 0 0 0 0 0 0 0 127 0" result="hardAlpha"/>
<feOffset dy="1"/>
<feGaussianBlur stdDeviation="1.5"/>
<feComposite in2="hardAlpha" operator="out"/>
<feColorMatrix type="matrix" values="0 0 0 0 0 0 0 0 0 0 0 0 0 0 0 0 0 0 0.12 0"/>
<feBlend mode="normal" in2="effect2_dropShadow_704_100673" result="effect3_dropShadow_704_100673"/>
<feBlend mode="normal" in="SourceGraphic" in2="effect3_dropShadow_704_100673" result="shape"/>
</filter>
<clipPath id="clip0_704_100673">
<rect width="1390" height="244" fill="white" transform="translate(1 1)"/>
</clipPath>
<clipPath id="clip1_704_100673">
<rect x="23" y="57" width="149" height="30" rx="4" fill="white"/>
</clipPath>
<clipPath id="clip2_704_100673">
<rect width="30" height="30" fill="white" transform="translate(11 6.5)"/>
</clipPath>
</defs>
</svg>
