<svg width="58" height="49" viewBox="0 0 58 49" fill="none" xmlns="http://www.w3.org/2000/svg">
<path d="M19.5296 4.88026C17.9177 10.6377 11.2644 19.3254 2.6162 20.312C2.38197 20.3387 2.32711 20.7925 2.54972 20.8701C7.6764 22.6576 12.9454 26.8562 15.4364 30.7682C17.3848 33.8279 19.5611 42.9651 19.5611 39.3277C19.5611 35.1672 22.4976 29.8181 25.3357 26.7892C27.6887 24.278 31.2478 22.2934 34.4101 21.0519C36.2623 20.3247 38.3076 21.2223 35.8766 20.4042C30.6573 18.6478 27.1918 16.4252 23.6858 11.0118C22.0564 8.49598 19.771 -3.13257 19.5643 4.63663C19.5622 4.71697 19.5513 4.80287 19.5296 4.88026Z" stroke="#0050FF" stroke-opacity="0.2" stroke-width="3" stroke-linecap="round"/>
<path d="M43.832 10.4731C47.898 11.1147 52.0361 10.6635 55.8516 11.2655" stroke="#0050FF" stroke-opacity="0.2" stroke-width="3" stroke-linecap="round"/>
<path d="M49.3223 3.61053C48.5932 8.23133 50.1797 12.1707 49.4371 16.8774" stroke="#0050FF" stroke-opacity="0.2" stroke-width="3" stroke-linecap="round"/>
<path d="M45.6221 45.6206C45.5725 44.8054 45.4317 43.9952 45.1689 43.2202C44.768 42.0382 43.9694 41.07 43.0781 40.2175C41.9286 39.1181 40.6639 38.1557 39.165 37.6291C39.0193 37.578 38.8336 37.6044 38.6835 37.5712C38.6535 37.5645 39.4815 37.2465 39.61 37.2113C40.7309 36.9047 41.8641 36.3338 42.7263 35.5537C43.1115 35.2052 43.5642 34.9215 43.8845 34.5121C44.3751 33.885 44.8695 33.2628 45.3083 32.597C45.884 31.7236 46.5048 30.8007 46.9159 29.8361C46.9993 29.6405 47.0924 29.4411 47.1527 29.2375C47.1819 29.1388 47.2478 28.5557 47.269 28.9042C47.354 30.3021 48.0068 31.4233 48.7142 32.5834C49.2956 33.5367 49.9695 34.5066 50.8112 35.2519C51.7157 36.0527 52.8166 36.6087 53.8924 37.1359C54.6854 37.5245 55.5109 37.697 56.376 37.8006C56.7424 37.8444 56.0814 37.9806 55.9802 38.0295C55.2168 38.3983 54.4432 38.7562 53.6967 39.1585C52.912 39.5814 52.1869 40.1137 51.4729 40.6442C50.4635 41.3943 49.6287 42.3758 48.7653 43.2823C48.3712 43.6961 48.0449 44.0661 47.7413 44.5358C47.3086 45.2053 46.874 45.9077 46.5878 46.6545C46.5341 46.7947 46.5997 46.8511 46.4532 46.9358" stroke="#0050FF" stroke-opacity="0.2" stroke-width="3" stroke-linecap="round"/>
</svg>
