<svg width="801" height="574" viewBox="0 0 801 574" fill="none" xmlns="http://www.w3.org/2000/svg">
<g clip-path="url(#clip0_52_114)">
<rect x="54.8369" y="2" width="837.818" height="481.568" transform="rotate(6.29906 54.8369 2)" fill="#96B6FC" fill-opacity="0.3"/>
<rect x="54.8369" y="2" width="837.818" height="481.568" transform="rotate(6.29906 54.8369 2)" fill="url(#paint0_linear_52_114)" fill-opacity="0.2"/>
<path d="M403.187 38.9678L402.75 38.9242L364.959 382.488L365.396 382.532L403.187 38.9678Z" fill="#0050FF" fill-opacity="0.2"/>
<path d="M363.251 34.9771L362.814 34.9335L325.024 378.497L325.461 378.541L363.251 34.9771Z" fill="#0050FF" fill-opacity="0.2"/>
<path d="M323.333 31.0009L322.896 30.9573L285.105 374.521L285.542 374.565L323.333 31.0009Z" fill="#0050FF" fill-opacity="0.2"/>
<path d="M483.608 46.9261L483.171 46.8825L445.38 390.446L445.817 390.49L483.608 46.9261Z" fill="#0050FF" fill-opacity="0.2"/>
<path d="M443.672 42.9354L443.235 42.8918L405.444 386.456L405.881 386.499L443.672 42.9354Z" fill="#0050FF" fill-opacity="0.2"/>
<path d="M283.397 27.0103L282.96 26.9667L245.169 370.531L245.606 370.574L283.397 27.0103Z" fill="#0050FF" fill-opacity="0.2"/>
<path d="M243.479 23.0214L243.042 22.9778L205.251 366.542L205.688 366.585L243.479 23.0214Z" fill="#0050FF" fill-opacity="0.2"/>
<path d="M203.543 19.0437L203.105 19.0001L165.315 362.564L165.752 362.608L203.543 19.0437Z" fill="#0050FF" fill-opacity="0.2"/>
<path d="M163.607 15.0532L163.17 15.0096L125.379 358.573L125.816 358.617L163.607 15.0532Z" fill="#0050FF" fill-opacity="0.2"/>
<path d="M123.69 11.0513L123.253 11.0077L85.4648 354.572L85.9018 354.615L123.69 11.0513Z" fill="#0050FF" fill-opacity="0.2"/>
<path d="M83.77 7.07532L83.333 7.03171L45.5423 350.596L45.9794 350.639L83.77 7.07532Z" fill="#0050FF" fill-opacity="0.2"/>
<path d="M43.8531 3.08598L43.416 3.04239L5.59382 346.603L6.03085 346.647L43.8531 3.08598Z" fill="#0050FF" fill-opacity="0.2"/>
<path d="M43.2928 3.03028L43.2471 3.44763L483.354 47.4881L483.4 47.0707L43.2928 3.03028Z" fill="#0050FF" fill-opacity="0.2"/>
<path d="M39.1053 41.1669L39.0596 41.5842L479.167 85.6247L479.212 85.2073L39.1053 41.1669Z" fill="#0050FF" fill-opacity="0.2"/>
<path d="M34.9364 79.2884L34.8906 79.7057L474.998 123.746L475.044 123.329L34.9364 79.2884Z" fill="#0050FF" fill-opacity="0.2"/>
<path d="M30.7479 117.425L30.7021 117.842L470.809 161.883L470.855 161.465L30.7479 117.425Z" fill="#0050FF" fill-opacity="0.2"/>
<path d="M26.5624 155.545L26.5166 155.962L466.624 200.003L466.669 199.585L26.5624 155.545Z" fill="#0050FF" fill-opacity="0.2"/>
<path d="M22.3915 193.683L22.3457 194.101L462.453 238.141L462.499 237.724L22.3915 193.683Z" fill="#0050FF" fill-opacity="0.2"/>
<path d="M18.204 231.82L18.1582 232.237L458.265 276.278L458.311 275.86L18.204 231.82Z" fill="#0050FF" fill-opacity="0.2"/>
<path d="M14.0008 269.938L13.9551 270.356L454.062 314.396L454.108 313.979L14.0008 269.938Z" fill="#0050FF" fill-opacity="0.2"/>
<path d="M9.83189 308.06L9.78613 308.477L449.893 352.518L449.939 352.101L9.83189 308.06Z" fill="#0050FF" fill-opacity="0.2"/>
<path d="M5.64537 346.18L5.59961 346.597L445.708 390.628L445.754 390.211L5.64537 346.18Z" fill="#0050FF" fill-opacity="0.2"/>
<path d="M365.692 381.686L365.255 381.643L327.464 725.206L327.901 725.25L365.692 381.686Z" fill="#0050FF" fill-opacity="0.2"/>
<path d="M325.756 377.695L325.319 377.652L287.528 721.216L287.965 721.259L325.756 377.695Z" fill="#0050FF" fill-opacity="0.2"/>
<path d="M285.837 373.719L285.4 373.676L247.609 717.24L248.047 717.283L285.837 373.719Z" fill="#0050FF" fill-opacity="0.2"/>
<path d="M446.113 389.644L445.676 389.601L407.885 733.165L408.322 733.208L446.113 389.644Z" fill="#0050FF" fill-opacity="0.2"/>
<path d="M406.177 385.654L405.74 385.61L367.949 729.174L368.386 729.218L406.177 385.654Z" fill="#0050FF" fill-opacity="0.2"/>
<path d="M245.902 369.729L245.465 369.685L207.674 713.249L208.111 713.293L245.902 369.729Z" fill="#0050FF" fill-opacity="0.2"/>
<path d="M205.984 365.74L205.547 365.696L167.756 709.26L168.193 709.304L205.984 365.74Z" fill="#0050FF" fill-opacity="0.2"/>
<path d="M166.047 361.762L165.61 361.718L127.819 705.282L128.256 705.326L166.047 361.762Z" fill="#0050FF" fill-opacity="0.2"/>
<path d="M126.112 357.772L125.675 357.728L87.8839 701.292L88.3209 701.335L126.112 357.772Z" fill="#0050FF" fill-opacity="0.2"/>
<path d="M86.1948 353.77L85.7578 353.726L47.9697 697.29L48.4067 697.334L86.1948 353.77Z" fill="#0050FF" fill-opacity="0.2"/>
<path d="M46.2749 349.794L45.8379 349.75L8.04722 693.314L8.48425 693.358L46.2749 349.794Z" fill="#0050FF" fill-opacity="0.2"/>
<path d="M6.35793 345.804L5.9209 345.761L-31.9013 689.321L-31.4643 689.365L6.35793 345.804Z" fill="#0050FF" fill-opacity="0.2"/>
<path d="M5.79771 345.749L5.75195 346.166L445.859 390.206L445.905 389.789L5.79771 345.749Z" fill="#0050FF" fill-opacity="0.2"/>
<path d="M1.61021 383.885L1.56445 384.303L441.672 428.343L441.717 427.926L1.61021 383.885Z" fill="#0050FF" fill-opacity="0.2"/>
<path d="M-2.55874 422.007L-2.60449 422.424L437.503 466.465L437.548 466.047L-2.55874 422.007Z" fill="#0050FF" fill-opacity="0.2"/>
<path d="M-6.74721 460.143L-6.79297 460.561L433.314 504.601L433.36 504.184L-6.74721 460.143Z" fill="#0050FF" fill-opacity="0.2"/>
<path d="M-10.9328 498.263L-10.9785 498.681L429.129 542.721L429.174 542.304L-10.9328 498.263Z" fill="#0050FF" fill-opacity="0.2"/>
<path d="M-15.1037 536.402L-15.1494 536.819L424.958 580.859L425.003 580.442L-15.1037 536.402Z" fill="#0050FF" fill-opacity="0.2"/>
</g>
<rect x="54.3948" y="1.44816" width="838.818" height="482.568" transform="rotate(6.29906 54.3948 1.44816)" stroke="#90BCF1"/>
<defs>
<linearGradient id="paint0_linear_52_114" x1="892.655" y1="242.784" x2="54.8369" y2="242.784" gradientUnits="userSpaceOnUse">
<stop offset="0.00124764" stop-color="white"/>
<stop offset="0.442308" stop-color="#8EAAD7"/>
<stop offset="0.716346" stop-color="#8EAAD7"/>
<stop offset="0.974288" stop-color="white"/>
</linearGradient>
<clipPath id="clip0_52_114">
<rect x="54.8369" y="2" width="837.818" height="481.568" transform="rotate(6.29906 54.8369 2)" fill="white"/>
</clipPath>
</defs>
</svg>
